<?xml version="1.0" encoding="UTF-8" standalone="no"?>
<!-- Generator: Adobe Illustrator 26.2.1, SVG Export Plug-In . SVG Version: 6.00 Build 0)  -->

<svg
   version="1.1"
   x="0px"
   y="0px"
   viewBox="0 0 1067 580"
   style="enable-background:new 0 0 1067 580;"
   xml:space="preserve"
   id="svg646"
   sodipodi:docname="top_wide.svg"
   inkscape:version="1.2.1 (9c6d41e, 2022-07-14)"
   xmlns:inkscape="http://www.inkscape.org/namespaces/inkscape"
   xmlns:sodipodi="http://sodipodi.sourceforge.net/DTD/sodipodi-0.dtd"
   xmlns="http://www.w3.org/2000/svg"
   xmlns:svg="http://www.w3.org/2000/svg"><defs
   id="defs650" /><sodipodi:namedview
   id="namedview648"
   pagecolor="#505050"
   bordercolor="#eeeeee"
   borderopacity="1"
   inkscape:showpageshadow="0"
   inkscape:pageopacity="0"
   inkscape:pagecheckerboard="0"
   inkscape:deskcolor="#505050"
   showgrid="false"
   inkscape:zoom="5.9696063"
   inkscape:cx="1028.5435"
   inkscape:cy="562.01361"
   inkscape:window-width="1920"
   inkscape:window-height="1052"
   inkscape:window-x="0"
   inkscape:window-y="28"
   inkscape:window-maximized="0"
   inkscape:current-layer="Layer_2" />
<style
   type="text/css"
   id="style587">
	.st0{fill:#271D30;}
	.st1{fill:none;stroke:#000000;stroke-miterlimit:10;}
	.st2{fill:#271D30;stroke:#F952F9;stroke-width:3;stroke-miterlimit:10;}
	.st3{fill:none;stroke:#F952F9;stroke-width:3;stroke-miterlimit:10;}
	.st4{fill:none;stroke:#F952F9;stroke-width:3;stroke-linecap:round;stroke-linejoin:round;stroke-miterlimit:10;}
	.st5{fill:none;stroke:#00FAFA;stroke-width:3;stroke-miterlimit:10;}
	.st6{fill:#00FAFA;}
</style>
<g
   id="Layer_1">
</g>
<g
   id="Layer_2">
	<path
   class="st1"
   d="M537.3,307.86l148.16,65.85c0,0-84.64,66.99-149.37,70.17h-0.05c-64.73-3.18-149.37-70.17-149.37-70.17   l148.16-65.85"
   id="path590" />
	<path
   class="st1"
   d="M536.06,62.21c-0.01-0.01-0.03-0.01-0.03-0.01v0.04C536.05,62.22,536.05,62.22,536.06,62.21z"
   id="path592" />
	<path
   class="st1"
   d="M266.36,196.42c0,0,77.4-53.62,172.22-54.45l87.38,151.96l-164.62,53.19   C361.34,347.12,282.19,278.62,266.36,196.42z"
   id="path594" />
	<path
   class="st1"
   d="M535.24,276.42l-68.8-155.97c0.68-0.86,1.39-1.73,2.15-2.62c0.53-0.63,1.09-1.27,1.67-1.91   c0.05-0.05,0.1-0.11,0.15-0.18c0.68-0.76,1.38-1.52,2.1-2.28c0.42-0.46,0.85-0.9,1.28-1.34c0.73-0.76,1.47-1.51,2.23-2.27   c4.05-4.04,8.56-8.16,13.25-12.17c0.33-0.3,0.68-0.6,1.03-0.89c6.71-5.72,13.73-11.27,20.19-16.18c0.46-0.34,0.91-0.68,1.35-1.03   c5.81-4.38,11.12-8.22,15.27-11.17c0.33-0.23,0.65-0.46,0.95-0.67c0.58-0.41,1.14-0.8,1.66-1.16c0.2-0.14,0.38-0.27,0.57-0.41   c0.1-0.06,0.22-0.14,0.32-0.22c0.44-0.3,0.86-0.6,1.25-0.86c2.41-1.67,3.91-2.68,4.18-2.86c0.01-0.01,0.01-0.01,0.03-0.03   c0.01,0.01,0.01,0.01,0.03,0.03c0.27,0.18,1.77,1.19,4.18,2.86c0.39,0.27,0.81,0.56,1.25,0.86c0.1,0.08,0.2,0.15,0.3,0.22   c0.19,0.14,0.38,0.27,0.58,0.41c0.52,0.37,1.08,0.76,1.66,1.16c0.3,0.22,0.62,0.44,0.95,0.67c4.15,2.95,9.46,6.79,15.27,11.17   c0.44,0.34,0.9,0.68,1.35,1.03c6.46,4.91,13.47,10.46,20.19,16.18c0.34,0.29,0.7,0.58,1.03,0.89c4.69,4.01,9.19,8.13,13.25,12.17   c0.76,0.76,1.49,1.51,2.23,2.27c0.43,0.44,0.86,0.89,1.28,1.34c0.72,0.76,1.43,1.53,2.1,2.28c0.05,0.06,0.1,0.13,0.15,0.18   c0.58,0.65,1.14,1.28,1.67,1.91c0.76,0.89,1.47,1.76,2.15,2.62l-68.8,155.97"
   id="path596" />
	<path
   class="st1"
   d="M546.17,293.93l87.38-151.96c94.82,0.84,172.22,54.45,172.22,54.45c-15.83,82.2-94.97,150.69-94.97,150.69   L546.17,293.93z"
   id="path598" />
	
	
	<path
   class="st3"
   d="m 737.82,356.01 c 0,0 257.93236,85.45059 272.5424,102.83059 10,11.89 8.6622,123.00462 8.6622,123.00462"
   id="path604"
   sodipodi:nodetypes="ccc" />
	<line
   class="st1"
   x1="591"
   y1="308.5"
   x2="710.75"
   y2="347.25"
   id="line606" />
	<path
   class="st3"
   d="m 708.26,383.17 -10.04616,-6.30764 c 0,0 269,87 279,102 8.94,13.42 4.49189,103.66079 4.49189,103.66079"
   id="path608"
   sodipodi:nodetypes="cccc" />
	
	<path
   class="st4"
   d="m 334.18,356.01 c 0,0 -264.57,87.11 -279.18,104.49 -10,11.89 -9.463804,121.35308 -9.463804,121.35308"
   id="path612"
   sodipodi:nodetypes="ccc" />
	<line
   class="st4"
   x1="481"
   y1="308.5"
   x2="361.65"
   y2="347.12"
   id="line614" />
	<path
   class="st4"
   d="m 82.540197,582.66535 c 0,0 -7.480197,-83.74535 1.459803,-97.16535 10,-15 279,-102 279,-102"
   id="path616"
   sodipodi:nodetypes="ccc" />
	<path
   class="st5"
   d="M402.38,123.26C99.12,90.01-129-53.72-129-226c0-196.89,297.95-356.5,665.5-356.5S1202-422.89,1202-226   c0,172.37-228.36,316.17-531.86,349.31"
   id="path618" />
	<path
   class="st4"
   d="M363.83,383.14c22.54,16.24,105.76,69.34,171.27,69.71h1.93c65.45-0.37,148.6-53.38,171.22-69.68    M737.82,356.01c24.56-27.6,69.84-87.43,78.12-164.51c0,0-85.21-71.16-185.36-72.04l-0.01,0.02C607.37,93.84,537.3,47,537.3,47   c-0.38,0.06-0.81,0.16-1.24,0.28c-0.43-0.12-0.86-0.22-1.24-0.28c0,0-70.06,46.84-93.26,72.48l-0.01-0.02   c-100.16,0.88-185.37,72.04-185.37,72.04c8.27,77.03,53.5,136.82,78.07,164.45 M468.59,117.82c0.54-0.63,1.09-1.26,1.68-1.91   c0.05-0.05,0.1-0.11,0.15-0.17c0.68-0.76,1.38-1.52,2.1-2.28c0.42-0.46,0.85-0.9,1.28-1.35c0.73-0.76,1.47-1.5,2.23-2.26   c4.05-4.04,8.56-8.16,13.24-12.17c0.33-0.31,0.69-0.6,1.03-0.89c6.71-5.72,13.73-11.27,20.18-16.18c0.46-0.34,0.92-0.69,1.36-1.03   c5.81-4.38,11.12-8.22,15.27-11.17c0.33-0.22,0.65-0.45,0.95-0.67c0.58-0.4,1.14-0.8,1.66-1.16c0.2-0.14,0.38-0.27,0.57-0.41   c0.1-0.06,0.21-0.14,0.32-0.21c0.44-0.31,0.86-0.6,1.25-0.86c2.41-1.68,3.91-2.69,4.18-2.87V62.2c0,0,0.01,0,0.02,0.01   c0.02-0.01,0.03-0.01,0.03-0.01v0.03c0.26,0.18,1.77,1.19,4.18,2.87c0.39,0.26,0.81,0.55,1.25,0.86c0.1,0.07,0.2,0.15,0.31,0.21   c0.18,0.14,0.37,0.27,0.58,0.41c0.52,0.36,1.07,0.76,1.66,1.16c0.3,0.22,0.62,0.45,0.95,0.67c4.15,2.95,9.46,6.79,15.27,11.17   c0.44,0.34,0.9,0.69,1.35,1.03c6.46,4.91,13.48,10.46,20.19,16.18c0.34,0.29,0.69,0.58,1.02,0.89c4.69,4.01,9.2,8.13,13.25,12.17   c0.76,0.76,1.49,1.5,2.23,2.26c0.43,0.45,0.86,0.89,1.28,1.35c0.72,0.76,1.43,1.53,2.1,2.28c0.05,0.06,0.1,0.12,0.15,0.17   c0.58,0.65,1.14,1.28,1.67,1.91c0.76,0.89,1.47,1.76,2.15,2.63l-68.79,155.97l-0.8,2.31l-0.85-2.31l-68.8-155.97   C467.13,119.58,467.83,118.71,468.59,117.82z M266.36,196.42c0,0,77.4-53.61,172.22-54.45l87.38,151.96l-164.62,53.19   C361.34,347.12,282.19,278.62,266.36,196.42z M386.66,373.71l148.16-65.85h2.48L613,341.5l72.46,32.21 M685.46,373.71   c0,0-84.64,66.99-149.37,70.16h-0.05c-64.74-3.17-149.38-70.16-149.38-70.16 M710.79,347.12l-164.62-53.19l87.37-151.96   c94.83,0.84,172.22,54.45,172.22,54.45C789.93,278.62,710.79,347.12,710.79,347.12z"
   id="path620" />
</g>
<g
   id="Layer_3">
	<path
   class="st5"
   d="M536.5,32.5c-82.57,0-162.44-8.61-237.39-25.59C228.45-9.1,165.56-31.72,112.2-60.3   C63.71-86.28,24.99-116.59,0.21-147.96C-20.5-174.2-31-200.45-31-226s10.5-51.8,31.21-78.04c24.77-31.37,63.5-61.69,111.98-87.66   c53.36-28.59,116.25-51.2,186.92-67.21c74.95-16.98,154.82-25.59,237.39-25.59s162.44,8.61,237.39,25.59   c70.67,16.01,133.55,38.62,186.92,67.21c48.49,25.97,87.21,56.29,111.98,87.66C1093.5-277.8,1104-251.55,1104-226   s-10.5,51.8-31.21,78.04c-24.77,31.37-63.5,61.69-111.98,87.66C907.44-31.72,844.55-9.1,773.89,6.91   C698.94,23.89,619.07,32.5,536.5,32.5z"
   id="path623" />
	<g
   id="g633">
		<rect
   x="876.49"
   y="0.1"
   transform="matrix(0.9354 -0.3535 0.3535 0.9354 56.6845 317.5203)"
   class="st6"
   width="42"
   height="7"
   id="rect625" />
		<rect
   x="882.5"
   y="16"
   transform="matrix(0.9354 -0.3535 0.3535 0.9354 51.4507 320.6719)"
   class="st6"
   width="42"
   height="7"
   id="rect627" />
		
			<rect
   x="888.51"
   y="31.9"
   transform="matrix(0.9354 -0.3535 0.3535 0.9354 46.2169 323.8235)"
   class="st6"
   width="42"
   height="7"
   id="rect629" />
		
			<rect
   x="894.52"
   y="47.8"
   transform="matrix(0.9354 -0.3535 0.3535 0.9354 40.9832 326.9751)"
   class="st6"
   width="42"
   height="7"
   id="rect631" />
	</g>
	<g
   id="g643">
		
			<rect
   x="150.51"
   y="0.1"
   transform="matrix(-0.9354 -0.3535 0.3535 -0.9354 330.6726 67.5969)"
   class="st6"
   width="42"
   height="7"
   id="rect635" />
		<rect
   x="144.5"
   y="16"
   transform="matrix(-0.9354 -0.3535 0.3535 -0.9354 313.4189 96.2497)"
   class="st6"
   width="42"
   height="7"
   id="rect637" />
		
			<rect
   x="138.49"
   y="31.9"
   transform="matrix(-0.9354 -0.3535 0.3535 -0.9354 296.1651 124.9025)"
   class="st6"
   width="42"
   height="7"
   id="rect639" />
		
			<rect
   x="132.48"
   y="47.8"
   transform="matrix(-0.9354 -0.3535 0.3535 -0.9354 278.9114 153.5553)"
   class="st6"
   width="42"
   height="7"
   id="rect641" />
	</g>
</g>
</svg>
