<?xml version="1.0" encoding="UTF-8" standalone="no"?>
<svg
   xmlns:dc="http://purl.org/dc/elements/1.1/"
   xmlns:cc="http://creativecommons.org/ns#"
   xmlns:rdf="http://www.w3.org/1999/02/22-rdf-syntax-ns#"
   xmlns:svg="http://www.w3.org/2000/svg"
   xmlns="http://www.w3.org/2000/svg"
   xmlns:sodipodi="http://sodipodi.sourceforge.net/DTD/sodipodi-0.dtd"
   xmlns:inkscape="http://www.inkscape.org/namespaces/inkscape"
   version="1.1"
   id="Layer_1"
   x="0px"
   y="0px"
   viewBox="0 0 612 792"
   style="enable-background:new 0 0 612 792;"
   xml:space="preserve"
   sodipodi:docname="home.svg"
   inkscape:version="1.0.1 (c497b03c, 2020-09-10)"><metadata
   id="metadata501"><rdf:RDF><cc:Work
       rdf:about=""><dc:format>image/svg+xml</dc:format><dc:type
         rdf:resource="http://purl.org/dc/dcmitype/StillImage" /></cc:Work></rdf:RDF></metadata><defs
   id="defs499" /><sodipodi:namedview
   pagecolor="#ffffff"
   bordercolor="#666666"
   borderopacity="1"
   objecttolerance="10"
   gridtolerance="10"
   guidetolerance="10"
   inkscape:pageopacity="0"
   inkscape:pageshadow="2"
   inkscape:window-width="1450"
   inkscape:window-height="921"
   id="namedview497"
   showgrid="false"
   inkscape:zoom="1.0694444"
   inkscape:cx="306"
   inkscape:cy="396"
   inkscape:window-x="0"
   inkscape:window-y="25"
   inkscape:window-maximized="0"
   inkscape:current-layer="Layer_1" />
<style
   type="text/css"
   id="style10">
	.st0{fill-rule:evenodd;clip-rule:evenodd;fill:#242424;}
	.st1{fill-rule:evenodd;clip-rule:evenodd;fill:#8B8B8B;}
	.st2{opacity:1.923080e-03;fill-rule:evenodd;clip-rule:evenodd;fill:#F6F6F6;enable-background:new    ;}
	.st3{fill-rule:evenodd;clip-rule:evenodd;fill:#7B7B7B;}
	.st4{fill-rule:evenodd;clip-rule:evenodd;fill:#5A5A5A;}
	.st5{fill-rule:evenodd;clip-rule:evenodd;fill:#888888;}
	.st6{fill-rule:evenodd;clip-rule:evenodd;fill:#838383;}
	.st7{fill-rule:evenodd;clip-rule:evenodd;fill:#6B6B6B;}
	.st8{fill-rule:evenodd;clip-rule:evenodd;fill:#727272;}
	.st9{fill-rule:evenodd;clip-rule:evenodd;fill:#404040;}
	.st10{fill-rule:evenodd;clip-rule:evenodd;fill:#FBFBFB;}
	.st11{fill-rule:evenodd;clip-rule:evenodd;fill:#575757;}
	.st12{fill-rule:evenodd;clip-rule:evenodd;fill:#6D6D6D;}
	.st13{fill-rule:evenodd;clip-rule:evenodd;fill:#D2D2D2;}
	.st14{fill-rule:evenodd;clip-rule:evenodd;fill:#393939;}
	.st15{fill-rule:evenodd;clip-rule:evenodd;fill:#7F7F7F;}
	.st16{fill-rule:evenodd;clip-rule:evenodd;fill:#C6C6C6;}
	.st17{fill-rule:evenodd;clip-rule:evenodd;fill:#F1F1F1;}
	.st18{fill-rule:evenodd;clip-rule:evenodd;fill:#C4C4C4;}
	.st19{fill-rule:evenodd;clip-rule:evenodd;fill:#CACACA;}
	.st20{fill-rule:evenodd;clip-rule:evenodd;fill:#505050;}
	.st21{fill-rule:evenodd;clip-rule:evenodd;fill:#8E8E8E;}
	.st22{fill-rule:evenodd;clip-rule:evenodd;fill:#848484;}
	.st23{fill-rule:evenodd;clip-rule:evenodd;fill:#7D7D7D;}
	.st24{fill-rule:evenodd;clip-rule:evenodd;fill:#A4A4A4;}
	.st25{fill-rule:evenodd;clip-rule:evenodd;fill:#2C2C2C;}
	.st26{fill-rule:evenodd;clip-rule:evenodd;fill:#5E5E5E;}
	.st27{fill-rule:evenodd;clip-rule:evenodd;fill:#666666;}
	.st28{fill-rule:evenodd;clip-rule:evenodd;fill:#A8A8A8;}
	.st29{fill-rule:evenodd;clip-rule:evenodd;fill:#434343;}
	.st30{fill-rule:evenodd;clip-rule:evenodd;fill:#BABABA;}
	.st31{fill-rule:evenodd;clip-rule:evenodd;fill:#767676;}
	.st32{fill-rule:evenodd;clip-rule:evenodd;fill:#AFAFAF;}
	.st33{fill-rule:evenodd;clip-rule:evenodd;fill:#595959;}
	.st34{fill-rule:evenodd;clip-rule:evenodd;fill:#4C4C4C;}
	.st35{fill-rule:evenodd;clip-rule:evenodd;fill:#A6A6A6;}
	.st36{fill-rule:evenodd;clip-rule:evenodd;fill:#363636;}
	.st37{fill-rule:evenodd;clip-rule:evenodd;fill:#7C7C7C;}
	.st38{fill-rule:evenodd;clip-rule:evenodd;fill:#757575;}
	.st39{fill-rule:evenodd;clip-rule:evenodd;fill:#646464;}
	.st40{fill-rule:evenodd;clip-rule:evenodd;fill:#9E9E9E;}
	.st41{fill-rule:evenodd;clip-rule:evenodd;fill:#858585;}
	.st42{fill-rule:evenodd;clip-rule:evenodd;fill:#676767;}
	.st43{fill-rule:evenodd;clip-rule:evenodd;fill:#5C5C5C;}
	.st44{fill-rule:evenodd;clip-rule:evenodd;fill:#4D4D4D;}
	.st45{fill-rule:evenodd;clip-rule:evenodd;fill:#909090;}
	.st46{fill-rule:evenodd;clip-rule:evenodd;fill:#353535;}
	.st47{fill-rule:evenodd;clip-rule:evenodd;fill:#464646;}
	.st48{fill-rule:evenodd;clip-rule:evenodd;fill:#828282;}
	.st49{fill-rule:evenodd;clip-rule:evenodd;fill:#FAFAFA;}
	.st50{fill-rule:evenodd;clip-rule:evenodd;fill:#787878;}
	.st51{fill-rule:evenodd;clip-rule:evenodd;fill:#3F3F3F;}
	.st52{fill-rule:evenodd;clip-rule:evenodd;fill:#565656;}
	.st53{fill-rule:evenodd;clip-rule:evenodd;fill:#949494;}
	.st54{fill-rule:evenodd;clip-rule:evenodd;fill:#6A6A6A;}
	.st55{fill-rule:evenodd;clip-rule:evenodd;fill:#808080;}
	.st56{fill-rule:evenodd;clip-rule:evenodd;fill:#9A9A9A;}
	.st57{fill-rule:evenodd;clip-rule:evenodd;fill:#656565;}
	.st58{fill-rule:evenodd;clip-rule:evenodd;fill:#878787;}
	.st59{fill-rule:evenodd;clip-rule:evenodd;fill:#5F5F5F;}
	.st60{fill-rule:evenodd;clip-rule:evenodd;fill:#696969;}
	.st61{fill-rule:evenodd;clip-rule:evenodd;fill:#898989;}
	.st62{fill-rule:evenodd;clip-rule:evenodd;fill:#929292;}
	.st63{fill-rule:evenodd;clip-rule:evenodd;fill:#EEEEEE;}
	.st64{fill-rule:evenodd;clip-rule:evenodd;fill:#636363;}
	.st65{fill-rule:evenodd;clip-rule:evenodd;fill:#747474;}
	.st66{fill-rule:evenodd;clip-rule:evenodd;fill:#AEAEAE;}
	.st67{fill-rule:evenodd;clip-rule:evenodd;fill:#868686;}
	.st68{fill-rule:evenodd;clip-rule:evenodd;fill:#737373;}
	.st69{fill-rule:evenodd;clip-rule:evenodd;fill:#4E4E4E;}
	.st70{fill-rule:evenodd;clip-rule:evenodd;fill:#ECECEC;}
	.st71{fill-rule:evenodd;clip-rule:evenodd;fill:#D1D1D1;}
	.st72{fill-rule:evenodd;clip-rule:evenodd;fill:#2F2F2F;}
	.st73{fill-rule:evenodd;clip-rule:evenodd;fill:#B9B9B9;}
	.st74{fill-rule:evenodd;clip-rule:evenodd;fill:#535353;}
	.st75{fill-rule:evenodd;clip-rule:evenodd;fill:#5D5D5D;}
	.st76{fill-rule:evenodd;clip-rule:evenodd;fill:#ACACAC;}
	.st77{fill-rule:evenodd;clip-rule:evenodd;fill:#E9E9E9;}
	.st78{fill-rule:evenodd;clip-rule:evenodd;fill:#555555;}
	.st79{fill-rule:evenodd;clip-rule:evenodd;fill:#9C9C9C;}
	.st80{fill-rule:evenodd;clip-rule:evenodd;fill:#313131;}
	.st81{fill-rule:evenodd;clip-rule:evenodd;fill:#3D3D3D;}
	.st82{fill-rule:evenodd;clip-rule:evenodd;fill:#686868;}
	.st83{fill-rule:evenodd;clip-rule:evenodd;fill:#ADADAD;}
	.st84{fill-rule:evenodd;clip-rule:evenodd;fill:#626262;}
	.st85{fill-rule:evenodd;clip-rule:evenodd;fill:#424242;}
	.st86{fill-rule:evenodd;clip-rule:evenodd;fill:#989898;}
	.st87{fill-rule:evenodd;clip-rule:evenodd;fill:#B3B3B3;}
	.st88{fill-rule:evenodd;clip-rule:evenodd;fill:#484848;}
	.st89{fill-rule:evenodd;clip-rule:evenodd;fill:#414141;}
	.st90{fill-rule:evenodd;clip-rule:evenodd;fill:#343434;}
	.st91{fill-rule:evenodd;clip-rule:evenodd;fill:#616161;}
	.st92{fill-rule:evenodd;clip-rule:evenodd;fill:#8C8C8C;}
	.st93{fill-rule:evenodd;clip-rule:evenodd;fill:#F3F3F3;}
	.st94{fill-rule:evenodd;clip-rule:evenodd;fill:#FCFCFC;fill-opacity:0;}
	.st95{fill-rule:evenodd;clip-rule:evenodd;fill:#F7F7F7;fill-opacity:0;}
	.st96{fill-rule:evenodd;clip-rule:evenodd;fill:#585858;}
	.st97{fill-rule:evenodd;clip-rule:evenodd;fill:#FDFDFD;fill-opacity:0;}
	.st98{fill-rule:evenodd;clip-rule:evenodd;fill:#8A8A8A;}
	.st99{fill-rule:evenodd;clip-rule:evenodd;fill:#797979;}
	.st100{fill-rule:evenodd;clip-rule:evenodd;fill:#2A2A2A;}
	.st101{fill-rule:evenodd;clip-rule:evenodd;fill:#969696;}
	.st102{fill-rule:evenodd;clip-rule:evenodd;fill:#6C6C6C;}
	.st103{fill-rule:evenodd;clip-rule:evenodd;fill:#9B9B9B;}
	.st104{fill-rule:evenodd;clip-rule:evenodd;fill:#A2A2A2;}
	.st105{fill-rule:evenodd;clip-rule:evenodd;fill:#8D8D8D;}
	.st106{fill-rule:evenodd;clip-rule:evenodd;fill:#F5F5F5;fill-opacity:0;}
	.st107{fill-rule:evenodd;clip-rule:evenodd;fill:#9D9D9D;}
	.st108{fill-rule:evenodd;clip-rule:evenodd;fill:#FBFBFB;fill-opacity:0;}
	.st109{fill-rule:evenodd;clip-rule:evenodd;fill:#F4F4F4;fill-opacity:0;}
	.st110{fill-rule:evenodd;clip-rule:evenodd;fill:#BBBBBB;}
	.st111{fill-rule:evenodd;clip-rule:evenodd;fill:#494949;}
	.st112{fill-rule:evenodd;clip-rule:evenodd;fill:#D4D4D4;}
	.st113{fill-rule:evenodd;clip-rule:evenodd;fill:#4A4A4A;}
	.st114{fill-rule:evenodd;clip-rule:evenodd;fill:#D6D6D6;}
	.st115{fill-rule:evenodd;clip-rule:evenodd;fill:#BEBEBE;}
	.st116{fill-rule:evenodd;clip-rule:evenodd;fill:#DDDDDD;}
	.st117{fill-rule:evenodd;clip-rule:evenodd;fill:#AAAAAA;}
	.st118{fill-rule:evenodd;clip-rule:evenodd;fill:#606060;}
	.st119{fill-rule:evenodd;clip-rule:evenodd;fill:#E6E6E6;}
	.st120{fill-rule:evenodd;clip-rule:evenodd;fill:#E0E0E0;}
	.st121{fill-rule:evenodd;clip-rule:evenodd;fill:#545454;}
	.st122{fill-rule:evenodd;clip-rule:evenodd;fill:#D3D3D3;}
	.st123{opacity:2.912960e-02;fill-rule:evenodd;clip-rule:evenodd;fill:#F7F7F7;enable-background:new    ;}
	.st124{fill-rule:evenodd;clip-rule:evenodd;fill:#8F8F8F;}
	.st125{fill-rule:evenodd;clip-rule:evenodd;fill:#D7D7D7;}
	.st126{fill-rule:evenodd;clip-rule:evenodd;fill:#6F6F6F;}
	.st127{fill-rule:evenodd;clip-rule:evenodd;fill:#454545;}
	.st128{fill-rule:evenodd;clip-rule:evenodd;fill:#D9D9D9;}
	.st129{fill-rule:evenodd;clip-rule:evenodd;fill:#B3B3B3;fill-opacity:0;}
	.st130{fill-rule:evenodd;clip-rule:evenodd;fill:#939393;}
	.st131{opacity:6.920980e-02;fill-rule:evenodd;clip-rule:evenodd;fill:#F8F8F8;enable-background:new    ;}
	.st132{fill-rule:evenodd;clip-rule:evenodd;fill:#3A3A3A;}
	.st133{fill-rule:evenodd;clip-rule:evenodd;fill:#B5B5B5;}
	.st134{fill-rule:evenodd;clip-rule:evenodd;fill:#D8D8D8;}
	.st135{fill-rule:evenodd;clip-rule:evenodd;fill:#5B5B5B;}
</style>
<path
   class="st0"
   d="M350.8,75.7c0.7-1.1,1.6-2,2.7-2.7c1.4,1.1,2.6,1.1,3.6,0c10.5-5.6,20.4-12.1,29.8-19.6c4.1-1.9,8-4,11.8-6.4  c11-8.8,21.6-18.1,31.6-27.8c3.3,2.9,5.6,6.6,6.8,11c3.3,13.5,4,27.2,2.3,41.1c-6,2.5-11.4,6-16.3,10.5c1.6,3.1,3.6,6,5.9,8.7  c0.6,1.2,0.6,2.4,0,3.7c-5.1,8.7-10.8,17-17.2,24.6c-13.1,13.1-27.4,24.5-42.9,34.2c-2.7,2.5-5.2,5.2-7.2,8.2  c3.1,4.7,6.6,9.1,10.4,13.2c29.7,33.3,59.7,66.3,89.9,99c0.9,0.4,1.8,0.6,2.7,0.5c1.2-0.2,2.1,0.1,2.7,0.9c-1.5,0-3,0-4.5,0  c-3.2,1.7-6.2,3.7-9,5.9c-0.8,0.9-1.1,2-0.9,3.2c-0.7-1-1.6-1.6-2.7-1.8c0.1-0.9-0.2-1.7-0.9-2.3c1.4-0.2,2.6-0.6,3.6-1.4  c0.7-1.2,1.8-2.1,3.2-2.7c0.6-1.2,0.6-2.4,0-3.7c-32.9-36.1-65.5-72.3-98.1-108.6c-0.6-0.8-0.9-1.7-0.9-2.7  c3.9-5.4,8.4-10.3,13.6-14.6c0.7,2.3,1.6,2.3,2.7,0c12.2-8.9,23.8-18.6,34.8-29.2c5.9-7,11.3-14.3,16.3-21.9c0.6-1.5,0.6-3,0-4.6  c-2.1-3.5-4.3-6.8-6.8-10c5.2-4.5,10.8-8.5,16.7-11.9c2.6-11.2,2.7-22.5,0.5-33.8c-0.4-1.1-1-2-1.8-2.7c-0.5-3-2-5-4.5-5.9  c-25.3,24.3-53.9,43-85.9,56.1c-3.2,0.6-6.2,1.5-9,2.7c-1.2,0-2.4,0-3.6,0c-1.2,0.3-2.1,0.9-2.7,1.8c-3.9-3.9-8.4-6.6-13.6-8.2  c-10,2-17.8,7.2-23.5,15.5c-0.6,0-0.9-0.3-0.9-0.9c2-2.5,4.3-5,6.8-7.3c0.6-0.8,0.5-1.4-0.5-1.8c-38.1-8.6-70-27.4-95.8-56.6  c-1.8,1.2-3.6,2.4-5.4,3.7c-1,1.2-1,2.4,0,3.7c-1.2-0.2-2.1,0.1-2.7,0.9c-3.2,15.2-2.1,30.1,3.2,44.7c7.5,17.6,18.2,33,32.1,46.1  c8.2,5.9,16.3,11.9,24.4,17.8c1.8,1.8,3.3,1.8,4.5,0c4.5,6.4,9.9,11.9,16.3,16.4c-1,0.7-1.6,1.6-1.8,2.7  c-30.5,30.8-60,62.4-88.6,94.9c-0.6,0.6-1.2,1.2-1.8,1.8c-1.3,0.2-2.2,1-2.7,2.3c-2.1,0.3-4.2,0.6-6.3,0.9  c-7.1,11.1-16.7,14.1-28.9,9.1c-4.4-4.2-8.4-8.4-11.8-12.8c-1.3,0.9-1.9,2.1-1.8,3.7c1.2,3.5,2.6,7,4.1,10.5  c2.4,11.4-1.1,20.4-10.4,26.9c-20.5,4.5-41.2,8.6-61.9,12.3c-9.1-0.7-17.7-3.2-25.8-7.3c-1-0.9-2.2-1.2-3.6-0.9  c-0.3,1.7,0,3.3,0.9,4.6c2.8,8.3,4.8,16.8,5.9,25.6c0.4,0.4,0.8,0.7,1.4,0.9c7.1-8.7,15.8-15.3,26.2-19.6  c18.8-3.3,37.6-6.5,56.5-9.6c17.7,6.3,25,18.7,21.7,37.4c-1.6,15.2-3.4,30.5-5.4,45.6c-3.2,10.6-8.7,19.8-16.7,27.4  c9.2,0.4,18.4,1.7,27.6,3.7c0.5-0.3,0.9-0.6,1.4-0.9c-7.7-13.3-10.3-27.6-7.7-42.9c2.2-9.3,3.7-18.7,4.5-28.3  c2.5-6.4,3.7-13.1,3.6-20.1c8.2-9.8,18.6-14.6,31.2-14.1c2,1.1,3.9,2.1,5.9,3.2c1.2-0.1,1.9-0.7,2.3-1.8c-4-4.1-8.3-7.8-13.1-11  c-4-6.3-5.2-13-3.6-20.1c1.3-2.4,2.4-4.8,3.2-7.3c0.9,1.6,1.2,3.4,0.9,5.5c-1.2,5.4-1.1,10.9,0.5,16.4c1,1.9,2.4,3.6,4.1,5  c3.9,2.3,7.8,4.2,11.8,5.9c0.1,11.3-4.7,13.9-14.5,7.8c-10-1-17.7,2.8-23.1,11.4c-3.7,16.3-7,32.8-9.9,49.3  c-0.6,7.3-0.6,14.6,0,21.9c2.6,7.7,5.7,15.2,9.5,22.4c-0.7,1.8-1.9,3.2-3.6,4.1c-2.1-2.6-4.9-4.3-8.1-5c-4.7-0.6-9.4-1.4-14-2.3  c-3.8,1.1-7.5,1.1-11.3,0c-0.8-1-1.4-2-1.8-3.2c11.5-9.1,18-21.1,19.4-36.1c2.5-17,3.7-34,3.6-51.1c-2.7-10.7-9.4-16.8-20.3-18.3  c-17,2.2-33.8,4.8-50.6,7.8c-9.5,2.6-17.5,7.6-24,15.1c-1.3,2-2,4.1-2.3,6.4c-2.4,0.2-4.6-0.1-6.8-0.9c-1.9-11.4-4.7-22.5-8.6-33.3  c0.7-2.4,2.2-4.1,4.5-5c9.5,4,19.3,6.7,29.4,8.2c17.5-2.4,34.8-5.6,52-9.6c11.9-3.6,16.9-11.6,14.9-24.2c-0.5-3.6-1.9-6.8-4.1-9.6  c0.8-3.3,2-6.3,3.6-9.1c1.8-0.6,3.6-0.6,5.4,0c5.2,10.1,13.3,14.7,24.4,13.7c5.6-2.6,10.1-6.6,13.6-11.9c1.8,0.3,3.6,0.3,5.4,0  c29.5-32,59.5-63.7,89.9-95.4c-5.4-8.9-13.1-15.5-23.1-19.6c-9.5-7.6-18.8-15.3-28-23.3C190.9,95.4,182,65.5,188.5,31  c3.7-3.4,7.6-6.5,11.8-9.1c4.9,5.6,9.9,11.2,14.9,16.9c17,13.5,35.4,24.8,55.1,33.8c1.2,0.4,2.4,0.6,3.6,0.5c-0.2-3,0.4-3.3,1.8-0.9  c0.5-0.2,1-0.5,1.4-0.9c1.2,1.4,1.7,2.8,1.4,4.1c5.4,2.8,11.1,4.4,17.2,5c5.1-2.5,10.4-4.6,15.8-6.4c4.1,1.8,8.2,3.8,12.2,5.9  c4.8,1.3,9.6,1.6,14.5,0.9C342.1,78.3,346.3,76.6,350.8,75.7z"
   id="path12" />
<path
   class="st1"
   d="M31.7,309.4c-0.9-1.3-1.2-2.8-0.9-4.6c1.4-0.2,2.7,0.1,3.6,0.9c-0.9,0-1.8,0-2.7,0  C31.7,307,31.7,308.2,31.7,309.4z"
   id="path14" />
<path
   class="st2"
   d="M31.7,309.4c0-1.2,0-2.4,0-3.7c0.9,0,1.8,0,2.7,0c8.1,4.1,16.7,6.6,25.8,7.3c20.8-3.7,41.4-7.8,61.9-12.3  c9.3-6.6,12.8-15.6,10.4-26.9c-1.5-3.5-2.8-7-4.1-10.5c-0.1-1.6,0.5-2.8,1.8-3.7c3.4,4.4,7.3,8.6,11.8,12.8c12.2,5,21.9,2,28.9-9.1  c2.1-0.3,4.2-0.6,6.3-0.9c0.5-1.3,1.4-2.1,2.7-2.3c1.7,1.4,2.6,3.2,2.7,5.5c-1.5,1.6-2.3,3.8-2.3,6.4c-1.6,1.8-3,3.6-4.1,5.5  c-0.8,2.5-1.9,4.9-3.2,7.3c-1.6,7.1-0.4,13.8,3.6,20.1c4.8,3.2,9.2,6.8,13.1,11c-0.3,1.1-1.1,1.7-2.3,1.8c-2-1.1-3.9-2.1-5.9-3.2  c-12.6-0.4-23,4.3-31.2,14.1c0.1,7-1.1,13.6-3.6,20.1c-0.8,9.6-2.3,19-4.5,28.3c-2.6,15.3,0,29.6,7.7,42.9c-0.5,0.3-0.9,0.6-1.4,0.9  c-9.2-2-18.4-3.2-27.6-3.7c8-7.6,13.6-16.7,16.7-27.4c2-15.2,3.9-30.4,5.4-45.6c3.3-18.7-4-31.2-21.7-37.4  c-18.9,3-37.7,6.2-56.5,9.6c-10.4,4.3-19.2,10.9-26.2,19.6c-0.5-0.2-1-0.5-1.4-0.9C36.5,326.2,34.5,317.7,31.7,309.4z"
   id="path16" />
<path
   class="st3"
   d="M129.3,303c0.7-1.4,1-2.6,0.9-3.7c0.9,0.4,1.6,1,2.3,1.8c1.9-1.8,4.2-2.2,6.8-1.4c0.8,0.9,1.1,2,0.9,3.2  C136.5,302.9,132.9,302.9,129.3,303z"
   id="path18" />
<path
   class="st4"
   d="M141.1,303c0.7-1.4,1-2.6,0.9-3.7c1,1,2,1,3.2,0c1.4,2.1,2.6,2.1,3.6,0c0.4,0.9,0.6,1.8,0.5,2.7  c-1.5,0.2-2.8-0.1-4.1-0.9C143.9,302.2,142.6,302.8,141.1,303z"
   id="path20" />
<path
   class="st5"
   d="M150.1,303c0-1.2,0-2.4,0-3.7c1.5,0.2,2.8-0.1,4.1-0.9c1.9,1.1,1.7,1.9-0.5,2.3c0.8,0.6,1.4,1.4,1.8,2.3  C153.8,303.9,152,303.9,150.1,303z"
   id="path22" />
<path
   class="st6"
   d="M158.3,302.1c-0.2-1.2,0.1-2.3,0.9-3.2c3.3-0.9,6.3-0.4,9,1.4C165.1,302.5,161.7,303.1,158.3,302.1z"
   id="path24" />
<path
   class="st7"
   d="M167.3,303.9c-0.1-2,0.5-2.3,1.8-0.9c0.7-1.1,1.2-2.3,1.4-3.7C172.6,302.8,171.5,304.4,167.3,303.9z"
   id="path26" />
<path
   class="st8"
   d="M396.2,331.4c0.5,31.4,0.6,62.9,0.3,94.6c-16.1,0-32.3-0.1-48.4-0.5c15.9-0.3,31.9-0.3,47.8-0.1  c0.3-14.3,0.1-28.5-0.5-42.7C395.4,365.6,395.6,348.5,396.2,331.4z"
   id="path28" />
<path
   class="st9"
   d="M394.8,385.2c0.2,0,0.4,0,0.6,0c0,13.2-0.1,26.4-0.1,39.6c-13.1,0-26.3-0.1-39.4-0.1c0-0.2,0-0.4,0-0.6  c12.9,0,25.8,0.1,38.7,0.1C394.7,411.2,394.7,398.2,394.8,385.2z"
   id="path30" />
<path
   class="st10"
   d="m 394.8,385.2 c 0,13 -0.1,26 -0.1,38.9 -12.9,0 -25.8,-0.1 -38.7,-0.1 -36.9,-0.8 -73.9,-1.1 -111,-1 0.1,-30.1 0.2,-60.2 0.3,-90.2 44.8,0.2 89.5,0.3 134.3,0.5 5.2,0 10.3,0 15.5,0.1 -0.2,17.2 -0.3,34.5 -0.3,51.8 z"
   id="path32"
   style="stroke-width:0.999999;opacity:0" />
<path
   class="st11"
   d="M396.2,331.4c-0.6,17.1-0.9,34.2-0.8,51.3c0,0.8,0,1.6,0,2.5c-0.2,0-0.4,0-0.6,0c0.1-17.3,0.1-34.6,0.2-51.9  c-5.2,0-10.3,0-15.5-0.1c5.3-0.5,10.6-0.8,16.1-0.9c-8.4-0.2-16.8-0.5-25.2-0.7c3-0.3,6-0.4,9-0.3  C385,331.4,390.6,331.4,396.2,331.4z"
   id="path34" />
<path
   class="st12"
   d="M374.2,341.9c2.9-0.6,5.9-0.8,9-0.6c0.6,0,1.3,0,1.9,0c0.1,0.8-0.1,1.5-0.7,2.2c1.5,2.6,1.2,2.7-1,0.3  c-0.3,0.6-0.4,1.2-0.3,1.9c-1.5,0-3,0-4.5,0c0-1.2,0-2.5,0-3.7c-0.9,0-1.7,0-2.6,0c0.1,1.3,0,2.5-0.3,3.7  C375.9,344,375.3,342.8,374.2,341.9z"
   id="path36" />
<path
   class="st13"
   d="M382,341.9c0.5,2.4-0.4,3.2-2.6,2.5c0.6-0.5,1.2-0.8,1.9-0.9C378.9,342.5,379.1,342,382,341.9z"
   id="path38" />
<path
   class="st14"
   d="M380,363.5c-1,1.2-1.5,2.7-1.6,4.3c0-1.6-0.6-2.9-1.6-4C377.8,363.5,378.9,363.4,380,363.5z"
   id="path40" />
<path
   class="st15"
   d="M370.3,364.1c0.6-0.1,1.2,0.2,1.6,0.6c0.7-1.1,1.7-1.4,2.9-0.9c0.8,0.7,0.8,1.4,0,2.2c0.3,0.6,0.7,1.1,1.3,1.5  c-1.2,0.3-2-0.2-2.3-1.6c-0.4,2-1,2.2-1.9,0.6c-3.3,2.1-4.6,1.3-3.9-2.5C368.9,363.3,369.6,363.3,370.3,364.1z"
   id="path42" />
<path
   class="st16"
   d="M383.3,341.3c-3.1-0.2-6.2,0-9,0.6c-0.6,1.1-0.8,2.3-0.7,3.7c-1.1,0.1-1.7-0.3-1.9-1.2c0.6,0.6,1,0.6,1.3,0  c-0.7-0.8-1.3-1.7-1.9-2.5c2-0.8,4.1-1.2,6.5-1.2C379.5,340.6,381.5,340.9,383.3,341.3z"
   id="path44" />
<path
   class="st4"
   d="M371.7,344.3c-0.2-0.5-0.5-0.9-1-1.2c-0.1,1-0.5,1.8-1,2.5c-0.2-1.6,0-3,0.7-4.3c0,0.4,0.2,0.6,0.6,0.6  c0.6,0.8,1.3,1.6,1.9,2.5C372.6,344.9,372.2,344.9,371.7,344.3z"
   id="path46" />
<path
   class="st17"
   d="M370.3,364.1c0.2,1.1,0,2.1-0.7,3.1C367.8,365.8,368.1,364.7,370.3,364.1z"
   id="path48" />
<path
   class="st18"
   d="M379.4,333.2c-44.8-0.2-89.5-0.3-134.3-0.5c13.9-0.5,27.9-0.7,42-0.8c-14.9-0.2-29.7-0.5-44.5-1.1  c45.6-0.7,91.3-0.5,136.9,0.5c-3-0.1-6,0-9,0.3c8.4,0.2,16.8,0.5,25.2,0.7C390.1,332.4,384.7,332.7,379.4,333.2z"
   id="path50" />
<path
   class="st19"
   d="M370.4,341.2c-0.6,1.3-0.8,2.7-0.7,4.3c-0.4,0-0.9,0-1.3,0c-0.6-0.4-1.2-0.8-1.9-1.2c0.6-0.4,1.3-0.8,1.9-1.2  c-0.6-0.1-1.2-0.3-1.9-0.6c0.6-0.5,1.2-0.8,1.9-0.9c-0.4-0.2-0.6-0.5-0.6-0.9C368.8,340.4,369.7,340.6,370.4,341.2z"
   id="path52" />
<path
   class="st20"
   d="M366.3,396.2c0-1,0-2.1,0-3.1c1.2-0.2,2.2,0,3.2,0.6c-0.6,0.1-1.2,0.3-1.9,0.6c1.5,1.1,1.3,2.2-0.7,3.1  C366.4,397.2,366.2,396.8,366.3,396.2z"
   id="path54" />
<path
   class="st3"
   d="M367.1,364.1c-0.8,1.2-1.6,2.5-2.6,3.7c-0.6-1.4-0.8-2.8-0.6-4.3C365,363.4,366.1,363.6,367.1,364.1z"
   id="path56" />
<path
   class="st21"
   d="M371.6,371.5c0.2,1.3,0,2.5-0.7,3.7c-0.9-2.5-1.7-2.5-2.6,0c-0.4-0.3-0.8-0.7-1-1.2c-0.9,1.3-1.9,1.5-3.2,0.6  c-0.8,0.5-1.6,1.1-2.3,1.8c-0.4-1-0.9-2.1-1.3-3.1c-0.6,0.5-0.8,1.1-0.7,1.9c-1.3-0.2-2.5,0-3.6,0.6c-0.9-1.9-2-2.1-3.2-0.6  c-0.2-1.6,0.3-3,1.3-4.3c1.4,3.9,2.3,3.9,2.9,0c0.4,0.6,0.9,1.2,1.3,1.9c3-0.4,5.9-0.4,8.7,0C368.7,372.3,370.1,371.9,371.6,371.5z"
   id="path58" />
<path
   class="st22"
   d="M368.4,345.5c-1.1,0-2.2,0-3.2,0c0.4-2.5-0.7-3.7-3.2-3.7c0,0.8,0,1.6,0,2.5c2.6-0.2,3,0.2,1,1.2  c-2.1-0.7-2.7-2.1-1.6-4c2.1-0.4,4.3-0.7,6.5-0.9c0.1,0.4,0.3,0.7,0.6,0.9c-0.7,0.2-1.4,0.5-1.9,0.9c0.7,0.3,1.4,0.5,1.9,0.6  c-0.6,0.4-1.3,0.8-1.9,1.2C367.2,344.7,367.8,345.1,368.4,345.5z"
   id="path60" />
<path
   class="st23"
   d="M369.5,417.2c-0.4,3.3-0.9,3.3-1.6,0c-0.2,0.8-0.4,1.6-0.7,2.5c-0.7-0.5-1.4-0.7-2.3-0.6  c-0.1-2-0.6-2.2-1.6-0.6c-0.3-0.6-0.4-1.2-0.3-1.9C365.1,416.9,367.3,417.1,369.5,417.2z"
   id="path62" />
<path
   class="st24"
   d="M366.3,393.1c0,1,0,2.1,0,3.1c-0.5-0.6-1.1-1.2-1.6-1.9c-0.3,1.2-0.4,2.5-0.3,3.7c-0.6,0-1.3,0-1.9,0  c0.3-1.6-0.1-2.8-1.3-3.7c0-0.4,0-0.8,0-1.2c0.4,0,0.9,0,1.3,0c0.8,5.7,1.2,5.7,1.3,0C364.6,393.1,365.5,393.1,366.3,393.1z"
   id="path64" />
<path
   class="st25"
   d="M363.7,393.1c0,5.7-0.5,5.7-1.3,0C362.9,393.1,363.3,393.1,363.7,393.1z"
   id="path66" />
<path
   class="st26"
   d="M361.1,393.1c0,0.4,0,0.8,0,1.2c0,1,0,2.1,0,3.1c-1.1-0.9-1.8-2.2-1.9-3.7C359.7,393.2,360.3,393,361.1,393.1z  "
   id="path68" />
<path
   class="st27"
   d="M363.2,367.2c-1.1,0.7-1.9,0.3-2.3-1.2c-0.2,0.7-0.5,1.3-1,1.9c-0.6-1.4-0.8-2.8-0.6-4.3c1.1,0,2.2,0,3.2,0  c0,0.9-0.2,1.7-0.7,2.5C362.1,366.6,362.5,367,363.2,367.2z"
   id="path70" />
<path
   class="st12"
   d="M358.7,363.4c0.2,1.5,0,2.9-0.7,4.3c-0.2-0.7-0.4-1.4-0.6-2.2C357.4,364.6,357.9,363.8,358.7,363.4z"
   id="path72" />
<path
   class="st28"
   d="M358.8,341.2c-0.9,1.3-1.3,2.7-1.3,4.3c-0.6,0-1.3,0-1.9,0c0.2-1.6-0.2-3.1-1.3-4.3  C355.8,340.4,357.3,340.4,358.8,341.2z"
   id="path74" />
<path
   class="st29"
   d="M358.6,393.7c-0.6,0.1-1.2,0.3-1.9,0.6c1.3,0.5,1.8,1.3,1.6,2.5c-1-0.6-2-1.2-2.9-1.9  c-0.1-0.6,0.2-1.1,0.7-1.5C357,392.9,357.9,393,358.6,393.7z"
   id="path76" />
<path
   class="st30"
   d="M361.1,397.4c-1.6,0-3.4,0.1-5.2,0.3c-0.6-0.8-0.8-1.8-0.6-2.8c0.9,0.7,1.9,1.3,2.9,1.9c0.2-1.2-0.3-2-1.6-2.5  c0.7-0.3,1.4-0.5,1.9-0.6c0.2,0,0.4,0,0.6,0C359.4,395.3,360,396.5,361.1,397.4z"
   id="path78" />
<path
   class="st31"
   d="M356.7,367.1c0,0.3-0.3,0.5-0.6,0.6c-1-1.6-2-1.6-2.9,0c-0.5-1.8,0-3.2,1.6-4.3  C355.5,364.7,356.1,366,356.7,367.1z"
   id="path80" />
<path
   class="st32"
   d="M351.4,419c0.8-2.3,1.6-2.3,2.3,0c0.5-1,0.4-1.8-0.3-2.5c0.3-0.7,0.7-1.3,1.3-1.8c0.7,0.9,1.7,1.6,2.9,1.9  c1.6-0.7,3.2-0.7,4.8,0c0.2,2.3-0.9,3.3-3.2,3.1c0-2.3-0.4-2.4-1.3-0.3C355.5,419.9,353.4,419.7,351.4,419z"
   id="path82" />
<path
   class="st33"
   d="M353.6,341.2c0.2,1.5,0,2.9-0.7,4.3c-0.9-2.4-1.6-2.4-2.3,0c-0.4-1.4-0.4-2.9,0-4.3c0.2,0.7,0.5,1.3,1,1.9  C352.1,342.1,352.7,341.5,353.6,341.2z"
   id="path84" />
<path
   class="st34"
   d="M351.4,419c-0.1-2.4-0.4-2.4-1,0c-0.2-0.8-0.5-1.5-1-2.2c1.3-0.3,2.6-0.4,3.9-0.3c0.7,0.7,0.8,1.5,0.3,2.5  C353,416.7,352.2,416.7,351.4,419z"
   id="path86" />
<path
   class="st35"
   d="M350.3,352.9c0.5-1.3,0.9-2.8,1-4.3c2,1.6,2.1,3.4,0.3,5.3C350.8,354.2,350.3,353.8,350.3,352.9z"
   id="path88" />
<path
   class="st36"
   d="M352.7,396.8c-0.8,0.7-1.6,0.5-2.3-0.6c-0.2,0.5-0.5,0.9-1,1.2c-0.9-1.4-0.9-2.9,0-4.3  C350.1,394.7,351.2,395.9,352.7,396.8z"
   id="path90" />
<path
   class="st37"
   d="M351.4,408.5c0.2,1.3,0,2.5-0.7,3.7c-1.1-0.3-1.8-0.9-2.3-1.9c-0.2,0.9-0.8,1.5-1.6,1.8c0.1-0.6-0.2-1.3-1-1.9  c-0.4,0.4-0.9,0.8-1.3,1.2c-1.2-0.7-1.7-1.7-1.6-3.1c1.4,0.6,2.8,0.6,4.2,0c0.8,0.2,1.5,0.6,1.9,1.2  C349.7,408.9,350.4,408.5,351.4,408.5z"
   id="path92" />
<path
   class="st38"
   d="M350.3,352.9c-0.8-0.3-1.6-0.7-2.3-1.2c-1.3,1.8-1.8,1.5-1.3-0.6c0.4-0.9,0.9-1.7,1.6-2.5  C349.2,349.9,349.9,351.4,350.3,352.9z"
   id="path94" />
<path
   class="st39"
   d="M349.6,367.1c-0.9,0.6-2,0.8-3.2,0.6c-0.2-1.5,0-2.9,0.7-4.3c0.6,1.2,0.8,2.4,0.6,3.7  C348.3,367.1,349,367.1,349.6,367.1z"
   id="path96" />
<path
   class="st40"
   d="M344.5,344.8c-0.5-1.1-0.8-2.3-1-3.7c-0.1,1.2-0.5,2.2-1,3.1c0-1.2,0-2.5,0-3.7c1-0.1,1.8,0.3,2.3,1.2  c1-1.1,2.1-1.4,3.6-0.9c0.6,0.4,0.7,1,0.3,1.5c-0.9-0.5-1.8-0.8-2.9-0.6c-0.2,0.9,0,1.7,0.6,2.5c0.7-0.8,1.5-1.2,2.6-1.2  c-0.7,2.6-2.1,3-4.2,1.2C344.6,344.4,344.5,344.6,344.5,344.8z"
   id="path98" />
<path
   class="st41"
   d="M349,370.8c0,1.4,0,2.9,0,4.3c-1.3,0-2.6,0-3.9,0c0-1,0-2.1,0-3.1c1-0.1,1.8,0.3,2.3,1.2  C347.4,372.1,348,371.3,349,370.8z"
   id="path100" />
<path
   class="st34"
   d="M347.6,396.8c-0.8,0.7-1.6,0.5-2.3-0.6c-0.2,0.5-0.5,0.9-1,1.2c-0.6-1.4-0.8-2.8-0.6-4.3  c2.7-0.4,3.6,0.5,2.6,2.8C346.6,396.3,347.1,396.6,347.6,396.8z"
   id="path102" />
<path
   class="st42"
   d="M345.7,367.1c0,0.3-0.3,0.5-0.6,0.6c-0.7-0.7-1.2-1.5-1.6-2.5c-0.4,0.8-0.9,1.6-1.3,2.5  C342.8,363.2,343.9,363,345.7,367.1z"
   id="path104" />
<path
   class="st43"
   d="M344.5,344.8c-1.6,0.5-3.3,0.5-5.2,0c-0.2-1.4,0-2.6,0.7-3.7c0,1.2,0,2.5,0,3.7c0.9,0,1.8-0.2,2.6-0.6  c0.5-0.9,0.8-1.9,1-3.1C343.7,342.5,344,343.7,344.5,344.8z"
   id="path106" />
<path
   class="st44"
   d="M342.4,395.5c0.1,0.7-0.1,1.3-0.7,1.9c-3.1,0-3.4-1.2-1-3.7C341.4,394.3,341.9,394.9,342.4,395.5z"
   id="path108" />
<path
   class="st38"
   d="M348.8,416.6c0,2.7-0.3,2.9-1,0.6c-0.7,2.5-1.3,2.5-1.9,0c-0.2,0.7-0.5,1.3-1,1.9c-0.6-0.7-1.1-0.7-1.6,0  c-0.2-0.7-0.5-1.3-1-1.9c-0.3,0.7-0.5,1.3-0.7,1.9c-0.6-0.7-0.8-1.6-0.6-2.5C343.6,416.5,346.2,416.5,348.8,416.6z"
   id="path110" />
<path
   class="st45"
   d="M344.4,372c0,1,0,2.1,0,3.1c-2.5-0.6-4.8-0.7-7.1,0c-0.9-1-0.9-2.1,0-3.1C339.6,372.1,342,372.1,344.4,372z"
   id="path112" />
<path
   class="st46"
   d="M337.9,393c0.2,1.5,0,2.9-0.7,4.3c0.2-1-0.1-2.1-0.6-3.4C336.8,393.3,337.3,393,337.9,393z"
   id="path114" />
<path
   class="st47"
   d="M338.5,415.3c-0.6,1.3-0.8,2.6-0.7,3.7c-0.2-0.6-0.4-1.2-0.6-1.9C337.3,416.2,337.7,415.6,338.5,415.3z"
   id="path116" />
<path
   class="st24"
   d="M340,341.1c-0.6,1.1-0.8,2.3-0.7,3.7c-0.6-0.9-0.8-1.9-0.6-3.1c-2.9-0.1-3.1,0.3-0.6,1.2  c-0.9,0.6-1.3,1.5-1.3,2.5c-0.6,0-1.3,0-1.9,0c0-1.6,0-3.3,0-4.9C336.7,340.3,338.5,340.5,340,341.1z"
   id="path118" />
<path
   class="st48"
   d="M341.2,363.4c0,1.4-0.5,2.6-1.3,3.7c-0.6-0.3-1.2-0.7-1.6-1.2c-0.7,2.5-1.3,2.5-1.9,0  c-1.2,2.2-2.7,2.4-4.5,0.6c-0.2,0.5-0.5,0.9-1,1.2c-0.6-1.2-0.8-2.4-0.6-3.7c-0.6,0-1.3,0-1.9,0c0.2,1.3,0,2.5-0.7,3.7  c-0.3-1.5-1-2.9-1.9-4c1-0.1,1.9-0.2,2.9-0.3c1.3,0.1,2.4,0.5,3.2,1.2c1.5-1.6,3-1.6,4.5,0c0.2-0.5,0.5-0.9,1-1.2  c0.9,0.7,1.6,1.5,2.3,2.5C339.7,364.6,340.2,363.8,341.2,363.4z"
   id="path120" />
<path
   class="st49"
   d="M334.8,364c0.2,1.1,0,2.1-0.7,3.1c-0.2-0.5-0.4-1-0.6-1.5C333.6,364.7,334,364.1,334.8,364z"
   id="path122" />
<path
   class="st50"
   d="M334.6,408.5c0.8,1,0.8,2,0,3.1c-1.7-0.6-2.1-1.7-1.3-3.1C334.1,410.8,334.5,410.8,334.6,408.5z"
   id="path124" />
<path
   class="st51"
   d="M336,395.5c-0.4,1.6-0.9,1.6-1.6,0c-0.2,0.6-0.4,1.2-0.7,1.9c-0.5-1.5-0.4-2.9,0.3-4.3  C334.7,393.9,335.3,394.7,336,395.5z"
   id="path126" />
<path
   class="st52"
   d="M330.8,393.6c0.7,0.2,1.2,0.7,1.3,1.5c0.1,1-0.4,1.7-1.3,2.2C330.6,396.3,330.6,395,330.8,393.6z"
   id="path128" />
<path
   class="st53"
   d="M332,408.5c0.2,1.3,0,2.5-0.7,3.7c-0.2-0.6-0.4-1.2-0.6-1.9C330.8,409.4,331.3,408.7,332,408.5z"
   id="path130" />
<path
   class="st54"
   d="M333.3,416.5c0,2.7-0.3,2.9-1,0.6c-0.2,0.7-0.5,1.3-1,1.9c-0.6-0.7-1.1-0.7-1.6,0c-0.2-0.7-0.5-1.3-1-1.9  c-0.8,0.5-0.8,1,0,1.5c-0.7,0.3-1.1,0-1.3-0.9c0.8-1.9,1.7-2.1,2.9-0.6C331.3,416.6,332.2,416.4,333.3,416.5z"
   id="path132" />
<path
   class="st6"
   d="M336,372c-0.8,0.9-0.8,1.9,0,2.8c-1.3,0.5-2.2,0.2-2.9-0.9c-0.2,0.4-0.4,0.8-0.6,1.2c-0.5-0.7-1-0.7-1.6,0  c-0.5-0.5-0.8-1.2-1-1.9c-0.7,2.5-1.3,2.5-1.9,0c-0.3,0.6-0.4,1.2-0.3,1.9c-1.8-0.2-3.6-0.2-5.2,0c-0.7-1.2-0.8-2.4-0.3-3.7  c0.4,0.4,0.9,0.8,1.3,1.2c2.3-0.4,4.8-0.5,7.4-0.3c0.6,1.7,1.1,1.8,1.6,0.3c0.4,0.8,0.9,0.8,1.3,0c0.2,0.6,0.4,1.2,0.6,1.9  c0.2-1,0.4-2.1,0.7-3.1C335.3,371.7,335.6,371.9,336,372z"
   id="path134" />
<path
   class="st55"
   d="M332.3,342.9c0.1,0.8-0.1,1.5-0.7,2.2c-1.8-0.1-3.8,0-5.8,0.3c-0.1-1.5,0-2.9,0.3-4.3c0.2,0.7,0.5,1.3,1,1.9  c0.6-0.6,1-0.6,1.3,0c-0.6,0.4-1.3,0.8-1.9,1.2c0.2,0.2,0.4,0.4,0.6,0.6c1.2-0.8,2.4-0.8,3.6,0c-0.5-1.1-0.7-2.4-0.6-3.7  C330.3,342.3,331,342.9,332.3,342.9z"
   id="path136" />
<path
   class="st3"
   d="M341.9,348.5c0.6,1.3,0.8,2.7,0.6,4.3c-1.7,0-3.4,0-5.2,0c0-3.2-0.5-3.2-1.3,0c-0.8-3.2-1.2-3.2-1.3,0  c-0.9,0-1.7,0-2.6,0c-0.2-3.3-0.4-3.3-0.6,0c-0.9,0-1.7,0-2.6,0c0-1,0-2.1,0-3.1c3,0,6,0,9,0c0.2,2.5,0.4,2.5,0.6,0  c0.6,0,1.3,0,1.9,0c-0.1,1,0.2,1.8,1,2.5C341.9,351,342,349.8,341.9,348.5z"
   id="path138" />
<path
   class="st12"
   d="M328.4,349.7c-0.3,1-0.8,2.1-1.3,3.1c-0.6-0.3-0.6-0.7,0-1.2c-1.2-0.8-2.3-0.6-3.2,0.6c-0.9-1.2-0.6-2.1,1-2.5  C325.9,350.1,327.1,350.1,328.4,349.7z"
   id="path140" />
<path
   class="st44"
   d="M330.8,393.6c-1,0.9-1.6,2.2-1.9,3.7c-0.5-1.2-0.8-2.4-1-3.7c-0.1,1.3-0.5,2.5-1,3.7c-0.6-0.9-1.4-1.7-2.3-2.5  c-0.2,0.8-0.4,1.6-0.7,2.5c-0.5-1.5-0.4-2.9,0.3-4.3c0.8,0.5,1.4,1.1,1.9,1.9c0.8-0.5,0.8-1,0-1.5  C327.9,392.8,329.4,392.9,330.8,393.6z"
   id="path142" />
<path
   class="st56"
   d="M326.9,409.7c0.5,1.4-0.1,2.7-1.6,3.7c-1.5-1.7-1.8-3.5-0.9-5.6c0.9,0.7,1.6,1.6,2.3,2.5  C326.8,410.2,326.9,409.9,326.9,409.7z"
   id="path144" />
<path
   class="st54"
   d="M323.9,341.1c0.7,1.3,0.8,2.8,0.3,4.3c-0.6-0.8-1.3-1.7-1.9-2.5c-0.2,0.7-0.5,1.3-1,1.9  c-1-3.6-0.3-4.2,2.3-1.8C323.9,342.3,324,341.7,323.9,341.1z"
   id="path146" />
<path
   class="st31"
   d="M324.3,415.2c0.7,1.1,0.8,2.3,0.3,3.7c-0.6-2.3-1-2.1-1.3,0.6c-0.8-0.4-1.5-0.8-2.3-1.2c0.7-0.6,0.7-1.1,0-1.5  C322.4,416.7,323.5,416.2,324.3,415.2z"
   id="path148" />
<path
   class="st39"
   d="M323.8,355.9c-0.9,1.3-1.5,2.7-2,4.3c-0.5-1.2-0.8-2.4-1-3.7c-0.4,0.7-0.7,0.7-1,0  C321.2,355.9,322.5,355.7,323.8,355.9z"
   id="path150" />
<path
   class="st41"
   d="M325.1,365.8c0.1,2.2-0.5,2.4-1.9,0.6c-0.4,0.4-0.9,0.8-1.3,1.2c-0.2-0.2-0.4-0.4-0.6-0.6  c0.1-2,1.2-3.1,3.2-3.1C324.3,364.7,324.5,365.3,325.1,365.8z"
   id="path152" />
<path
   class="st57"
   d="M322.3,409.7c0.8,1,0.5,1.9-1,2.5c-0.2-0.8-0.5-1.5-1-2.2c0.8-0.3,1.3,0,1.6,0.9  C322.3,410.5,322.4,410.1,322.3,409.7z"
   id="path154" />
<path
   class="st33"
   d="M323.2,348.5c-0.9,1.3-1.5,2.7-2,4.3c-0.3-1.5-1-2.9-1.9-4C320.6,348.5,321.9,348.4,323.2,348.5z"
   id="path156" />
<path
   class="st58"
   d="M321.2,372.6c0,0.8,0,1.6,0,2.5c-1.5,0-3,0-4.5,0c-0.2-1.5,0-2.9,0.7-4.3C318.5,371.7,319.7,372.3,321.2,372.6  z"
   id="path158" />
<path
   class="st59"
   d="M322.4,395.4c0.1,0.7-0.1,1.3-0.7,1.9c-0.8-0.8-1.5-0.8-2.3,0c-0.2-1.6,0.3-3,1.3-4.3  C321.4,393.8,321.9,394.6,322.4,395.4z"
   id="path160" />
<path
   class="st58"
   d="M320.6,363.3c0.1,1.5,0,2.9-0.3,4.3c-0.6-0.6-1.3-1.2-1.9-1.9c-0.2,0.7-0.5,1.3-1,1.9c-0.9-1.4-0.8-2.9,0-4.3  c0.4,0.4,0.9,0.8,1.3,1.2C319.1,363.8,319.8,363.4,320.6,363.3z"
   id="path162" />
<path
   class="st60"
   d="M318.7,341c0.6,1.1,0.8,2.3,0.6,3.7c-0.7,0.1-1.3,0-1.9-0.3C318.5,343.6,319,342.4,318.7,341z"
   id="path164" />
<path
   class="st61"
   d="M319.8,407.8c0.1,1.3,0,2.5-0.3,3.7c-0.3,0.3-0.6,0.5-1,0.6c-0.4-0.8-0.4-1.8,0-2.8  C318.6,408.5,319,408,319.8,407.8z"
   id="path166" />
<path
   class="st23"
   d="M319.9,359.6c-1.5-0.8-3-0.8-4.5,0c0.8-1.3,1.6-2.6,2.6-3.7C318.7,357.2,319.3,358.4,319.9,359.6z"
   id="path168" />
<path
   class="st48"
   d="M316.8,344.7c-0.5,0.6-1.1,0.8-1.9,0.6C315,340,315.6,339.8,316.8,344.7z"
   id="path170" />
<path
   class="st54"
   d="M316.7,351.5c0.1,0.5-0.1,1-0.6,1.2c-0.8-0.7-1.6-1.3-2.6-1.9c0.3-0.9,0.7-1.7,1.3-2.5  C315.6,349.5,316.2,350.5,316.7,351.5z"
   id="path172" />
<path
   class="st60"
   d="M317.9,396c0.4,0,0.6,0.2,0.6,0.6c-1.2,0.6-2.5,0.8-3.9,0.6c0-1.4,0-2.9,0-4.3c0.6,0,1.3,0,1.9,0  c-0.2,1.3,0,2.5,0.6,3.7C317.6,396.6,317.8,396.4,317.9,396z"
   id="path174" />
<path
   class="st62"
   d="M315.2,410.9c-0.2,0.7-0.7,1.1-1.6,1.2c-1.2-0.6-2.4-0.6-3.6,0c-1-0.5-1.5-1.3-1.3-2.5c2,0.3,3.7-0.3,4.8-1.8  C313.7,409.2,314.2,410.2,315.2,410.9z"
   id="path176" />
<path
   class="st55"
   d="M328.9,379.4c-0.6,0.9-0.6,1.7,0,2.5c-4.8,0.5-9.6,0.7-14.2,0.6c0.1-0.6,0-1.3-0.3-1.9c-0.8,1.1-1.2,2.1-1,3.1  c-3-0.8-3.9-2.6-2.6-5.3c2.3,0.4,4.7,0.9,7.1,1.6c1.3-0.2,2.6-0.4,3.9-0.6c1.2,0.5,1.6,1.1,1.3,1.9c0.6-0.5,0.8-1.1,0.7-1.9  C325.5,380.2,327.2,380.2,328.9,379.4z"
   id="path178" />
<path
   class="st63"
   d="M312.8,378.7c0.2,1.1,0,2.1-0.7,3.1C310.3,380.4,310.5,379.4,312.8,378.7z"
   id="path180" />
<path
   class="st48"
   d="M313.4,371.9c-0.6,1.6-1.5,3-2.6,4.3c-0.2-0.1-0.4-0.2-0.6-0.3c1.5-0.8,1.6-1.8,0.3-2.8  c-0.2,1-0.9,1.7-1.9,1.8c-1.8-0.3-3.6-0.3-5.5,0c-0.4-3.3-0.8-3.3-1.3,0c-1.3,0.1-2.6,0-3.9-0.3c-0.3-0.8-0.3-1.7,0-2.8  c1.9-0.2,2.8,0.7,2.9,2.5c0.3-0.8,0.4-1.6,0.3-2.5c2,0.5,3.9,0.7,5.8,0.6c1-0.4,1.9-1,2.6-1.8C310.7,371.7,311.9,372.1,313.4,371.9z  "
   id="path182" />
<path
   class="st64"
   d="M312.3,343.5c-0.8,0-1.3,0.5-1.6,1.2c-0.4-1.2-0.4-2.5,0-3.7c0.7,1.6,1.2,1.6,1.6,0  C313.8,341.7,313.8,342.5,312.3,343.5z"
   id="path184" />
<path
   class="st65"
   d="M319.7,417.7c0.1,0.5,0,0.9-0.3,1.2c-1.1-2.5-2.2-2.5-3.2,0c-0.2-0.6-0.4-1.2-0.6-1.9  c-0.7,0.4-1.4,0.7-2.3,0.9c0.6,0.2,1.3,0.4,1.9,0.6c-1.7,0.4-3.4,0.4-5.2,0c1.7-0.6,1.6-0.9-0.3-0.9c-1.9,0.1-2,0.4-0.3,0.9  c-0.6,0.3-1.3,0.4-1.9,0.3c-0.3-2.4-0.9-2.4-1.6,0c-0.3-1-0.4-2-0.3-3.1c4.5,0.3,9,0.3,13.6,0.1  C318.9,416.6,319.2,417.2,319.7,417.7z"
   id="path186" />
<path
   class="st66"
   d="M305.8,344.7c0.6,0.1,1.1-0.1,1.3-0.6c0.9-3.9,1.6-3.9,2.3,0c0.3-1.2,0.4-2.5,0.3-3.7c1-0.2,1.9,0,2.6,0.6  c-0.4,1.6-0.9,1.6-1.6,0c-0.4,1.2-0.4,2.5,0,3.7c0.3-0.8,0.8-1.2,1.6-1.2c1,0.3,1.2,0.7,0.6,1.2  C310.6,345.3,308.3,345.3,305.8,344.7z"
   id="path188" />
<path
   class="st42"
   d="M316,367c-1.1,0.7-1.9,0.3-2.3-1.2c-0.2,0.7-0.5,1.3-1,1.9c-1.4-0.2-2.9-0.2-4.5,0c0-1.4,0-2.9,0-4.3  c1.1-0.1,2.2,0,3.2,0.3c-0.7,0.2-1.4,0.5-1.9,0.9c0.7,0.3,1.4,0.5,1.9,0.6c-0.6,0.4-1.3,0.8-1.9,1.2c0.6,0.7,1.2,0.7,1.9,0  c0.6-1,0.8-2,0.7-3.1c2.5-0.5,3.4,0.4,2.6,2.5C315,366.4,315.4,366.8,316,367z"
   id="path190" />
<path
   class="st64"
   d="M307.7,363.2c-0.9,1.3-1.5,2.7-2,4.3c-0.3-1.5-1-2.9-1.9-4C305.1,363.2,306.4,363.1,307.7,363.2z"
   id="path192" />
<path
   class="st67"
   d="M312.2,347.8c-0.2,1.6-0.7,3-1.6,4.3c-0.8-1.6-1.6-1.6-2.3,0c-0.6-0.8-1-1.6-1.3-2.5c-0.5-0.5-1.2-0.8-1.9-0.6  c-0.4,4.9-0.9,4.9-1.3,0c-0.7,0.1-1.3,0-1.9-0.3c0.2-0.2,0.4-0.4,0.6-0.6c2.4-0.3,4.7-0.4,7.1-0.3c-0.1,1,0.2,1.8,1,2.5  C310.7,349.1,311.2,348.3,312.2,347.8z"
   id="path194" />
<path
   class="st68"
   d="M307.1,344.1c-0.2,0.5-0.7,0.7-1.3,0.6c-0.4-1.5-1-1.5-1.9,0C303.9,340.2,305,340,307.1,344.1z"
   id="path196" />
<path
   class="st64"
   d="M308.1,409c0.1,1.1,0,2.1-0.3,3.1c-1.7-0.3-3.3-0.9-4.8-1.9c-0.4,0.3-0.8,0.7-1,1.2c-0.3-0.8-0.4-1.6-0.3-2.5  c1.6-0.2,2.5,0.4,2.9,1.9c0.2-0.7,0.5-1.3,1-1.9C306.4,409.5,307.2,409.5,308.1,409z"
   id="path198" />
<path
   class="st69"
   d="M310.8,396.6c-2.2,0.6-4.6,0.8-7.1,0.6c0-1.4,0-2.9,0-4.3c1.4-0.1,2.7,0.1,3.9,0.6c2-1.1,3.5-0.5,4.5,1.6  C312,395.9,311.5,396.4,310.8,396.6z"
   id="path200" />
<path
   class="st70"
   d="M307.6,393.5c0.8,0.7,0.8,1.6,0,2.5c-0.9,0.7-1.8,0.7-2.6,0c0.2-0.7,0.5-0.7,1,0  C306.2,395,306.8,394.2,307.6,393.5z"
   id="path202" />
<path
   class="st71"
   d="M310.8,396.6c-0.6,0-1.3,0-1.9,0c-0.2-1.1,0-2.1,0.7-3.1C310.6,394.3,311,395.3,310.8,396.6z"
   id="path204" />
<path
   class="st43"
   d="M304.9,415.2c-0.8,1.2-1.6,2.5-2.6,3.7c-0.6-1.4-0.8-2.8-0.6-4.3C302.8,414.6,303.9,414.8,304.9,415.2z"
   id="path206" />
<path
   class="st72"
   d="M301.1,392.9c0.1,1.5,0,2.9-0.3,4.3c-0.1-1.7-0.6-3.1-1.6-4.3C299.8,392.9,300.5,392.9,301.1,392.9z"
   id="path208" />
<path
   class="st73"
   d="M299.2,392.9c1,1.2,1.5,2.7,1.6,4.3c0.3-1.4,0.4-2.9,0.3-4.3c0.8-0.1,1.4,0.1,1.9,0.6c-0.2,0.7-0.5,0.7-1,0  c-0.3,1.4-0.4,2.9-0.3,4.3c-0.6,0-1.3,0-1.9,0c0.2-1.6-0.2-3.1-1.3-4.3C298.6,393.1,298.8,392.9,299.2,392.9z"
   id="path210" />
<path
   class="st74"
   d="M298.5,412c0.5-1,0.7-2,0.7-3.1c0.6,0,1.3,0,1.9,0c0.1,1-0.3,1.7-1.3,2.2c0.9,0.3,1.3,0.8,1,1.5  C299.8,412.3,299.1,412.1,298.5,412z"
   id="path212" />
<path
   class="st6"
   d="M302.5,363.2c0.7,1.3,0.8,2.8,0.3,4.3c-0.6-0.6-1.3-1.2-1.9-1.9c-0.2,0.7-0.5,1.3-1,1.9c-0.9-1.4-0.8-2.9,0-4.3  c0.8,0.5,1.4,1.1,1.9,1.9C302.4,364.6,302.6,364,302.5,363.2z"
   id="path214" />
<path
   class="st75"
   d="M298.6,363.2c0.2,1.5,0,2.9-0.7,4.3c-0.2-0.7-0.4-1.4-0.6-2.2C297.4,364.3,297.8,363.6,298.6,363.2z"
   id="path216" />
<path
   class="st38"
   d="M298.4,416.4c-0.8,0.6-0.8,1.2,0,1.9c-0.6,0.7-1.2,0.8-1.9,0.3c0.1-0.9,0.3-1.8,0.7-2.8  C297.6,416,298,416.2,298.4,416.4z"
   id="path218" />
<path
   class="st76"
   d="M299.1,409c0.1,1.1-0.1,2.1-0.7,3.1c-2.2-0.1-4.1-0.3-5.8-0.6c0.6-1.6,1.8-1.6,3.6,0c0.4-0.9,0.3-1.7-0.3-2.5  C297,408.9,298,408.9,299.1,409z"
   id="path220" />
<path
   class="st22"
   d="M300.6,341.6c0.1,1.5-0.5,2.7-1.9,3.4c-2.1-0.2-4.2-0.2-6.5,0.3c0.2-5.2,0.7-5.4,1.6-0.6  c2-0.8,2.7-2.2,2.3-4.3C297.8,340.3,299.3,340.7,300.6,341.6z"
   id="path222" />
<path
   class="st77"
   d="M299.4,341.6c0,0.8,0,1.6,0,2.5c-0.6,0-1.3,0-1.9,0c0-0.8,0-1.6,0-2.5C298.1,341.6,298.7,341.6,299.4,341.6z"
   id="path224" />
<path
   class="st59"
   d="M297.3,371.9c-1.3,3-1.9,3-1.9,0C296,371.9,296.7,371.9,297.3,371.9z"
   id="path226" />
<path
   class="st78"
   d="M297.9,394.7c0.1,2.3-0.5,2.7-1.9,1.2c-1.2,1.4-1.5,0.9-1-1.2c0.6-0.5,1-1.1,1.3-1.8  C296.8,393.5,297.3,394.2,297.9,394.7z"
   id="path228" />
<path
   class="st79"
   d="M293.3,397.2c0.2-1,0-1.8-0.6-2.5c0.5-2.4,0.9-2.3,1.3,0.3C294,395.9,293.8,396.6,293.3,397.2z"
   id="path230" />
<path
   class="st80"
   d="M293.3,417c0-0.4,0-0.8,0-1.2c-0.1-0.5,0-0.9,0.3-1.2c0.1,1.4,0.7,2.6,1.6,3.7c-0.5,0.5-1.2,0.7-1.9,0.6  C293.3,418.2,293.3,417.6,293.3,417z"
   id="path232" />
<path
   class="st81"
   d="M293.3,397.2c-0.9-0.7-1.6-1.5-2.3-2.5c-0.1,1.2-0.6,2-1.6,2.5c0.9-1.4,0.9-2.9,0-4.3c1.4,0.1,2.5,0.8,3.2,1.9  C293.3,395.4,293.5,396.2,293.3,397.2z"
   id="path234" />
<path
   class="st33"
   d="M292.6,411.4c-0.8-0.6-0.8-1.4,0-2.2c1.1,0.3,2.2,0.2,3.2-0.3c0.6,0.8,0.7,1.6,0.3,2.5  C294.4,409.8,293.2,409.8,292.6,411.4z"
   id="path236" />
<path
   class="st38"
   d="M292.2,352.1c-0.9-0.2-1.5-0.9-1.6-1.9c-0.2,0.6-0.4,1.2-0.7,1.9c-0.2-0.8-0.5-1.5-1-2.2  c0.8-0.3,1.7-0.4,2.6-0.3c0.9,0.4,2,0.4,3.2,0c1,0.1,1.7,0.5,2.3,1.2c0.7-1.2,1.7-1.4,2.9-0.6c-0.3,0.7-0.7,1.3-1.3,1.8  c-0.6-0.7-1.1-0.7-1.6,0c-0.6-0.5-1-1.1-1.3-1.9c-0.7,2.5-1.3,2.5-1.9,0C293.7,351.2,293.1,351.8,292.2,352.1z"
   id="path238" />
<path
   class="st61"
   d="M293.3,415.7c0,0.4,0,0.8,0,1.2c-0.9,0.3-1.5,0.9-1.9,1.8c-0.6-1-0.8-2-0.6-3.1  C291.6,415.7,292.4,415.7,293.3,415.7z"
   id="path240" />
<path
   class="st82"
   d="M294.7,374.3c-1.1,0.7-1.9,0.3-2.3-1.2c-0.2,0.7-0.5,1.3-1,1.9c-0.9-1.4-0.9-2.9,0-4.3  C292.6,371.9,293.7,373.1,294.7,374.3z"
   id="path242" />
<path
   class="st18"
   d="M292.2,352.1c-1.7,0.7-3.4,1.3-5.2,1.8c-0.4-2.4,0.2-4.4,1.6-6.2c0.8,0.9,1.8,1.5,2.9,1.9  c-0.9-0.1-1.7,0-2.6,0.3c0.4,0.7,0.8,1.4,1,2.2c0.2-0.6,0.4-1.2,0.7-1.9C290.8,351.2,291.3,351.8,292.2,352.1z"
   id="path244" />
<path
   class="st59"
   d="M291,340.9c-0.5,1.3-0.6,2.5-0.3,3.7c-0.4-0.4-0.9-0.8-1.3-1.2c-0.3,0.9-0.8,1.2-1.6,0.9  c0.3-1.3,0.5-2.7,0.7-4c0.5,0.5,0.8,1.2,1,1.9C289.6,341.4,290.2,341,291,340.9z"
   id="path246" />
<path
   class="st83"
   d="M289.5,397.2c-0.2,0-0.4,0-0.6,0c0-0.6,0-1.2,0-1.9c0.4,0,0.6-0.2,0.6-0.6c-0.7-0.7-1.6-1.2-2.6-1.2  c0-0.4-0.2-0.6-0.6-0.6c0.9-0.4,2-0.4,3.2,0C290.3,394.3,290.3,395.7,289.5,397.2z"
   id="path248" />
<path
   class="st50"
   d="M291.4,408.3c0.4,2.5-0.7,3.7-3.2,3.7c-0.1-1.5,0-2.9,0.3-4.3c0.3,1,0.4,2,0.3,3.1c0.6,0,1.3,0,1.9,0  c0.1-0.8-0.1-1.5-0.6-2.2C290.5,408.3,290.9,408.2,291.4,408.3z"
   id="path250" />
<path
   class="st84"
   d="M290,416.3c0,0.8,0,1.6,0,2.5c-0.6,0-1.3,0-1.9,0c-0.2-1.1,0-2.1,0.7-3.1C289.2,415.9,289.6,416.1,290,416.3z"
   id="path252" />
<path
   class="st85"
   d="M288.8,395.3c0,0.6,0,1.2,0,1.9C287.1,396.5,287.1,395.9,288.8,395.3z"
   id="path254" />
<path
   class="st48"
   d="M294.7,366.9c-0.9,0.8-1.7,0.6-2.3-0.6c-1.5,1.6-3,1.6-4.5,0c-0.2,0.5-0.5,0.9-1,1.2c-0.6-1.4-0.8-2.8-0.6-4.3  c2.5-0.5,3.4,0.4,2.6,2.5c0.2,0.5,0.5,0.9,1,1.2c0.3-1.2,0.4-2.5,0.3-3.7c1.4,0.5,2.7,0.6,3.9,0.3  C292.4,364.9,292.6,366,294.7,366.9z"
   id="path256" />
<path
   class="st67"
   d="M287.5,415.7c0,3.5-0.3,3.7-1,0.6c-0.4,2.7-1.1,2.9-1.9,0.6c-0.2,0.7-0.5,1.3-1,1.9c-0.8-0.9-0.8-1.9,0-2.8  C284.9,415.7,286.2,415.6,287.5,415.7z"
   id="path258" />
<path
   class="st86"
   d="M355.9,424c0,0.2,0,0.4,0,0.6c-37.9,0.4-75.8,0.5-113.6,0.2c0.1-31.3,0.2-62.6,0.3-93.9  c14.8,0.6,29.7,0.9,44.5,1.1c-14.1,0.1-28.1,0.3-42,0.8c-0.1,30.1-0.2,60.2-0.3,90.2C281.9,422.9,319,423.2,355.9,424z"
   id="path260" />
<path
   class="st59"
   d="M261.2,343.9c0,0.3-0.3,0.5-0.6,0.6c-1.1-2.3-1.8-2.3-2.3,0c-0.3-1.2-0.4-2.5-0.3-3.7c-0.6,0-1.3,0-1.9,0  c-0.4,4.9-0.9,4.9-1.6,0c-0.6,0.7-1.1,0.6-1.6-0.3c2.2-0.4,4.3-0.4,6.5,0c-0.8,0.5-0.8,1.1,0,1.5c0.4-0.3,0.8-0.7,1-1.2  C260.4,342,260.7,343,261.2,343.9z"
   id="path262" />
<path
   class="st31"
   d="M263.8,363.1c0.4,4.4-0.5,5-2.9,1.8c-0.2,0.6-0.4,1.2-0.7,1.9c-0.6-4.2,0.3-4.6,2.6-1.2  c0.4-0.8,0.3-1.5-0.3-2.2C262.9,363.1,263.3,363,263.8,363.1z"
   id="path264" />
<path
   class="st57"
   d="M265.1,343.3c-0.2,0-0.4,0-0.6,0c-0.8,0.5-1.7,0.8-2.6,0.9c0.4-1.4,1.1-2.5,2.3-3.4  C264.7,341.6,265,342.4,265.1,343.3z"
   id="path266" />
<path
   class="st87"
   d="M267.7,340.8c-0.9,1.2-0.9,2.5,0,3.7c-0.9,0.6-2,0.8-3.2,0.6c0-0.6,0-1.2,0-1.9c0.2,0,0.4,0,0.6,0  c0.4,0.1,0.7,0.3,1,0.6c0.1-1.3,0.5-2.5,1-3.7C267.5,340.3,267.7,340.5,267.7,340.8z"
   id="path268" />
<path
   class="st53"
   d="M279.9,372.4c-0.4,2.4-0.9,2.4-1.6,0c-0.3,0.8-0.4,1.6-0.3,2.5c-1.9,0.2-2.8-0.7-2.9-2.5  c-0.1,0.9-0.5,1.7-1,2.5c-1.9-0.2-3.8-0.2-5.8,0c-0.2-0.2-0.4-0.4-0.6-0.6c0.4-1.5,0.8-2.9,1.3-4.3c1.5,2,3.2,2.2,5.2,0.6  C275.9,371.5,277.8,372.2,279.9,372.4z"
   id="path270" />
<path
   class="st19"
   d="M268.9,365.6c-0.6,0.4-0.8,1.1-0.7,1.9c-1.3,0-2.6,0-3.9,0c-0.2-1.6,0-3,0.7-4.3c0.9-0.8,1.7-0.8,2.6,0  c-0.5-0.1-0.9,0-1.3,0.3c0.8,0.3,1.7,0.4,2.6,0.3C268.9,364.3,268.9,365,268.9,365.6z"
   id="path272" />
<path
   class="st88"
   d="M265.1,363.1c0.4,0.6,0.9,1.2,1.3,1.9c0.6-0.6,1-0.6,1.3,0c-0.9,0.4-1.7,1.1-2.3,1.8  C265,365.6,264.9,364.3,265.1,363.1z"
   id="path274" />
<path
   class="st59"
   d="M267.7,344.6c-0.9-1.2-0.9-2.5,0-3.7c0.5,0.6,1.1,1.2,1.6,1.9c0.5-2.4,0.8-2.4,1,0c-0.1,0.6-0.2,1.2-0.3,1.9  C268.6,342.4,267.8,342.4,267.7,344.6z"
   id="path276" />
<path
   class="st89"
   d="M274,394c-0.1,2.4-1.4,3.4-3.9,3.1c0.2-5.2,0.7-5.4,1.6-0.6c1.1-0.9,1.3-1.9,0.3-3.1c0.2-0.2,0.4-0.4,0.6-0.6  C273.1,393.2,273.6,393.7,274,394z"
   id="path278" />
<path
   class="st64"
   d="M268.9,365.6c0-0.6,0-1.2,0-1.9c-0.9,0.1-1.7,0-2.6-0.3c0.4-0.3,0.8-0.4,1.3-0.3c1.4,0,2.3,0.7,2.9,1.9  c0.2-0.6,0.4-1.2,0.7-1.9c0.2,1.2,0.8,2.2,1.6,3.1c-0.7,0.7-1.3,0.5-1.6-0.6C270.5,367.1,269.7,367.1,268.9,365.6z"
   id="path280" />
<path
   class="st5"
   d="M274.2,340.3c-0.1,0.8-0.5,1.3-1.3,1.5c1,0.7,1.4,1.6,1.3,2.8c-2.8,0-3.1-0.3-0.6-0.9c-1.4-0.7-2-1.9-1.9-3.4  C272.5,340.2,273.3,340.2,274.2,340.3z"
   id="path282" />
<path
   class="st54"
   d="M279.1,415.7c0,3.5-0.3,3.7-1,0.6c-0.3,0.8-0.4,1.6-0.3,2.5c-2.6,0-5.2,0-7.7,0c-0.2-1.5,0-2.9,0.7-4.3  c0.6,1.2,0.8,2.4,0.6,3.7c1.6-0.4,3.1-1,4.5-1.8c0.3,2.3,0.6,2.1,0.6-0.6C277.3,415.7,278.2,415.7,279.1,415.7z"
   id="path284" />
<path
   class="st90"
   d="M277.2,394c0,1.3-0.5,2.1-1.3,2.5c0,0.2,0,0.4,0,0.6c-0.8-0.4-1.2-1.1-1.3-2.2c0.1-1,0.5-1.8,1.3-2.2  C275.7,394.3,276.1,394.8,277.2,394z"
   id="path286" />
<path
   class="st38"
   d="M275.9,397.1c0-0.2,0-0.4,0-0.6c1.6-0.5,3.1-0.7,4.5-0.6c-0.9-0.9-2-1.5-3.2-1.9c-1.1,0.7-1.5,0.3-1.3-1.2  c3.4-0.3,5.3,1.2,5.8,4.3C279.8,397.1,277.8,397.1,275.9,397.1z"
   id="path288" />
<path
   class="st63"
   d="M275.9,396.5c0.8-0.3,1.3-1.1,1.3-2.5c1.2,0.3,2.3,1,3.2,1.9C279,395.8,277.5,396,275.9,396.5z"
   id="path290" />
<path
   class="st48"
   d="M280.5,363.1c-0.7,1.4-1.4,2.8-2,4.3c-0.4-1.5-1-2.8-1.9-4c1-0.4,1.8-0.1,2.3,0.9  C279.2,363.6,279.7,363.2,280.5,363.1z"
   id="path292" />
<path
   class="st88"
   d="M281.7,414.5c0.6,1.3,0.8,2.7,0.6,4.3c-0.9,0-1.7,0-2.6,0c-0.1-2.8,0.3-3,1.3-0.6  C281.6,417,281.8,415.8,281.7,414.5z"
   id="path294" />
<path
   class="st91"
   d="M281.3,342.8c-0.1,2-0.6,2.2-1.6,0.6c-0.2,0.4-0.4,0.8-0.6,1.2c-0.7-1.3-1.5-2.7-2.2-4  c0.2-0.1,0.4-0.2,0.6-0.3c0.7,0.7,1.2,1.5,1.6,2.5c0.2-0.6,0.4-1.2,0.7-1.9C280.2,341.6,280.7,342.2,281.3,342.8z"
   id="path296" />
<path
   class="st33"
   d="M285.7,370.6c-0.5,0.5-1.1,0.8-1.9,0.9c0.7,0.2,1.4,0.5,1.9,0.9c-0.5,0.7-1,0.7-1.6,0  c-0.2,0.8-0.4,1.6-0.7,2.5c-0.3-1.4-0.4-2.9-0.3-4.3C284,370.6,284.8,370.6,285.7,370.6z"
   id="path298" />
<path
   class="st27"
   d="M286.9,393.5c-0.5,1.1-0.9,2.3-1,3.7c-0.6-0.5-1-1.1-1.3-1.9c-0.3,0.6-0.4,1.2-0.3,1.9c-0.6,0-1.3,0-1.9,0  c0-1.4,0-2.9,0-4.3c1-0.1,1.8,0.3,2.3,1.2c0.5-0.5,1-1,1.6-1.2C286.7,392.8,286.9,393,286.9,393.5z"
   id="path300" />
<path
   class="st92"
   d="M285.7,364.4c-0.3,3.1-1.7,3.7-4.2,1.8c-0.7-1.9-0.1-2.9,1.9-3.1C284.4,363.4,285.1,363.8,285.7,364.4z"
   id="path302" />
<path
   class="st93"
   d="M284.4,363.8c0,0.8,0,1.6,0,2.5c-0.6,0-1.3,0-1.9,0c0-0.8,0-1.6,0-2.5C283.1,363.8,283.8,363.8,284.4,363.8z"
   id="path304" />
<path
   class="st31"
   d="M287.1,341.5c0.3,2.6-0.8,3.6-3.2,3.1c-0.7-1-0.8-2-0.3-3.1c0.3,0.8,0.4,1.6,0.3,2.5c0.6,0,1.3,0,1.9,0  c-0.1-1.1,0-2.1,0.3-3.1C286.4,341.3,286.7,341.5,287.1,341.5z"
   id="path306" />
<path
   class="st3"
   d="M179.9,260.1c0.6-0.6,1.2-1.2,1.8-1.8c-0.1,1.8,0.5,3.4,1.8,4.6c0.2,1.2-0.1,2.1-0.9,2.7  C182.6,263.3,181.7,261.5,179.9,260.1z"
   id="path308" />
<path
   class="st94"
   d="M191.7,35.6c1.2-0.1,2.4,0,3.6,0.5c3.6,3.4,7,7,9.9,11c1.7,1.3,3.5,2.4,5.4,3.2c1.2,2.2,3,3.7,5.4,4.6  c1.8,2.7,4.2,4.5,7.2,5.5c2.4,3,5.4,5.2,9,6.4c8.7,6,18,10.9,28,14.6c7.7,5.4,16.1,9.6,25.3,12.3c-13.5,3-26.7,6.6-39.8,11  c-2.9,1.9-5.9,3.6-9,5c-1,3.1-0.8,6.1,0.5,9.1c3.8,8.8,8.9,16.8,15.4,23.7c0.5,1.2,0,1.8-1.4,1.8c-8.1-5.9-16.2-11.9-24.4-17.8  c-13.9-13.1-24.6-28.5-32.1-46.1C189.6,65.7,188.5,50.8,191.7,35.6z"
   id="path310" />
<path
   class="st95"
   d="M289.3,93.1c-3.7-0.9-7.3-1.9-10.8-3.2c-5.9-3.2-12-6-18.1-8.7c-9.2-5.1-18.6-10-28-14.6c-2.5-2.8-5.5-5-9-6.4  c-2.1-2.3-4.5-4.1-7.2-5.5c-1.3-2.2-3.1-3.7-5.4-4.6c-4.9-4.8-9.7-9.8-14.5-15.1c-0.5-0.4-1.1-0.6-1.8-0.5c-1-1.2-1-2.5,0-3.7  c1.8-1.2,3.6-2.4,5.4-3.7c25.8,29.2,57.7,48,95.8,56.6c0.9,0.5,1.1,1.1,0.5,1.8C293.6,88.1,291.4,90.5,289.3,93.1z"
   id="path312" />
<path
   class="st75"
   d="M191.7,35.6c0.6-0.8,1.5-1.1,2.7-0.9c0.7-0.1,1.3,0,1.8,0.5c4.7,5.2,9.6,10.2,14.5,15.1  c-1.9-0.8-3.7-1.9-5.4-3.2c-3-3.9-6.3-7.6-9.9-11C194.1,35.6,192.9,35.4,191.7,35.6z"
   id="path314" />
<path
   class="st4"
   d="M210.7,50.2c2.4,0.9,4.2,2.4,5.4,4.6C213.7,53.8,211.9,52.3,210.7,50.2z"
   id="path316" />
<path
   class="st96"
   d="M216.1,54.7c2.7,1.4,5.2,3.2,7.2,5.5C220.3,59.3,217.9,57.4,216.1,54.7z"
   id="path318" />
<path
   class="st66"
   d="M225.1,230.9c-0.7,1.5-1.6,2.8-2.7,4.1c0.3,0.9,0.9,1.4,1.8,1.4c-3.3,5.2-5.1,4.6-5.4-1.8  C221.1,233.7,223.3,232.5,225.1,230.9z"
   id="path320" />
<path
   class="st91"
   d="M223.3,60.2c3.5,1.4,6.5,3.6,9,6.4C228.7,65.4,225.7,63.2,223.3,60.2z"
   id="path322" />
<path
   class="st92"
   d="M225.1,230.9c1-0.7,2.2-1.2,3.6-1.4c-0.6-0.3-1.2-0.6-1.8-0.9c1-2.7,2.8-4.7,5.4-5.9c2.3,1.4,2.3,2.8,0,4.1  c0.6,0.6,1.2,1.2,1.8,1.8c-4,1.8-7.3,4.4-9.9,7.8c-0.9,0-1.5-0.4-1.8-1.4C223.5,233.7,224.4,232.4,225.1,230.9z"
   id="path324" />
<path
   class="st54"
   d="M234.2,222.7c0-1.9,0.9-3.1,2.7-3.7c1.4,0,2.3,0.6,2.7,1.8c-0.7,0.4-1.6,0.5-2.7,0.5c2.1,1.5,1.8,2.9-0.9,4.1  C235.4,224.4,234.8,223.5,234.2,222.7z"
   id="path326" />
<path
   class="st97"
   d="M290.2,94c5.7-8.4,13.5-13.5,23.5-15.5c5.2,1.6,9.7,4.3,13.6,8.2c4,6.7,10.1,9.3,18.1,7.8  c13.2,3.6,25.9,8.3,38,14.1c5.2,0.9,6.6,3.6,4.1,8.2c-4,10.8-9.5,20.5-16.7,29.2c-5.2,4.3-9.7,9.2-13.6,14.6c-3.4,2-6.4,4.4-9,7.3  c-11.5,7.5-23.4,14.5-35.7,21c-12-7.3-23.6-15.3-34.8-23.7c-1.3-2.2-3.1-3.7-5.4-4.6c-6.3-4.6-11.8-10-16.3-16.4  c-7.8-7.8-13.7-16.9-17.6-27.4c-0.6-2.1-0.6-4.3,0-6.4c6.5-3.5,13.3-6.4,20.3-8.7C269.3,99.1,279.8,96.6,290.2,94z"
   id="path328" />
<path
   class="st98"
   d="M239.6,216.3c4.2-6.9,9.4-13.1,15.4-18.7c5.9,1.6,5.9,3.6,0,5.9c-0.5-0.2-1-0.5-1.4-0.9  c-3.9,5-7.7,10.2-11.3,15.5C241.4,217.5,240.5,216.9,239.6,216.3z"
   id="path330" />
<path
   class="st7"
   d="M232.4,66.6c9.5,4.6,18.8,9.5,28,14.6C250.4,77.5,241,72.6,232.4,66.6z"
   id="path332" />
<path
   class="st99"
   d="M260.4,81.2c6.1,2.6,12.1,5.5,18.1,8.7c3.5,1.3,7.1,2.3,10.8,3.2c0,0.6,0.3,0.9,0.9,0.9  c-10.4,2.6-21,5.2-31.6,7.8c-7.1,2.3-13.8,5.2-20.3,8.7c-0.6,2.1-0.6,4.3,0,6.4c3.9,10.5,9.8,19.6,17.6,27.4c-1.2,1.8-2.7,1.8-4.5,0  c1.4,0,1.8-0.6,1.4-1.8c-6.5-7-11.6-14.9-15.4-23.7c-1.3-3-1.4-6.1-0.5-9.1c3.1-1.4,6.1-3.1,9-5c13-4.3,26.3-8,39.8-11  C276.5,90.8,268.1,86.6,260.4,81.2z"
   id="path334" />
<path
   class="st100"
   d="M176.3,277.4c1.1-1.9,2.5-3.7,4.1-5.5c0-2.6,0.7-4.7,2.3-6.4c0.8-0.6,1.1-1.6,0.9-2.7c0.7,0.1,1.3,0,1.8-0.5  c29.7-32.6,59.8-64.7,90.4-96.3c0.6-0.3,1.2-0.6,1.8-0.9c11.2,8.5,22.8,16.4,34.8,23.7c12.3-6.5,24.2-13.5,35.7-21  c0.6,0,1.2,0,1.8,0c32.2,36.3,64.9,72.2,98.1,107.7c1.1,1.9,2.8,2.8,5,2.7c-1,0.7-2.2,1.2-3.6,1.4c0.7,0.6,1,1.4,0.9,2.3  c-33.2-36.4-66.6-72.7-100.3-109.1c-1.6-0.5-3.1-0.2-4.5,0.9c-6.1,3.4-11.8,7.2-17.2,11.4c-2.2,0.2-4,1.1-5.4,2.7  c-4,1.6-7.9,3.4-11.8,5.5c-10.5-6.2-20.5-13.4-29.8-21.5c-1.5-1.6-3.4-2.2-5.4-1.8c-30.7,31.9-60.9,64-90.9,96.3  c-0.3,2.1-0.6,4.3-0.9,6.4c-2.7,3.1-5,6.4-6.8,10C177.5,280.9,177.2,279.1,176.3,277.4z"
   id="path336" />
<path
   class="st65"
   d="M270.3,163.4c0.3-1.2,0.9-2.1,1.8-2.7c2.4,0.9,4.2,2.4,5.4,4.6c-0.6,0.3-1.2,0.6-1.8,0.9  C275.1,162.7,273.3,161.8,270.3,163.4z"
   id="path338" />
<path
   class="st101"
   d="M280.3,68.4c3.1-4.6,7.3-6.7,12.7-6.4C288.4,63.7,284.2,65.8,280.3,68.4z"
   id="path340" />
<path
   class="st102"
   d="M299.3,62c0-0.9,0-1.8,0-2.7c1.5,0,3,0,4.5,0C303.5,62.4,302,63.3,299.3,62z"
   id="path342" />
<path
   class="st55"
   d="M300.2,132.3c0-1.8,0-3.7,0-5.5c2.6-0.4,4.9,0.2,6.8,1.8c0.3-0.6,0.6-1.2,0.9-1.8c0.4,1.2,0.6,2.4,0.5,3.7  C305.4,130.3,302.7,130.9,300.2,132.3z"
   id="path344" />
<path
   class="st3"
   d="M304.7,62.9c0-1.2,0-2.4,0-3.7c2.4,0,4.8,0,7.2,0c-0.2,6.5-1,6.8-2.3,0.9c-1.6,1.1-2.5,2.6-2.7,4.6  C306.6,63.6,305.8,63,304.7,62.9z"
   id="path346" />
<path
   class="st99"
   d="M310.1,129.6c-0.8-0.6-1.1-1.6-0.9-2.7c0.9,0,1.8,0,2.7,0c0.2,3.6,0.6,3.6,1.4,0c1,0.8,2.2,1.7,3.6,2.7  c0.3-0.7,0.7-1.3,1.4-1.8c0.9,1.2,1.8,1.2,2.7,0c0.8,0.8,1.1,1.7,0.9,2.7c-4.1,0.5-7.8-0.1-11.3-1.8  C310.2,128.9,310.1,129.2,310.1,129.6z"
   id="path348" />
<path
   class="st103"
   d="M315.5,62.9c-0.1-4.7,1-5.3,3.2-1.8c0.2-1,0.7-1.9,1.4-2.7c1.2,2.6,0.6,4.7-1.8,6.4  C317.6,63.8,316.7,63.1,315.5,62.9z"
   id="path350" />
<path
   class="st78"
   d="M322.8,62c-0.8-0.6-1.1-1.6-0.9-2.7c0.9,0,1.8,0,2.7,0c0.1,2.8-0.4,3.1-1.4,0.9  C322.8,60.7,322.7,61.4,322.8,62z"
   id="path352" />
<path
   class="st54"
   d="M322.8,132.3c0.5-1.5,1.1-3.1,1.8-4.6c0.6,1.6,1.5,3,2.7,4.1C325.8,132.3,324.3,132.5,322.8,132.3z"
   id="path354" />
<path
   class="st104"
   d="M322.8,188c1.4-1.6,3.2-2.5,5.4-2.7C326.8,186.9,325,187.8,322.8,188z"
   id="path356" />
<path
   class="st105"
   d="M325.5,64.8c-0.3-2.2,0.3-2.8,1.8-1.8c1.6-4.6,2.4-4.3,2.3,0.9C328.3,64.7,327,65,325.5,64.8z"
   id="path358" />
<path
   class="st106"
   d="M330,84.9c1.2,0,2.4,0,3.6,0c3.4,0.2,6.4-0.7,9-2.7c32-13.1,60.6-31.8,85.9-56.1c2.5,0.9,4,2.9,4.5,5.9  c0.1,1,0,1.9-0.5,2.7c-1.5,1.4-2.9,2.9-4.1,4.6c-3.7,3.3-7.4,6.8-10.8,10.5c-9.6,5.6-18.6,11.8-27.1,18.7  c-16.7,9.5-34.2,17.3-52.4,23.3c-4.1,0.5-7.1-1.2-9-5C329.4,86.1,329.7,85.4,330,84.9z"
   id="path360" />
<path
   class="st53"
   d="M333.6,84.9c2.8-1.3,5.8-2.2,9-2.7C340.1,84.1,337,85,333.6,84.9z"
   id="path362" />
<path
   class="st48"
   d="M327.3,86.7c0.7-1,1.6-1.6,2.7-1.8c-0.3,0.6-0.6,1.2-0.9,1.8c1.9,3.9,4.9,5.5,9,5c18.3-6,35.7-13.8,52.4-23.3  c-4.6,3.4-9.4,6.6-14.5,9.6c-10.6,4.7-21.1,9.4-31.6,14.1c13.9,3.8,27.1,8.9,39.8,15.5c-0.6,0-0.9,0.3-0.9,0.9  c-12.1-5.8-24.8-10.5-38-14.1C337.4,96,331.3,93.4,327.3,86.7z"
   id="path364" />
<path
   class="st107"
   d="M357.1,73c-1.1,1.1-2.3,1.1-3.6,0c-1.1,0.8-2,1.7-2.7,2.7c-1.4-1.5-1.1-2.6,0.9-3.2c-3.9-5-9.1-8.2-15.4-9.6  c7.2-0.3,12.7,2.8,16.7,9.1c0.3-0.7,0.7-1.3,1.4-1.8C355,71.6,355.9,72.5,357.1,73z"
   id="path366" />
<path
   class="st108"
   d="M390.6,68.4c9.6-5.5,18.9-11.4,28-17.8c3.9-3.4,7.2-7.2,9.9-11.4c2.3-1.1,4.5-2.7,6.3-4.6  c2.3,11.3,2.1,22.6-0.5,33.8c-6,3.4-11.5,7.3-16.7,11.9c2.4,3.2,4.7,6.6,6.8,10c0.6,1.5,0.6,3,0,4.6c-5,7.6-10.4,14.9-16.3,21.9  c-11,10.6-22.6,20.4-34.8,29.2c6.3-9.3,11.5-19.7,15.8-31c0.4-1.8,0.6-3.6,0.5-5.5c-2-0.1-3.8-0.7-5.4-1.8  c-12.6-6.6-25.9-11.8-39.8-15.5c10.5-4.7,21.1-9.4,31.6-14.1C381.1,75,386,71.8,390.6,68.4z"
   id="path368" />
<path
   class="st109"
   d="M349.9,167.9c2.1-2.7,4.8-4.2,8.1-4.6c32.5,36.3,65.2,72.6,98.1,108.6c0.6,1.2,0.6,2.4,0,3.7  c-1.4,0.6-2.4,1.5-3.2,2.7c-2.2,0.1-3.8-0.8-5-2.7C414.8,240.2,382.1,204.3,349.9,167.9z"
   id="path370" />
<path
   class="st23"
   d="M348.1,167.9c2.7-2.9,5.7-5.3,9-7.3c0.1,1,0.4,1.9,0.9,2.7c-3.4,0.3-6.1,1.9-8.1,4.6  C349.3,167.9,348.7,167.9,348.1,167.9z"
   id="path372" />
<path
   class="st4"
   d="M370.7,146c7.2-8.7,12.7-18.4,16.7-29.2c2.5-4.6,1.2-7.4-4.1-8.2c0-0.6,0.3-0.9,0.9-0.9  c1.6,1.1,3.4,1.7,5.4,1.8c0.1,1.9,0,3.7-0.5,5.5c-4.3,11.4-9.5,21.7-15.8,31C372.3,148.3,371.4,148.3,370.7,146z"
   id="path374" />
<path
   class="st6"
   d="M396,229.1c0,0.9,0,1.8,0,2.7c-0.9,0-1.8,0-2.7,0c-1.4-0.5-2.7-1.1-4.1-1.8c-0.6-0.9-0.4-1.6,0.5-2.3  c-3.6-3-6.9-6.3-9.9-10c1.5-1.5,3.3-2.3,5.4-2.3c0.8,2.1,0.8,4,0,5.9C389.3,223.2,392.9,225.8,396,229.1z"
   id="path376" />
<path
   class="st6"
   d="M395.2,231.9c0,0.9,0,1.8,0,2.7c-0.9,0-1.8,0-2.7,0c-1.4-0.5-2.7-1.1-4.1-1.8c-0.6-0.9-0.4-1.6,0.5-2.3  c-3.6-3-6.9-6.3-9.9-10c1.5-1.5,3.3-2.3,5.4-2.3c0.8,2.1,0.8,4,0,5.9C388.5,226.1,392.1,228.6,395.2,231.9z"
   id="path378" />
<path
   class="st7"
   d="M390.6,68.4c8.5-6.9,17.5-13.1,27.1-18.7c3.5-3.7,7.1-7.2,10.8-10.5c-2.8,4.2-6.1,8-9.9,11.4  C409.5,57,400.2,63,390.6,68.4z"
   id="path380" />
<path
   class="st110"
   d="M393.3,231.8c0.9,0,1.8,0,2.7,0c0-0.9,0-1.8,0-2.7c1.1,2,2.6,3.9,4.5,5.5c-0.1,0.6-0.4,0.9-0.9,0.9  c-1-1.8-2.6-2.5-4.5-2.3c1,2,2.2,3.6,3.6,5c-0.1,0.5-0.4,0.8-0.9,0.9c-1.5-1.5-3-3-4.5-4.6C394.5,233.6,394.5,232.7,393.3,231.8z"
   id="path382" />
<path
   class="st26"
   d="M399.6,235.5c-0.1,1-0.4,1.9-0.9,2.7c-1.4-1.4-2.6-3.1-3.6-5C397.1,232.9,398.6,233.7,399.6,235.5z"
   id="path384" />
<path
   class="st37"
   d="M400.5,241.8c0.2-1.7,1.1-2.9,2.7-3.7c5.3,2.8,8.8,7,10.4,12.8c2.4,0.1,4.5,1.4,6.3,3.7  c-1.5,5.9-3.7,6.1-6.8,0.5c0.6-0.6,1.2-1.2,1.8-1.8c-2.2-1.8-4.4-3.4-6.8-5c-0.6-1-1.3-2-2.3-2.7c0.2-0.5,0.5-1,0.9-1.4  C404.7,243.4,402.6,242.6,400.5,241.8z"
   id="path386" />
<path
   class="st50"
   d="M428.5,39.2c1.2-1.6,2.5-3.2,4.1-4.6c0.4-0.9,0.6-1.8,0.5-2.7c0.8,0.7,1.4,1.6,1.8,2.7  C433,36.5,430.9,38.1,428.5,39.2z"
   id="path388" />
<path
   class="st111"
   d="M448.4,301.2c0.4,2.7-0.2,5.2-1.8,7.3c-4.2,2.7-8.4,5.5-12.7,8.2c0.8,1.4,1.9,2.6,3.2,3.7  c6.2-2.9,12.7-4.3,19.4-4.1c1.5,1.1,3,2.1,4.5,3.2c0.3,0.6,0.6,1.2,0.9,1.8c-2.8-1.7-5.8-2.9-9-3.7c-6.5,0.6-12.5,2.4-18.1,5.5  c-1-2.4-1.8-4.8-2.3-7.3c5.3-2.7,10.1-6,14.5-10C447.3,304,447.7,302.5,448.4,301.2z"
   id="path390" />
<path
   class="st75"
   d="M450.2,297.5c-0.9-1.3-1.2-2.8-0.9-4.6c1.7-3.6,2-7.2,0.9-11c1.2,0.3,2.1,0.9,2.7,1.8c0,1.2,0,2.4,0,3.7  C451.6,290.6,450.7,294,450.2,297.5z"
   id="path392" />
<path
   class="st112"
   d="M450.2,297.5c0.4-3.6,1.3-6.9,2.7-10c2.6-1,5.3-1.1,8.1-0.5c-2.6,0-4.8,0.8-6.8,2.3c-0.3-0.3-0.6-0.6-0.9-0.9  c-0.7,1.6-0.6,3.1,0.5,4.6c0.9-1.2,1.8-1.2,2.7,0c0.7-0.8,1.1-1.7,1.4-2.7c0.8,0.9,1.5,1.8,2.3,2.7c0.3-0.6,0.6-1.2,0.9-1.8  c1,1,1.9,1,2.7,0c-1.4-0.7-2.9-1.2-4.5-1.4c1.2-0.4,2.4-0.6,3.6-0.5c0-1.2,0-2.4,0-3.7c4.1-0.2,4.4,0.5,0.9,1.8  c0.6,2.7,1.4,3,2.3,0.9c0.9,0.8,2,1.1,3.2,0.9c0-4.3,2.1-5.7,6.3-4.1c-1.5,0.5-3,0.6-4.5,0.5c-0.3,1.9,0,3.7,0.9,5.5  c0.6-0.6,1.2-1.2,1.8-1.8c0.8,0.6,1.7,0.9,2.7,0.9c0.5,0.1,0.8,0.4,0.9,0.9c-4.4,1-8.8,1.9-13.1,2.7c-0.4-0.4-0.8-0.7-1.4-0.9  c-2.3,0.5-4.4,1.4-6.3,2.7c2.6,0.1,5.3,0.2,8.1,0.5c-0.7,0.3-1.3,0.7-1.8,1.4c1,0.8,1,1.6,0,2.3c0.6,0.7,1,1.4,1.4,2.3  c0.6-0.9,1.4-1,2.3-0.5c-1,1-2.2,1.6-3.6,1.8c3.7,1.8,3.4,2.5-0.9,2.3c0.2-1.1-0.1-2-0.9-2.7c-0.8,1.1-1.1,2.3-0.9,3.7  c-2.1,0.1-4.2,0-6.3-0.5c1.6-0.5,1.9-1.2,0.9-2.3c-4.3,3-6.1,1.8-5.4-3.7c0.9,0,1.8,0,2.7,0c0.1-1.3,0-2.5-0.5-3.7  c-0.3,0.6-0.6,1.2-0.9,1.8C450.3,298.2,450.2,297.9,450.2,297.5z"
   id="path394" />
<path
   class="st113"
   d="M462,321.3c2.6,0.5,4.7,1.7,6.3,3.7C465.8,324.4,463.7,323.2,462,321.3z"
   id="path396" />
<path
   class="st114"
   d="M476.5,289.3c-1.1-0.5-2.3-1-3.6-1.4c1.9-1.1,4-1.7,6.3-1.8c0.3-0.3,0.6-0.6,0.9-0.9  c-0.9-0.3-1.8-0.6-2.7-0.9c1.4-1,2.9-1.5,4.5-1.4c1,3,1.6,6,1.8,9.1c0.9,0,1.8,0,2.7,0c-0.2,1.5,0.1,2.9,0.9,4.1  c-3.5,0.6-6.8,1.5-9.9,2.7c1.2,0.4,2.4,0.6,3.6,0.5c0,0.9,0,1.8,0,2.7c1.2,0.2,2.3-0.1,3.2-0.9c0.3,1.2,0.6,2.4,0.9,3.7  c0.7-2.1,0.5-4-0.5-5.9c1.5-0.5,2.7,0,3.6,1.4c0.8-0.8,1.1-1.7,0.9-2.7c1.8-0.1,3.6,0,5.4,0.5c-0.4,0.4-0.7,0.8-0.9,1.4  c4.7,1.3,4.7,2.4,0,3.2c1.2,0.4,2.4,0.6,3.6,0.5c0.2,1.2-0.1,2.3-0.9,3.2c0.9,0.4,1.8,0.6,2.7,0.5c-1.3,0.9-2.8,1.2-4.5,0.9  c0.1,1,0,1.9-0.5,2.7c-1.9-1.5-4.2-2.3-6.8-2.3c1.7-1,3.5-1.5,5.4-1.4c0.3-1.6,0-3.2-0.9-4.6c-1.1,0.7-2.3,1-3.6,0.9  c0,0.9,0,1.8,0,2.7c-1.5,0-3,0-4.5,0c0.2-1.1-0.1-2-0.9-2.7c-0.4,1.6-0.8,3.1-0.9,4.6c1.1,0.7,2.3,1.2,3.6,1.4  c-0.5,0.5-0.9,0.9-1.4,1.4c-2.5-1.1-4.8-2.3-6.8-3.7c-0.4-2.5,0.5-4.4,2.7-5.5c-2.5-0.7-5-0.3-7.2,1.4c0.9,0.4,1.8,0.6,2.7,0.5  c0.3,1.8,0.6,3.7,0.9,5.5c-2.1-0.1-4.2,0-6.3,0.5c2.6,0.7,5.2,0.6,7.7-0.5c0.4,1.1,0,1.9-1.4,2.3c-2.5,0.2-4.9,0.7-7.2,1.4  c-2.2-0.8-4.2-0.2-5.9,1.8c-0.2-1.6-0.6-3.1-1.4-4.6c0,1.8,0,3.7,0,5.5c-3.7,2.8-4.3,2.3-1.8-1.4c-0.3-1.3-0.9-2.3-1.8-3.2  c0.3,1.2-0.2,2.4-1.4,3.7c-0.4-0.4-0.8-0.7-1.4-0.9c-1.2,1.3-2.7,1.9-4.5,1.8c0.5-2.9,2.3-4.2,5.4-4.1c-0.9-0.3-1.8-0.6-2.7-0.9  c3.4,0,6.7-0.7,9.9-2.3c2.1,0.3,2.1,1,0,2.3c1.3-0.3,2.5-0.1,3.6,0.5c0.7-1.8,1.2-3.6,1.4-5.5c1.6,2,3.3,2.1,5,0.5  c-0.9-0.4-1.8-0.6-2.7-0.5c0.5-3.7-0.4-4.3-2.7-1.8c-1-2.1-1.2-4.2-0.5-6.4c0.8,1.1,1.6,2.4,2.3,3.7c0.2-0.8,0.5-1.7,0.9-2.7  c2,2.2,2.9,1.6,2.7-1.8c-2.4,0.1-4.8,0-7.2-0.5c2.9-0.5,5.7-1,8.6-1.4c1.5,0.2,2.7,0.8,3.6,1.8c0.4-0.9,0.6-1.8,0.5-2.7  c1.1,0.2,2-0.1,2.7-0.9c-2-0.6-3.5-1.8-4.5-3.7C476.8,288.5,476.5,288.8,476.5,289.3z"
   id="path398" />
<path
   class="st74"
   d="M468.3,324.9c2.4,0.9,4.8,1.8,7.2,2.7c1.3,1.2,2.9,2.3,4.5,3.2c1.2,0.7,1.8,1.8,1.8,3.2  C477.5,330.8,473,327.7,468.3,324.9z"
   id="path400" />
<path
   class="st115"
   d="M453,287.5c0-1.2,0-2.4,0-3.7c-0.2-1.2,0.1-2.3,0.9-3.2c2.9-2.2,5.9-4.2,9-5.9c-0.4,0.9-1,1.6-1.8,2.3  c1,1.9,1.1,3.9,0.5,5.9c-1.5-4.6-2.3-4.6-2.3,0c-1.8,0.2-3.4-0.1-5-0.9c-0.6,1.2-0.6,2.4,0,3.7c3.4-0.8,6.9-1.5,10.4-2.3  c-0.7-1.6-1.3-3.3-1.8-5c0.3-0.3,0.6-0.6,0.9-0.9c0.8,0.8,1.1,1.7,0.9,2.7c2.4,0.1,4.9,0.4,7.2,0.9c0-0.9,0-1.8,0-2.7  c-2.1,0.1-4.2,0-6.3-0.5c1-0.9,0.7-1.5-0.9-1.8c3.3,0.3,6.6,0.3,9.9,0c1.3-2.1,3.1-3.1,5.4-2.7c-0.7,0.8-1.7,1.4-2.7,1.8  c0.6,0.3,1.2,0.6,1.8,0.9c-1.7,0.9-3.5,1.7-5.4,2.3c0.3,0.7,0.7,1.3,1.4,1.8c4.8-1.5,9.8-2.6,14.9-3.2c-0.9-0.4-1.8-0.6-2.7-0.5  c0.2-1.5-0.1-2.9-0.9-4.1c0.6-0.3,1.2-0.6,1.8-0.9c-1.7-0.2-3.2-0.6-4.5-1.4c1.1-0.8,2.1-1.7,3.2-2.7c1.2-3,2.9-5.8,5-8.2  c0.3,1.1,0.6,2.1,0.9,3.2c-0.6,3.3-1.2,6.7-1.8,10c1.2,3.1,2.1,6.3,2.7,9.6c0.1,0.7,0,1.3-0.5,1.8c-1.1-0.1-2.4-0.4-3.6-0.9  c-0.9,1.5-2.3,2.1-4.1,1.8c-0.3,1.9,0,3.7,0.9,5.5c2.5-1.2,4.9-2.4,7.2-3.7c-2-0.2-4.1-0.3-6.3-0.5c3-1.8,5.7-1.7,8.1,0.5  c0.9,5.4,2.4,10.5,4.5,15.5c0.3,1.7,0,3.3-0.9,4.6c-1,0.1-1.9,0-2.7-0.5c0.8-0.9,1.1-2,0.9-3.2c-1.2,0.1-2.4,0-3.6-0.5  c4.7-0.8,4.7-1.9,0-3.2c0.2-0.5,0.5-1,0.9-1.4c-1.8-0.5-3.6-0.6-5.4-0.5c0.2,1.1-0.1,2-0.9,2.7c-0.9-1.4-2.1-1.9-3.6-1.4  c1,1.9,1.1,3.9,0.5,5.9c-0.3-1.2-0.6-2.4-0.9-3.7c-0.9,0.8-2,1.1-3.2,0.9c0-0.9,0-1.8,0-2.7c-1.2,0.1-2.4,0-3.6-0.5  c3.2-1.2,6.5-2.1,9.9-2.7c-0.8-1.2-1.1-2.6-0.9-4.1c-0.9,0-1.8,0-2.7,0c-0.2-3.1-0.8-6.2-1.8-9.1c-1.6-0.1-3.1,0.3-4.5,1.4  c0.9,0.3,1.8,0.6,2.7,0.9c-0.3,0.3-0.6,0.6-0.9,0.9c-2.3,0.1-4.4,0.7-6.3,1.8c1.3,0.4,2.5,0.8,3.6,1.4c0,0.3,0,0.6,0,0.9  c-1,0-1.9-0.3-2.7-0.9c-0.6,0.6-1.2,1.2-1.8,1.8c-0.9-1.7-1.2-3.6-0.9-5.5c1.5,0.1,3,0,4.5-0.5c-4.2-1.6-6.4-0.2-6.3,4.1  c-1.2,0.2-2.3-0.1-3.2-0.9c-0.9,2.1-1.6,1.8-2.3-0.9c3.5-1.4,3.2-2-0.9-1.8c0,1.2,0,2.4,0,3.7c-1.2-0.1-2.4,0-3.6,0.5  c1.6,0.2,3.1,0.6,4.5,1.4c-0.8,1-1.7,1-2.7,0c-0.3,0.6-0.6,1.2-0.9,1.8c-0.8-0.9-1.5-1.8-2.3-2.7c-0.2,1-0.7,1.9-1.4,2.7  c-0.9-1.2-1.8-1.2-2.7,0c-1-1.4-1.2-3-0.5-4.6c0.3,0.3,0.6,0.6,0.9,0.9c2-1.5,4.2-2.2,6.8-2.3C458.3,286.4,455.6,286.5,453,287.5z"
   id="path402" />
<path
   class="st87"
   d="M448.4,301.2c-0.3-2.9,0-5.7,0.9-8.2c-0.3,1.7,0,3.3,0.9,4.6c-0.1,0.4,0.1,0.7,0.5,0.9  c0.3-0.6,0.6-1.2,0.9-1.8c0.4,1.2,0.6,2.4,0.5,3.7c-0.9,0-1.8,0-2.7,0c-0.7,5.4,1.1,6.6,5.4,3.7c1,1,0.7,1.8-0.9,2.3  c2.1,0.5,4.2,0.6,6.3,0.5c-0.2-1.3,0.1-2.6,0.9-3.7c0.8,0.8,1.1,1.7,0.9,2.7c4.3,0.3,4.6-0.5,0.9-2.3c1.4-0.3,2.6-0.9,3.6-1.8  c-0.9-0.6-1.6-0.4-2.3,0.5c-0.3-0.8-0.8-1.6-1.4-2.3c1-0.7,1-1.4,0-2.3c0.5-0.6,1.1-1.1,1.8-1.4c-2.9-0.2-5.6-0.4-8.1-0.5  c1.9-1.3,4-2.2,6.3-2.7c0.5,0.2,1,0.5,1.4,0.9c4.3-0.9,8.7-1.8,13.1-2.7c-0.1-0.6-0.4-0.9-0.9-0.9c0-0.3,0-0.6,0-0.9  c0.1-0.5,0.4-0.8,0.9-0.9c1,1.9,2.5,3.1,4.5,3.7c-0.7,0.8-1.6,1.1-2.7,0.9c0.1,1,0,1.9-0.5,2.7c-0.9-1.1-2.1-1.7-3.6-1.8  c-2.9,0.4-5.7,0.9-8.6,1.4c2.4,0.5,4.8,0.6,7.2,0.5c0.2,3.4-0.7,4-2.7,1.8c-0.5,1-0.8,1.9-0.9,2.7c-0.7-1.3-1.4-2.5-2.3-3.7  c-0.7,2.2-0.6,4.3,0.5,6.4c2.3-2.5,3.2-1.9,2.7,1.8c1-0.1,1.9,0,2.7,0.5c-1.7,1.7-3.4,1.5-5-0.5c-0.2,1.9-0.6,3.7-1.4,5.5  c-1.1-0.6-2.3-0.7-3.6-0.5c2.1-1.2,2.1-2,0-2.3c-3.3,1.6-6.6,2.3-9.9,2.3c0.9,0.3,1.8,0.6,2.7,0.9c-3.1-0.1-4.9,1.2-5.4,4.1  c1.8,0.1,3.3-0.5,4.5-1.8c0.5,0.2,1,0.5,1.4,0.9c1.2-1.2,1.6-2.4,1.4-3.7c1,0.9,1.6,1.9,1.8,3.2c-2.5,3.7-1.9,4.1,1.8,1.4  c0-1.8,0-3.7,0-5.5c0.7,1.4,1.2,3,1.4,4.6c1.7-2,3.6-2.6,5.9-1.8c2.4-0.7,4.8-1.1,7.2-1.4c1.3-0.4,1.8-1.1,1.4-2.3  c-2.5,1-5,1.2-7.7,0.5c2.1-0.5,4.2-0.6,6.3-0.5c-0.3-1.8-0.6-3.7-0.9-5.5c-1,0.1-1.9,0-2.7-0.5c2.3-1.6,4.7-2.1,7.2-1.4  c-2.2,1.1-3.1,2.9-2.7,5.5c2,1.4,4.3,2.6,6.8,3.7c0.5-0.5,0.9-0.9,1.4-1.4c-1.3-0.2-2.5-0.7-3.6-1.4c0.2-1.5,0.5-3,0.9-4.6  c0.8,0.8,1.1,1.7,0.9,2.7c1.5,0,3,0,4.5,0c0-0.9,0-1.8,0-2.7c1.3,0.1,2.5-0.2,3.6-0.9c0.9,1.4,1.2,2.9,0.9,4.6  c-1.9-0.1-3.8,0.3-5.4,1.4c2.6,0,4.9,0.8,6.8,2.3c0.4-0.9,0.6-1.8,0.5-2.7c1.7,0.3,3.2,0,4.5-0.9c0.9-1.3,1.2-2.8,0.9-4.6  c1.7,2.5,3.2,5.2,4.5,8.2c2.2,0.8,4,2,5.4,3.7c-2.3,0.3-4.4,0.3-6.3,0c-1.1,0.3-1.1,0.8,0,1.4c2.3,0.3,4.5,0.4,6.3,0.5  c-2.9,1.7-5.7,2-8.6,0.9c-0.7,1.2-1.8,2-3.2,2.3c1.8,0.3,3.6,0.6,5.4,0.9c-1.7,1-3.4,1.2-5,0.5c-0.6,0.9-0.4,1.6,0.5,2.3  c2.1,0,4.2-0.1,6.3-0.5c-0.8-4.8-0.2-4.8,1.8,0c-0.9,0.6-1.8,1.2-2.7,1.8c3.1,1.4,4,3.2,2.7,5.5c-0.7-1.1-1.2-2.3-1.4-3.7  c-0.9,0.7-1.3,1.6-1.4,2.7c0.2,3.2,1.1,6.1,2.7,8.7c-0.6,0.6-1.2,1.2-1.8,1.8c3.1,0.7,6.1,0.5,9-0.5c0.9,1.4,1.2,2.9,0.9,4.6  c-1.5-0.2-2.8,0.1-4.1,0.9c-0.6-0.9-0.4-1.6,0.5-2.3c-0.9-0.4-1.8-0.6-2.7-0.5c0,0.9,0,1.8,0,2.7c-0.9,0-1.8,0-2.7,0  c0.1,1,0,1.9-0.5,2.7c-1.1-1.2-2.4-2.2-4.1-2.7c1.1-0.7,2.3-1.2,3.6-1.4c-1.1-0.9-2.3-1.3-3.6-1.4c0.7-0.8,1.6-1.1,2.7-0.9  c0-1.5,0-3,0-4.6c-1.3,0.2-2.5-0.1-3.6-0.9c1.2-0.3,2.4-0.6,3.6-0.9c-2.4-0.7-4.8-1.2-7.2-1.4c4.5,0.5,6.6-1.5,6.3-5.9  c-2.5-0.2-5,0.2-7.2,1.4c0.2,2.1,0.2,4.4,0,6.8c2,0.6,3.9,1.6,5.4,3.2c-2.2,0.6-3.9-0.1-5-2.3c-0.7,4.8-1.2,4.8-1.4,0  c-0.5-1.8-1.1-3.7-1.8-5.5c-1,1-1.9,1-2.7,0c1.4-0.7,2.9-1.2,4.5-1.4c-1.8-0.3-3.6-0.6-5.4-0.9c3.3-0.8,4.1-2.4,2.3-5  c-0.6,1.3-1.7,2-3.2,1.8c-1.5-0.3-2.4-1.2-2.7-2.7c2.3-1.2,4.7-1.8,7.2-1.8c0.4-1.7,1-3.4,1.8-5c-0.3-0.8-0.6-1.5-0.9-2.3  c-1.1,0.7-1.1,1.5,0,2.3c-1,0.7-1.9,0.5-2.7-0.5c0.6-1.8,0.3-3.6-0.9-5.5c-1.1,1.1-2.2,1.1-3.2,0c-0.4,1.8-0.6,3.6-0.5,5.5  c1.1-0.2,2,0.1,2.7,0.9c-3.6,1-5.1-0.5-4.5-4.6c-4.2,0.2-8.5,0.5-12.7,0.9c0.2,1.3-0.1,2.6-0.9,3.7c-1.7-0.4-3.5-0.4-5.4,0  c0.2,1.3-0.1,2.6-0.9,3.7c-0.9-2.3-1.7-2.3-2.3,0c-1-2.4-1.7-2.4-2.3,0c-1.5-1.1-3-2.1-4.5-3.2c-6.8-0.2-13.2,1.2-19.4,4.1  c-1.3-1-2.3-2.2-3.2-3.7c4.2-2.7,8.4-5.5,12.7-8.2C448.2,306.3,448.8,303.9,448.4,301.2z"
   id="path404" />
<path
   class="st116"
   d="M462.9,274.7c1.5,0,3,0,4.5,0c5.4-1.5,10.9-3,16.3-4.6c1.3,0.7,2.8,1.2,4.5,1.4c-0.6,0.3-1.2,0.6-1.8,0.9  c0.8,1.2,1.1,2.6,0.9,4.1c1-0.1,1.9,0,2.7,0.5c-5.1,0.6-10.1,1.7-14.9,3.2c-0.6-0.5-1.1-1.1-1.4-1.8c1.9-0.6,3.7-1.4,5.4-2.3  c-0.6-0.3-1.2-0.6-1.8-0.9c1.1-0.4,2-1,2.7-1.8c-2.3-0.3-4.2,0.6-5.4,2.7c-3.3,0.3-6.7,0.3-9.9,0c1.6,0.3,1.9,0.9,0.9,1.8  c2.1,0.5,4.2,0.6,6.3,0.5c0,0.9,0,1.8,0,2.7c-2.4-0.5-4.8-0.8-7.2-0.9c0.2-1.1-0.1-2-0.9-2.7c-0.3,0.3-0.6,0.6-0.9,0.9  c0.5,1.7,1.1,3.4,1.8,5c-3.5,0.8-7,1.5-10.4,2.3c-0.6-1.2-0.6-2.4,0-3.7c1.5,0.8,3.2,1.1,5,0.9c0-4.6,0.8-4.6,2.3,0  c0.7-2.1,0.5-4-0.5-5.9C461.9,276.3,462.5,275.6,462.9,274.7z"
   id="path406" />
<path
   class="st3"
   d="M481.9,334c1.6,1.4,2.2,3.2,1.8,5.5c0.6,4.6,1.2,9.1,1.8,13.7c0.2,0.9-0.1,1.5-0.9,1.8  C482.4,348.3,481.5,341.3,481.9,334z"
   id="path408" />
<path
   class="st20"
   d="M485.5,356.9c-0.1-0.4,0.1-0.7,0.5-0.9c0.2,1.1,0.7,2,1.4,2.7c1.4,8.3,2.9,16.5,4.5,24.6  c0.2,2.5-0.1,5-0.9,7.3c-2.7,2.2-5.2,4.7-7.7,7.3c-0.6,2.7-0.6,5.5,0,8.2c1,0.6,2,1.1,3.2,1.4c-0.9,0.4-1.8,0.6-2.7,0.5  c-1.2-1.6-1.8-3.6-1.8-5.9c0.6-5.3,3.3-9.5,8.1-12.3c0.5-1.2,0.8-2.4,0.9-3.7C489.1,376.3,487.3,366.6,485.5,356.9z"
   id="path410" />
<path
   class="st117"
   d="M493.6,282c0.8-1,1.1-2.2,0.9-3.7c0.9,2.6,1.5,5.3,1.8,8.2c-0.3,0-0.6,0-0.9,0c-2.5-2.1-5.2-2.3-8.1-0.5  c2.3,0.1,4.4,0.3,6.3,0.5c-2.3,1.2-4.7,2.4-7.2,3.7c-0.9-1.7-1.2-3.6-0.9-5.5c1.8,0.2,3.1-0.4,4.1-1.8c1.3,0.5,2.5,0.8,3.6,0.9  C493.6,283.3,493.8,282.7,493.6,282z"
   id="path412" />
<path
   class="st117"
   d="M493.6,282c0.8-1,1.1-2.2,0.9-3.7c0.9,2.6,1.5,5.3,1.8,8.2c-0.3,0-0.6,0-0.9,0c-2.5-2.1-5.2-2.3-8.1-0.5  c2.3,0.1,4.4,0.3,6.3,0.5c-2.3,1.2-4.7,2.4-7.2,3.7c-0.9-1.7-1.2-3.6-0.9-5.5c1.8,0.2,3.1-0.4,4.1-1.8c1.3,0.5,2.5,0.8,3.6,0.9  C493.6,283.3,493.8,282.7,493.6,282z"
   id="path414" />
<path
   class="st118"
   d="M464.7,273.8c6.8-1.1,13.4-3.1,19.9-5.9c2.1-3.2,3.6-6.7,4.5-10.5c2.1,0.2,4.1,0.8,5.9,1.8  c0,4.4-0.7,8.6-2.3,12.8c0.3,2.2,1,4.4,1.8,6.4c0.2,1.5-0.1,2.7-0.9,3.7c-0.6-3.3-1.5-6.5-2.7-9.6c0.6-3.3,1.2-6.7,1.8-10  c-0.3-1.1-0.6-2.1-0.9-3.2c-2.1,2.4-3.8,5.2-5,8.2c-1,1-2.1,1.9-3.2,2.7c-5.4,1.5-10.8,3-16.3,4.6  C466.8,273.9,465.9,273.6,464.7,273.8z"
   id="path416" />
<path
   class="st90"
   d="M487.3,408.9c2.9-1.1,5.6-2.6,8.1-4.6C493.8,407.8,491.1,409.3,487.3,408.9z"
   id="path418" />
<path
   class="st119"
   d="M475.6,327.7c1.5-0.2,2.8,0.1,4.1,0.9c2.2-2.3,4.8-2.9,7.7-1.8c-0.3,1.1-0.8,1.1-1.4,0  c-0.6,0.9-0.6,1.8,0,2.7c0.9-0.8,2-1.1,3.2-0.9c0-1.2,0-2.4,0-3.7c1.5,0.1,2.5-0.5,3.2-1.8c1.8,2.6,1,4.2-2.3,5  c1.8,0.3,3.6,0.6,5.4,0.9c-1.6,0.2-3.1,0.6-4.5,1.4c0.8,1,1.7,1,2.7,0c0.7,1.8,1.3,3.6,1.8,5.5c-1.5-0.1-3,0-4.5,0.5  c1.2,1.2,1,2.2-0.5,3.2c-0.4-3.4-1.1-6.8-2.3-10c-6.3,1.2-6.6,2.3-0.9,3.2c-2.3,1.4-2,2.1,0.9,2.3c0.1,1,0,1.9-0.5,2.7  c-0.6-1.1-1-1.1-1.4,0c0.5,0.6,1.1,1.1,1.8,1.4c-1.5,0.5-3,0.6-4.5,0.5c0.4-2.3-0.2-4.1-1.8-5.5c0-1.4-0.6-2.4-1.8-3.2  C478.4,329.9,476.9,328.8,475.6,327.7z"
   id="path420" />
<path
   class="st120"
   d="M487.3,358.7c0.6-0.8,1.5-1.1,2.7-0.9c0-0.9,0-1.8,0-2.7c1.8-0.1,3.6,0,5.4,0.5c-1.2,1.2-1.2,2.4,0,3.7  c-2.2,0.7-2,1.5,0.5,2.3c0.1-3,0.8-5.7,2.3-8.2c-0.2-0.5-0.5-1-0.9-1.4c1.2-0.6,2.4-0.6,3.6,0c-1.2,1.2-1,2.2,0.5,3.2  c1.1-2.5,1.9-2.3,2.3,0.5c-0.4,2.8-1.1,2.9-2.3,0.5c-0.2,0.8-0.3,1.5-0.5,2.3c0.7,1.9,1,3.7,0.9,5.5c-2.3-0.3-4.9-0.8-7.7-1.4  c-1.7,0.3-3.3,0.6-5,0.9c2,0.9,4.1,1.2,6.3,0.9c0,2.7,0,5.5,0,8.2c1.5-0.1,3,0,4.5,0.5c0,1.9-0.3,3.8-0.9,5.9  c-0.5-1.4-0.8-3.3-0.9-5.5c-1.2,0-2.4,0-3.6,0c0-1.5,0-3,0-4.6c-4.2-0.1-4.5-1-0.9-2.7c-1.1-0.8-2.3-1.2-3.6-0.9c0,1.5,0,3,0,4.6  c0.9,0,1.8,0,2.7,0c0,1.8,0,3.7,0,5.5c1.5,0,3,0,4.5,0c0,1.5,0,3,0,4.6c-0.9,0-1.8,0-2.7,0c0,1.2,0,2.4,0,3.7c-0.9,0-1.8,0-2.7,0  C490.2,375.2,488.7,367,487.3,358.7z"
   id="path422" />
<path
   class="st121"
   d="M495.4,286.6c0.3,0,0.6,0,0.9,0c1.9,7.7,4.7,15,8.6,21.9c3.4,2.3,6.9,4.4,10.4,6.4c-0.9,0-1.8,0-2.7,0  c-0.6-0.8-1.5-1.1-2.7-0.9c-1.4-1.7-3.3-2.9-5.4-3.7c-1.3-3-2.8-5.7-4.5-8.2C497.9,297.1,496.4,291.9,495.4,286.6z"
   id="path424" />
<path
   class="st122"
   d="M495.4,335.9c0.2,4.8,0.6,4.8,1.4,0c1.1,2.1,2.7,2.9,5,2.3c-1.6-1.5-3.4-2.6-5.4-3.2c0.2-2.5,0.2-4.8,0-6.8  c2.3-1.1,4.7-1.6,7.2-1.4c0.3,4.4-1.8,6.4-6.3,5.9c2.5,0.2,4.9,0.6,7.2,1.4c-1.2,0.3-2.4,0.6-3.6,0.9c1.1,0.8,2.3,1.2,3.6,0.9  c0,1.5,0,3,0,4.6c-1.1-0.2-2,0.1-2.7,0.9c1.3,0,2.6,0.5,3.6,1.4c-1.3,0.2-2.5,0.7-3.6,1.4c1.6,0.6,3,1.5,4.1,2.7  c0.4-0.9,0.6-1.8,0.5-2.7c0.9,0,1.8,0,2.7,0c0-0.9,0-1.8,0-2.7c1-0.1,1.9,0,2.7,0.5c-0.9,0.7-1,1.4-0.5,2.3c1.2-0.8,2.6-1.1,4.1-0.9  c0.3-1.6,0-3.2-0.9-4.6c-3,1-6,1.1-9,0.5c0.6-0.6,1.2-1.2,1.8-1.8c-1.6-2.6-2.5-5.5-2.7-8.7c0.1-1.1,0.5-2,1.4-2.7  c0.2,1.3,0.6,2.5,1.4,3.7c1.3-2.2,0.4-4.1-2.7-5.5c0.9-0.6,1.8-1.2,2.7-1.8c-2-4.8-2.6-4.8-1.8,0c-2.1,0.3-4.3,0.5-6.3,0.5  c-0.9-0.7-1-1.4-0.5-2.3c1.6,0.7,3.3,0.6,5-0.5c-1.8-0.3-3.6-0.6-5.4-0.9c1.4-0.3,2.5-1.1,3.2-2.3c2.9,1.1,5.7,0.8,8.6-0.9  c-1.9,0-4-0.2-6.3-0.5c-1.1-0.6-1.1-1.1,0-1.4c1.9,0.3,4.1,0.3,6.3,0c1.2-0.2,2.1,0.1,2.7,0.9c-1.7-0.1-2,0.4-0.9,1.4  c-0.9,1.4-2.1,2.4-3.6,3.2c0.8,0.7,1.7,1.1,2.7,1.4c-3,0.7-3.4,2.4-1.4,5c0.2-1.6,0.9-2.8,2.3-3.7c2,0.5,4.1,0.5,6.3,0  c0,1.8,0,3.7,0,5.5c2.4-0.9,4.9-0.9,7.2,0c-3.6,1.1-7.2,1.5-10.8,1.4c2.7-0.4,3.2-1.5,1.4-3.2c-1.9,1.4-3.8,1.7-5.9,0.9  c-0.3,0.3-0.6,0.6-0.9,0.9c1.4,0.7,2.9,1.2,4.5,1.4c-2.4,0.9-4.8,1.6-7.2,2.3c1.4,0.7,2.9,1.2,4.5,1.4c-1.1,0.6-1.1,1.1,0,1.4  c0.8-0.8,1.1-1.7,0.9-2.7c1.8-0.1,3.6,0,5.4,0.5c-1.1,0.6-1.1,1.1,0,1.4c0.8-0.8,1.1-1.7,0.9-2.7c2.5,0.2,4.9-0.1,7.2-0.9  c0.7,1.1,0.7,2.3,0,3.7c0.3,1.5,1.2,2.4,2.7,2.7c4.3-0.6,8.8-1.4,13.6-2.3c-2.2-0.2-4.3-0.6-6.3-1.4c0.6-1.8,0.3-3.6-0.9-5.5  c-3.5,0.9-3.5,2,0,3.2c-0.6,0.3-1.2,0.6-1.8,0.9c1.3,0.6,1.9,1.7,1.8,3.2c-2.8,0.3-5.5,0-8.1-0.9c1.2-1.8,1.2-3.7,0-5.5  c0.3-0.3,0.6-0.6,0.9-0.9c1.4,3.5,2,3.2,1.8-0.9c2.7,0,5.4,0,8.1,0c4.3,2.1,8.8,3.6,13.6,4.6c-2.2,1.1-4.6,2-7.2,2.7  c1.7,0.2,3.5,0.4,5.4,0.5c-2.6,1.2-5.3,1.6-8.1,1.4c-0.3,1.6,0,3.2,0.9,4.6c0.6-0.5,1.1-1.1,1.4-1.8c2.1,2.4,4.2,2.4,6.3,0  c0.4,0.9,0.6,1.8,0.5,2.7c-2.6-0.4-4.8,0.2-6.8,1.8c-1.2-0.8-2.6-1.1-4.1-0.9c0-1.8,0-3.7,0-5.5c-3.7,0-7.3,0.6-10.8,1.8  c-0.6-0.3-1.2-0.6-1.8-0.9c-3.1,0.5-6.2,1.4-9,2.7c1,0.8,1,1.6,0,2.3c1.5,0.6,3,0.6,4.5,0c-2.8-0.3-3.1-0.9-0.9-1.8  c1.8-0.6,3.6-0.6,5.4,0c-4.5,0.5-4.5,1.6,0,3.2c1,1.3,1,2.5,0,3.7c-1-1-1.9-1-2.7,0c1.1,0.8,2.3,1.2,3.6,0.9c-0.2,1.1,0.1,2,0.9,2.7  c1-2.9,2.8-3.8,5.4-2.7c-4.1,0.6-4.4,1.6-0.9,3.2c-2.8,0.4-5.5,1.1-8.1,2.3c0.8,1.6,0,2.5-2.3,2.7c-0.5-0.3-0.9-0.6-1.4-0.9  c2.8-0.6,3.1-1.5,0.9-2.7c-2.2,0.5-2.8,1.5-1.8,3.2c-4.7,1-4.7,1.8,0,2.3c2.7-0.1,5.3-0.7,7.7-1.8c0.2,1.3,0.6,2.5,1.4,3.7  c0.6-0.5,1.1-1.1,1.4-1.8c-0.2,3,1.1,4.7,4.1,5c-1.5,0.5-3,0.6-4.5,0.5c-1.6-1.2-2.8-3-3.6-5.5c-0.9,1.4-1.2,2.9-0.9,4.6  c-1.5,0-3,0-4.5,0c-0.1-1.5,0.5-2.5,1.8-3.2c-2.1-0.5-4.2-0.6-6.3-0.5c0,1.5,0,3,0,4.6c-3.6,0.2-3.6,0.6,0,1.4c-1.5,0.6-3,0.6-4.5,0  c0.8-0.8,0.8-1.7,0-2.7c0.4-0.9,1-1.5,1.8-1.8c-2.2-0.7-2-1.5,0.5-2.3c0.6-0.9,0.4-1.6-0.5-2.3c3.9-0.4,4.2-1,0.9-1.8  c2.5-1.6,5.2-2.7,8.1-3.2c-1.1-0.7-2.3-1.2-3.6-1.4c1-0.2,1.9-0.7,2.7-1.4c-0.8-0.2-1.7-0.5-2.7-0.9c2-1,4.2-2,6.3-2.7  c-0.2-0.3-0.3-0.6-0.5-0.9c-1.8,0.6-3.6,1.2-5.4,1.8c-1-1-1.8-0.7-2.3,0.9c1.2,1.4,0.7,2-1.4,1.8c-2,0.1-3.2-0.8-3.6-2.7  c-1,1.1-2.1,1.1-3.2,0c-0.3,0.5-0.6,0.9-0.9,1.4c0.8,1,1.7,1.5,2.7,1.4c-2.1,0.7-4.2,1.3-6.3,1.8c-0.8-1.1-1.1-2.3-0.9-3.7  c-3.9,0.5-4.2,1.1-0.9,1.8c0.1,1.6,0,3.1-0.5,4.6c-0.4-0.9-0.6-1.8-0.5-2.7c-1.2,0-2.4,0-3.6,0c0-1.5,0-3,0-4.6c1,0.1,1.9,0,2.7-0.5  c-0.8-0.9-1.1-2-0.9-3.2c-1.6-0.3-3.1,0-4.5,0.9c0.8,0.7,1.7,1.1,2.7,1.4c-1.1,0.8-2.1,1.9-2.7,3.2c-7,2.4-6.7,3,0.9,1.8  c-0.4,4-1.2,4.3-2.3,0.9c-0.4,1.2-0.6,2.4-0.5,3.7c-2.4-0.3-4.5,0.3-6.3,1.8c-0.6-0.7-1.2-1.3-1.8-1.8c-0.6-4.6-1.2-9.1-1.8-13.7  c1.5,0.1,3,0,4.5-0.5c-0.7-0.3-1.3-0.7-1.8-1.4c0.3-1.1,0.8-1.1,1.4,0c0.4-0.9,0.6-1.8,0.5-2.7c-2.9-0.1-3.2-0.9-0.9-2.3  c-5.6-0.9-5.3-2,0.9-3.2c1.1,3.3,1.9,6.6,2.3,10c1.5-0.9,1.6-2,0.5-3.2C492.4,335.9,493.9,335.7,495.4,335.9z"
   id="path426" />
<path
   class="st94"
   d="M510.8,70.2c1.8-1.1,3.6-1.8,5.4-2.3c6.2,7.9,12.8,15.4,19.9,22.4c0.5,2.1,1.7,3.6,3.6,4.6  c0.8,2.4,2.3,4.2,4.5,5.5c1.5,2.4,3,4.9,4.5,7.3c-5.4,0-10.8,0-16.3,0c-3.4-0.9-7-1.2-10.8-0.9c-3.3,0.2-6.6,0-9.9-0.5  C503.6,94.5,503.3,82.5,510.8,70.2z"
   id="path428" />
<path
   class="st59"
   d="M510.8,70.2c-7.5,12.2-7.2,24.2,0.9,36.1c3.3,0.5,6.6,0.6,9.9,0.5c0,0.3,0,0.6,0,0.9c-2.7-0.2-5.4,0-8.1,0.5  c1.6,0.6,2.9,1.7,3.6,3.2c-2.4-1.2-4.8-2.5-7.2-3.7c-1.6-3.9-3.3-7.9-5-11.9C502.4,86.1,504.3,77.6,510.8,70.2z"
   id="path430" />
<path
   class="st123"
   d="M521.7,107.7c3.5,0.8,7.1,1.2,10.8,0.9c4.8,0.3,9.6,0.6,14.5,0.9c2.3-0.3,2.9,0.3,1.8,1.8  c-8.6,4.9-17.6,5.8-27.1,2.7c-0.9-1.7-2.4-2.7-4.5-2.7c-0.8-1.5-2-2.6-3.6-3.2C516.2,107.7,518.9,107.5,521.7,107.7z"
   id="path432" />
<path
   class="st94"
   d="M517.1,64.8c9.8-4.5,19.8-4.8,29.8-0.9c2.3,1.7,4.1,3.9,5.4,6.4c-0.8,4.8-1.1,9.7-0.9,14.6  c-0.9,1.6-1.2,3.4-0.9,5.5c-0.1,3.7-0.4,7.3-0.9,11c0.1,1.3,0,2.5-0.5,3.7c-1.5-1.7-3.2-3.2-5-4.6c-0.8-2.4-2.3-4.2-4.5-5.5  c-0.5-2.1-1.7-3.6-3.6-4.6c-6-7.7-12.1-15.3-18.5-22.8C517.2,66.6,517,65.7,517.1,64.8z"
   id="path434" />
<path
   class="st101"
   d="M517.1,111.3c2.1,0.1,3.6,1,4.5,2.7C519.7,113.8,518.2,112.9,517.1,111.3z"
   id="path436" />
<path
   class="st91"
   d="M510.8,70.2c1.6-2.5,3.7-4.3,6.3-5.5c-0.1,1,0,1.9,0.5,2.7c6.4,7.5,12.6,15.1,18.5,22.8  c-7.1-7-13.7-14.5-19.9-22.4C514.4,68.4,512.6,69.2,510.8,70.2z"
   id="path438" />
<path
   class="st11"
   d="M515.3,314.9c5.3,1.2,10.1,3.3,14.5,6.4c-3-0.9-6-1-9-0.5c0.7-0.3,1.3-0.7,1.8-1.4  C520.1,317.9,517.7,316.4,515.3,314.9z"
   id="path440" />
<path
   class="st86"
   d="M521.7,107.7c0-0.3,0-0.6,0-0.9c3.8-0.3,7.4,0,10.8,0.9c0,0.3,0,0.6,0,0.9  C528.8,108.8,525.2,108.5,521.7,107.7z"
   id="path442" />
<path
   class="st124"
   d="M517.1,64.8c2.5-2.4,5.6-4,9-5c5.5-0.7,10.9-0.4,16.3,0.9c1.9,0.6,3.4,1.7,4.5,3.2  C536.9,60,526.9,60.3,517.1,64.8z"
   id="path444" />
<path
   class="st99"
   d="M521.7,114.1c9.5,3.1,18.5,2.2,27.1-2.7c0.3,0,0.6,0,0.9,0c-2.5,2.4-5.6,4-9,5c-4.8,0.6-9.6,0.6-14.5,0  C524.4,116,522.9,115.2,521.7,114.1z"
   id="path446" />
<path
   class="st85"
   d="M495.4,404.3c1.5-3.2,4.1-4.7,7.7-4.6c10.1,2.2,20.2,4.3,30.3,6.4c0.3,0.9,0.9,1.5,1.8,1.8c1,3.3,2,6.7,3.2,10  c9.3,5.1,11.9,2.6,7.7-7.3c0.3-0.6,0.6-1.2,0.9-1.8c0.2-1.2-0.1-2.1-0.9-2.7c-0.2-2.3-0.8-4.5-1.8-6.4c0-0.6,0-1.2,0-1.8  c2.6-1.1,4.8-3,6.3-5.5c0.6,0,1.2,0,1.8,0c-2.1,2.4-4.2,4.9-6.3,7.3c1.2,5.5,2.4,10.9,3.6,16.4c-0.2,2.3-0.8,4.4-1.8,6.4  c-3.2-1.3-6.5-2.2-9.9-2.7c-1.6-4.3-3.4-8.4-5.4-12.3c-10-2.2-19.9-4.5-29.8-6.8C500.2,401.9,497.8,403.1,495.4,404.3z"
   id="path448" />
<path
   class="st71"
   d="M490.9,390.6c1,1.3,1.9,1.1,2.7-0.5c-0.8-1.9-1.1-3.8-0.9-5.9c2.5,0.3,4.8-0.4,6.8-1.8  c0.7,1.6,1.4,3.1,2.3,4.6c0.6-2.1,1.2-4.3,1.8-6.4c1.7-0.8,3.5-1.1,5.4-0.9c-0.2,1.1,0.1,2,0.9,2.7c0.3-0.5,0.6-0.9,0.9-1.4  c-0.6-1.5-0.6-3.2,0-5c1.9,0.3,3.7,0,5.4-0.9c-2-0.7-4.1-1-6.3-0.9c1.3-0.7,2.5-1.4,3.6-2.3c-1.2-0.6-2.2-0.5-3.2,0.5  c-0.2-2.6,0.9-3.2,3.2-1.8c1.6,3.6,2.7,3.3,3.2-0.9c0.3,2.2,0.7,4.3,1.4,6.4c-1.9,1.3-4,1.9-6.3,1.8c-0.3,2,0.3,3.5,1.8,4.6  c0.6-1.7,1.5-2,2.7-0.9c0.7-0.8,1.1-1.7,1.4-2.7c0.6,1.8,0.6,3.7,0,5.5c-0.3-0.6-0.6-1.2-0.9-1.8c-0.4,1.2-0.6,2.4-0.5,3.7  c-1.8,0.1-3.6,0-5.4-0.5c1.3-0.2,2.5-0.7,3.6-1.4c-0.2-0.3-0.3-0.6-0.5-0.9c-1.6,0.2-3.3,0.5-5,0.9c-0.7-1.1-1.2-2.3-1.4-3.7  c-1.2,1-1.5,2.2-0.9,3.7c-0.9,0.8-2,1.1-3.2,0.9c0,0.9,0,1.8,0,2.7c-1.1-0.2-2,0.1-2.7,0.9c1.2,0.6,2.4,1.2,3.6,1.8  c-1.2,0.7-1.6,1.6-1.4,2.7c0.7-1,1.4-1,2.3,0c0.4-2.3,0.4-4.8,0-7.3c1.5-0.1,3,0,4.5,0.5c-3.5,0.9-3.5,1.9,0,3.2  c-0.9,0.8-0.9,1.4,0,1.8c1.2-0.9,2.1-2.1,2.7-3.7c0.9,3,1.9,6.1,2.7,9.1c0.5-0.2,1-0.5,1.4-0.9c0.2,1.3,0.6,2.5,1.4,3.7  c0.9-0.4,0.9-1,0-1.8c0.9-0.6,1.8-1.2,2.7-1.8c-1.7-0.9-3.5-1.2-5.4-0.9c0.2-2.4-0.1-4.7-0.9-6.8c1.4-1.2,2.9-1.1,4.5,0.5  c-0.7,1.1-1.5,1.1-2.3,0c-0.7,1.9-0.6,3.7,0.5,5.5c0.6-4.2,1.6-4.5,3.2-0.9c0.5-0.5,0.9-0.9,1.4-1.4c-0.6-2.2-1.3-4.5-1.8-6.8  c0.9-0.3,1.8-0.6,2.7-0.9c1.6,0.6,3.1,1.1,4.5,1.4c-1-1.9-1.1-3.9-0.5-5.9c0.2,2.1,0.9,4.2,1.8,6.4c0.4-2.4,0.6-4.8,0.5-7.3  c-1.5,0-3,0-4.5,0c-0.2,3.3-2,4.5-5.4,3.7c0-0.9,0-1.8,0-2.7c1.2,0.1,2.4,0,3.6-0.5c-0.3-0.3-0.6-0.6-0.9-0.9c2-0.1,3.6-0.9,5-2.3  c0.3,0.7,0.7,1.3,1.4,1.8c1-0.8,1-1.7,0-2.7c1.4-1,2.9-1.2,4.5-0.5c-1.1,1.2-1.7,2.8-1.8,4.6c0.4,2,0.4,3.8,0,5.5  c1.5,0.5,3,0.6,4.5,0.5c-0.2-2.5-0.2-4.8,0-6.8c-0.6-0.6-1.2-1.2-1.8-1.8c1.8-0.7,3.8-1.2,5.9-1.4c0.9-0.4,1.5-1,1.8-1.8  c0.3,0.6,0.6,1.2,0.9,1.8c2.1-3.6,3-3.6,2.7,0c0.9-0.6,1.8-1.2,2.7-1.8c3.1,1.1,5.8,0.5,8.1-1.8c2.2,2.6,2.9,2.5,2.3-0.5  c1.6-0.4,3.1-1,4.5-1.8c-3.1-0.7-6.1-0.4-9,0.9c1,1.7,0.4,2.4-1.8,2.3c-0.2-1.5,0.1-2.9,0.9-4.1c-2.1-1.8-2.7-1.5-1.8,0.9  c-2.7,1.2-5.4,1.3-8.1,0.5c1.4,0.1,2.9-0.2,4.5-0.9c1.3-0.2,1.7-0.8,1.4-1.8c-3.6,0.5-7,1.4-10.4,2.7c2.5,4.5,1,5.8-4.5,4.1  c1.3-0.2,2.5-0.7,3.6-1.4c-0.8-0.3-1.5-0.6-2.3-0.9c-5.2,1.1-10.5,1.7-15.8,1.8c-0.3-1.6,0-3.2,0.9-4.6c1.9,0.6,3.9,0.2,5.9-0.9  c0.4,0.9,0.6,1.8,0.5,2.7c-1-0.1-1.9,0-2.7,0.5c1.5,0.5,3,0.6,4.5,0.5c0.1-5.2,0.4-5.5,0.9-0.9c2.9,0.4,5.6-0.1,8.1-1.4  c-1.7-0.5-3.4-0.4-5,0.5c-2-1.1-2.5-2.6-1.4-4.6c1.2,2.4,2.4,2.4,3.6,0c0.6,0.9,1.2,1.8,1.8,2.7c0.7-1.7,1.6-3.2,2.7-4.6  c-0.7-0.8-1.6-1.1-2.7-0.9c0.2-2.1-0.1-4.1-0.9-5.9c0.9-0.4,1.8-0.6,2.7-0.5c0-0.9,0-1.8,0-2.7c-3.4-0.1-3.4-0.7,0-1.8  c-0.2-0.5-0.5-1-0.9-1.4c4.6-1.3,4.3-2.1-0.9-2.3c0,1.2,0,2.4,0,3.7c-1,0.1-1.9,0-2.7-0.5c0.8-1.2,1.1-2.6,0.9-4.1  c2.7-0.8,5.4-0.9,8.1-0.5c-0.9,2-1.7,4-2.3,5.9c1.9-1,3.8-1.1,5.9-0.5c-2.3,0.3-4.4,1.1-6.3,2.3c1.1,0.7,2.3,1.2,3.6,1.4  c-1.7,0.2-3.5,0.8-5.4,1.8c-1.1,1.4-1.1,2.7,0,4.1c0-1.4,0.5-2.6,1.4-3.7c1,3.6,1.8,3.6,2.3,0c0.9,0,1.8,0,2.7,0c0-1.2,0-2.4,0-3.7  c1.5,0,3,0,4.5,0c0.1,1.6,0,3.1-0.5,4.6c-1.7-0.8-3.4-0.5-5,0.9c2,0.7,4.2,1.2,6.3,1.4c-3,0.8-6,1.4-9,1.8c3.5,0,6.9,0.8,9.9,2.3  c0.9-0.4,0.9-1,0-1.8c1.7-1,3.5-1.2,5.4-0.5c-1.2,0.6-2.4,1.2-3.6,1.8c2.5,0.4,4.6-0.3,6.3-2.3c0.4,1,0.4,2.2,0,3.7  c-1.1-0.2-2,0.1-2.7,0.9c0.5,0.3,0.9,0.6,1.4,0.9c2.2-0.8,4.5-1.1,6.8-0.9c-0.2,1.2,0.1,2.1,0.9,2.7c0,1.2,0,2.4,0,3.7  c0.1,1,0,1.9-0.5,2.7c-0.6-6.4-1.5-6.7-2.7-0.9c-0.3-0.3-0.6-0.6-0.9-0.9c-1.3,0.7-2.6,1.1-4.1,1.4c2.1,0.3,4.2,0.6,6.3,0.9  c-3.7,0.8-7.1,0.3-10.4-1.4c-0.8,0.3-1.5,0.6-2.3,0.9c1.1,0.7,2.3,1.2,3.6,1.4c-2.1,0.7-3.9,0.3-5.4-1.4c-0.8,0.8-1.1,1.7-0.9,2.7  c-3.6,0.5-3.6,1.3,0,2.3c-2.3,1.3-4.7,1.6-7.2,0.9c4.8-1.8,4.5-2.5-0.9-2.3c-0.2,1.8,0.2,3.3,1.4,4.6c0.3-0.3,0.6-0.6,0.9-0.9  c1.3,0.7,2.6,1.1,4.1,1.4c-1.4,0.3-2.6,0.9-3.6,1.8c1.8,0.5,3.6,0.6,5.4,0.5c-0.1-1.6,0-3.1,0.5-4.6c1.8,0.1,3.6,0.4,5.4,0.9  c1.5-0.5,2.7-1.4,3.6-2.7c0.3,0.3,0.6,0.6,0.9,0.9c0.4-0.9,0.6-1.8,0.5-2.7c1.5,0,3,0,4.5,0c0.2,2.1-0.4,3.9-1.8,5.5  c0.8,0.7,1.7,1.1,2.7,1.4c-1.8,0.6-3.6,0.6-5.4,0c0.3-0.3,0.6-0.6,0.9-0.9c-1.5-0.6-3-0.6-4.5,0c0.9,1.1,1.8,1.6,2.7,1.4  c-2.4,1.1-4.8,1.2-7.2,0.5c1.3-0.2,2.5-0.7,3.6-1.4c-0.5-0.3-0.9-0.6-1.4-0.9c-1.3,0.6-2.7,0.9-4.1,0.9c0,0.9,0,1.8,0,2.7  c-2.4-0.3-4.5,0.3-6.3,1.8c-0.7-0.8-1.1-1.7-1.4-2.7c-0.4,1.3-0.8,2.5-1.4,3.7c1.1,0,2.3,0.4,3.6,0.9c-1.7,0.9-3.5,1.2-5.4,0.9  c-0.2,2.1,0.1,4.1,0.9,5.9c-1.8,0.6-3.6,0.6-5.4,0c1.2-0.4,2.4-0.6,3.6-0.5c0.3-3.8,0.9-7.3,1.8-10.5c-1.5-0.6-3-0.6-4.5,0  c0.9,0.4,1.8,0.6,2.7,0.5c0.1,1,0,1.9-0.5,2.7c-1.8,0-3.6,0-5.4,0c-0.5-0.5-0.9-0.9-1.4-1.4c1.2-0.3,2.4-0.6,3.6-0.9  c-1.8-0.5-3.6-0.6-5.4-0.5c-0.2,1.2,0.1,2.3,0.9,3.2c-2.1,0.3-4.2,0.6-6.3,0.9c1.2,0.4,2.4,0.6,3.6,0.5c0.1,4,0.4,4.3,0.9,0.9  c1-0.1,1.9,0,2.7,0.5c-1.1,0.6-1.1,1.1,0,1.4c0.6-0.5,1.1-1.1,1.4-1.8c1,2.2,2.2,2.2,3.6,0c1.7,3,0.6,4.2-3.2,3.7  c0.2,1.8-0.4,3.1-1.8,4.1c0.8,2.5,1.5,2.6,2.3,0.5c0.9,1.4,1.4,2.9,1.4,4.6c-10.1-2.1-20.2-4.2-30.3-6.4c-3.6-0.2-6.1,1.3-7.7,4.6  c-2.5,2-5.2,3.5-8.1,4.6c-1.4,0.2-2.7-0.1-3.6-0.9c1,0.1,1.9,0,2.7-0.5c-1.1-0.3-2.2-0.7-3.2-1.4c-0.6-2.7-0.6-5.5,0-8.2  C485.7,395.3,488.3,392.9,490.9,390.6z"
   id="path450" />
<path
   class="st125"
   d="M535.2,408c1-1,2.2-1.2,3.6-0.5c-2.2,1-1.9,1.4,0.9,1.4c0,1.8,0,3.7,0,5.5c6.4,0,6.7-0.5,0.9-1.4  c0.4-1.2,0.4-2.6,0-4.1c2.1,0,4.2,0,6.3,0c-0.3,0.6-0.6,1.2-0.9,1.8c4.2,9.9,1.6,12.4-7.7,7.3C537.2,414.7,536.2,411.3,535.2,408z"
   id="path452" />
<path
   class="st126"
   d="M536.1,90.3c1.9,1,3.1,2.5,3.6,4.6C537.9,93.9,536.6,92.4,536.1,90.3z"
   id="path454" />
<path
   class="st127"
   d="M529.8,321.3c7,3.2,14.2,6,21.7,8.2c0,0.6-0.3,0.9-0.9,0.9c-4.7-1-9.3-2.5-13.6-4.6  C534.6,324.3,532.2,322.8,529.8,321.3z"
   id="path456" />
<path
   class="st75"
   d="M539.7,94.9c2.2,1.3,3.7,3.1,4.5,5.5C542.1,99.1,540.6,97.3,539.7,94.9z"
   id="path458" />
<path
   class="st128"
   d="M550.6,392.5c-1.6,2.5-3.7,4.3-6.3,5.5c-1.5,0-3,0-4.5,0c-0.1-1.6,0-3.1,0.5-4.6c1.5,0.8,3.2,1.1,5,0.9  c0-1.2,0-2.4,0-3.7C547.9,388.9,549.7,389.5,550.6,392.5z"
   id="path460" />
<path
   class="st68"
   d="M532.5,108.6c0-0.3,0-0.6,0-0.9c5.4,0,10.8,0,16.3,0c-0.6,0.6-1.2,1.2-1.8,1.8  C542.1,109.2,537.3,108.9,532.5,108.6z"
   id="path462" />
<path
   class="st129"
   d="M485.5,356.9c-0.8-0.3-1.1-0.9-0.9-1.8c0.8-0.3,1.1-0.9,0.9-1.8c0.6,0.5,1.2,1.1,1.8,1.8  c1.8-1.5,3.9-2.1,6.3-1.8c-0.1-1.3,0-2.5,0.5-3.7c1.1,3.4,1.9,3.1,2.3-0.9c-7.6,1.2-7.9,0.6-0.9-1.8c0.7-1.3,1.6-2.4,2.7-3.2  c-1-0.2-1.9-0.7-2.7-1.4c1.4-0.9,2.9-1.2,4.5-0.9c-0.2,1.2,0.1,2.3,0.9,3.2c-0.9,0.4-1.8,0.6-2.7,0.5c0,1.5,0,3,0,4.6  c1.2,0,2.4,0,3.6,0c-0.1,1,0,1.9,0.5,2.7c0.4-1.5,0.6-3,0.5-4.6c-3.3-0.7-3-1.3,0.9-1.8c-0.2,1.3,0.1,2.6,0.9,3.7  c2.1-0.5,4.2-1.1,6.3-1.8c-1,0.1-1.9-0.4-2.7-1.4c0.3-0.5,0.6-0.9,0.9-1.4c1.1,1.1,2.2,1.1,3.2,0c0.4,2,1.6,2.9,3.6,2.7  c2.1,0.2,2.5-0.4,1.4-1.8c0.5-1.6,1.2-1.9,2.3-0.9c1.8-0.6,3.6-1.2,5.4-1.8c0.2,0.3,0.3,0.6,0.5,0.9c-2.2,0.8-4.3,1.7-6.3,2.7  c1,0.5,1.9,0.8,2.7,0.9c-0.8,0.7-1.7,1.1-2.7,1.4c1.3,0.2,2.5,0.7,3.6,1.4c-3,0.5-5.7,1.6-8.1,3.2c3.3,0.8,3,1.4-0.9,1.8  c0.9,0.7,1,1.4,0.5,2.3c-2.5,0.8-2.6,1.5-0.5,2.3c-0.8,0.4-1.4,1-1.8,1.8c0.8,1,0.8,2,0,2.7c1.5,0.6,3,0.6,4.5,0  c-3.6-0.7-3.6-1.2,0-1.4c0-1.5,0-3,0-4.6c2.1-0.1,4.2,0,6.3,0.5c-1.3,0.6-1.9,1.7-1.8,3.2c1.5,0,3,0,4.5,0c-0.3-1.6,0-3.2,0.9-4.6  c0.8,2.5,2,4.3,3.6,5.5c1.5,0.1,3,0,4.5-0.5c-2.9-0.3-4.3-2-4.1-5c-0.3,0.7-0.7,1.3-1.4,1.8c-0.7-1.1-1.2-2.3-1.4-3.7  c-2.4,1.1-5,1.7-7.7,1.8c-4.7-0.5-4.7-1.3,0-2.3c-1-1.7-0.4-2.7,1.8-3.2c2.2,1.2,1.9,2.1-0.9,2.7c0.5,0.3,0.9,0.6,1.4,0.9  c2.3-0.2,3-1.1,2.3-2.7c2.6-1.2,5.3-1.9,8.1-2.3c-3.5-1.5-3.2-2.6,0.9-3.2c-2.6-1.1-4.4-0.2-5.4,2.7c-0.8-0.8-1.1-1.7-0.9-2.7  c-1.3,0.2-2.5-0.1-3.6-0.9c0.8-1,1.7-1,2.7,0c1-1.2,1-2.4,0-3.7c-4.5-1.6-4.5-2.7,0-3.2c-1.8-0.6-3.6-0.6-5.4,0  c-2.1,0.9-1.8,1.5,0.9,1.8c-1.5,0.6-3,0.6-4.5,0c1-0.7,1-1.4,0-2.3c2.9-1.3,5.9-2.2,9-2.7c0.6,0.3,1.2,0.6,1.8,0.9  c3.5-1.2,7.1-1.8,10.8-1.8c0,1.8,0,3.7,0,5.5c1.5-0.2,2.8,0.1,4.1,0.9c1.9-1.6,4.2-2.2,6.8-1.8c0.1-1,0-1.9-0.5-2.7  c-2.1,2.4-4.2,2.4-6.3,0c-0.3,0.7-0.7,1.3-1.4,1.8c-0.9-1.4-1.2-2.9-0.9-4.6c2.8,0.3,5.6-0.2,8.1-1.4c-1.9-0.1-3.8-0.2-5.4-0.5  c2.6-0.7,5-1.6,7.2-2.7c0.6,0,0.9-0.3,0.9-0.9c1.2-0.2,2.1,0.1,2.7,0.9c-0.7-0.1-1.3,0-1.8,0.5c1.1,0.2,2,0.7,2.7,1.4  c-6,0.2-6,0.6,0,1.4c1.3,1.1,1.2,1.8-0.5,2.3c-3.2-0.8-6.4-0.5-9.5,0.9c2,0.5,4.1,0.5,6.3,0c-0.5,1.7-0.5,3.2,0,4.6  c-1.7,0.7-3.5,1.2-5.4,1.4c4.3,0.5,8.5,0.1,12.7-0.9c0.4-0.8,0.7-1.6,0.9-2.3c1.2,1.4,2.7,2,4.5,1.8c0,3.7,0,7.3,0,11  c-3.7-0.2-7.3,0.1-10.8,0.9c-1.9-0.3-2.2-1.1-0.9-2.3c-1-0.7-1.9-0.5-2.7,0.5c0.5,3,1.1,6.1,1.8,9.1c0.9-0.4,0.9-1,0-1.8  c1.7-1,3.5-1.2,5.4-0.5c-1.2,0.6-2.4,1.2-3.6,1.8c2.1,0.1,4.2,0.1,6.3,0c0.6,1,1.1,2,1.4,3.2c1.3-2.3,1.4-4.7,0.5-7.3  c0.9,0,1.8,0,2.7,0c0,4.6,0.3,9.2,0.9,13.7c-0.8-0.6-1.1-1.6-0.9-2.7c-2.3-0.1-4.6,0.2-6.8,0.9c-0.5-0.3-0.9-0.6-1.4-0.9  c0.7-0.8,1.6-1.1,2.7-0.9c0.4-1.5,0.4-2.7,0-3.7c-1.7,2-3.8,2.7-6.3,2.3c1.2-0.6,2.4-1.2,3.6-1.8c-1.9-0.7-3.7-0.6-5.4,0.5  c0.9,0.8,0.9,1.4,0,1.8c-3.1-1.5-6.4-2.3-9.9-2.3c3.1-0.4,6.1-1,9-1.8c-2.2-0.2-4.3-0.6-6.3-1.4c1.6-1.4,3.3-1.7,5-0.9  c0.4-1.5,0.6-3,0.5-4.6c-1.5,0-3,0-4.5,0c0,1.2,0,2.4,0,3.7c-0.9,0-1.8,0-2.7,0c-0.5,3.6-1.3,3.6-2.3,0c-0.9,1.1-1.3,2.3-1.4,3.7  c-1.1-1.4-1.1-2.7,0-4.1c1.9-1,3.7-1.6,5.4-1.8c-1.3-0.2-2.5-0.7-3.6-1.4c1.9-1.2,4.1-1.9,6.3-2.3c-2.1-0.7-4-0.5-5.9,0.5  c0.6-1.9,1.3-3.9,2.3-5.9c-2.7-0.5-5.5-0.3-8.1,0.5c0.2,1.5-0.1,2.9-0.9,4.1c0.9,0.4,1.8,0.6,2.7,0.5c0-1.2,0-2.4,0-3.7  c5.2,0.2,5.5,1,0.9,2.3c0.4,0.4,0.7,0.8,0.9,1.4c-3.4,1.1-3.4,1.7,0,1.8c0,0.9,0,1.8,0,2.7c-1-0.1-1.9,0-2.7,0.5  c0.8,1.9,1.1,3.8,0.9,5.9c1.1-0.2,2,0.1,2.7,0.9c-1.1,1.4-2,2.9-2.7,4.6c-0.6-0.9-1.2-1.8-1.8-2.7c-1.2,2.4-2.4,2.4-3.6,0  c-1.1,1.9-0.7,3.4,1.4,4.6c1.6-0.8,3.3-1,5-0.5c-2.5,1.3-5.2,1.7-8.1,1.4c-0.5-4.6-0.8-4.3-0.9,0.9c-1.5,0.1-3,0-4.5-0.5  c0.9-0.4,1.8-0.6,2.7-0.5c0.1-1,0-1.9-0.5-2.7c-2,1.2-3.9,1.5-5.9,0.9c-0.9,1.4-1.2,2.9-0.9,4.6c5.3-0.1,10.6-0.7,15.8-1.8  c0.8,0.3,1.5,0.6,2.3,0.9c-1.1,0.7-2.3,1.2-3.6,1.4c5.5,1.7,7,0.3,4.5-4.1c3.4-1.3,6.8-2.2,10.4-2.7c0.4,1-0.1,1.6-1.4,1.8  c-1.6,0.7-3.1,1-4.5,0.9c2.7,0.9,5.4,0.7,8.1-0.5c-0.9-2.5-0.3-2.8,1.8-0.9c-0.8,1.2-1.1,2.6-0.9,4.1c2.2,0.1,2.8-0.6,1.8-2.3  c2.9-1.4,5.9-1.7,9-0.9c-1.4,0.8-2.9,1.4-4.5,1.8c0.7,2.9-0.1,3.1-2.3,0.5c-2.4,2.3-5.1,3-8.1,1.8c-0.9,0.6-1.8,1.2-2.7,1.8  c0.2-3.6-0.7-3.6-2.7,0c-0.3-0.6-0.6-1.2-0.9-1.8c-0.4,0.8-1,1.5-1.8,1.8c-2.1,0.2-4.1,0.6-5.9,1.4c0.6,0.6,1.2,1.2,1.8,1.8  c-0.2,2.1-0.2,4.4,0,6.8c-1.5,0.1-3,0-4.5-0.5c0.4-1.6,0.4-3.5,0-5.5c0.1-1.8,0.7-3.3,1.8-4.6c-1.6-0.7-3.1-0.6-4.5,0.5  c1,1,1,1.9,0,2.7c-0.6-0.5-1.1-1.1-1.4-1.8c-1.3,1.4-3,2.1-5,2.3c0.3,0.3,0.6,0.6,0.9,0.9c-1.2,0.4-2.4,0.6-3.6,0.5  c0,0.9,0,1.8,0,2.7c3.4,0.8,5.2-0.4,5.4-3.7c1.5,0,3,0,4.5,0c0.1,2.5,0,4.9-0.5,7.3c-1-2.2-1.6-4.3-1.8-6.4c-0.7,2.1-0.5,4,0.5,5.9  c-1.4-0.3-2.9-0.8-4.5-1.4c-0.9,0.3-1.8,0.6-2.7,0.9c0.6,2.3,1.2,4.6,1.8,6.8c-0.5,0.5-0.9,0.9-1.4,1.4c-1.5-3.6-2.6-3.3-3.2,0.9  c-1-1.8-1.2-3.6-0.5-5.5c0.8,1.1,1.6,1.1,2.3,0c-1.6-1.6-3.1-1.7-4.5-0.5c0.8,2.2,1.1,4.5,0.9,6.8c1.9-0.3,3.7,0,5.4,0.9  c-0.9,0.6-1.8,1.2-2.7,1.8c0.9,0.8,0.9,1.4,0,1.8c-0.7-1.1-1.2-2.3-1.4-3.7c-0.4,0.4-0.8,0.7-1.4,0.9c-0.9-3.1-1.8-6.1-2.7-9.1  c-0.6,1.5-1.5,2.7-2.7,3.7c-0.9-0.4-0.9-1,0-1.8c-3.5-1.3-3.5-2.3,0-3.2c-1.5-0.5-3-0.6-4.5-0.5c0.4,2.5,0.4,5,0,7.3  c-0.8-1-1.6-1-2.3,0c-0.3-1.1,0.2-2,1.4-2.7c-1.2-0.6-2.4-1.2-3.6-1.8c0.7-0.8,1.6-1.1,2.7-0.9c0-0.9,0-1.8,0-2.7  c1.2,0.2,2.3-0.1,3.2-0.9c-0.6-1.5-0.3-2.7,0.9-3.7c0.2,1.3,0.6,2.5,1.4,3.7c1.7-0.4,3.3-0.7,5-0.9c0.2,0.3,0.3,0.6,0.5,0.9  c-1.1,0.7-2.3,1.2-3.6,1.4c1.8,0.5,3.6,0.6,5.4,0.5c-0.1-1.3,0-2.5,0.5-3.7c0.3,0.6,0.6,1.2,0.9,1.8c0.6-1.8,0.6-3.7,0-5.5  c-0.2,1-0.7,1.9-1.4,2.7c-1.2-1.1-2.1-0.8-2.7,0.9c-1.6-1.1-2.2-2.6-1.8-4.6c2.3,0.1,4.4-0.5,6.3-1.8c-0.6-2.1-1.1-4.2-1.4-6.4  c-0.5,4.2-1.6,4.5-3.2,0.9c-2.3-1.4-3.4-0.7-3.2,1.8c0.9-0.9,2-1.1,3.2-0.5c-1.1,0.8-2.3,1.6-3.6,2.3c2.3-0.1,4.4,0.2,6.3,0.9  c-1.7,0.9-3.5,1.2-5.4,0.9c-0.6,1.8-0.6,3.5,0,5c-0.3,0.5-0.6,0.9-0.9,1.4c-0.8-0.8-1.1-1.7-0.9-2.7c-1.9-0.2-3.7,0.1-5.4,0.9  c-0.6,2.1-1.2,4.3-1.8,6.4c-0.8-1.5-1.6-3-2.3-4.6c-2,1.5-4.3,2.1-6.8,1.8c-0.2,2.1,0.1,4.1,0.9,5.9c-0.8,1.6-1.7,1.7-2.7,0.5  c0.8-2.3,1.1-4.8,0.9-7.3c0.9,0,1.8,0,2.7,0c0-1.2,0-2.4,0-3.7c0.9,0,1.8,0,2.7,0c0-1.5,0-3,0-4.6c-1.5,0-3,0-4.5,0  c0-1.8,0-3.7,0-5.5c-0.9,0-1.8,0-2.7,0c0-1.5,0-3,0-4.6c1.3-0.2,2.5,0.1,3.6,0.9c-3.6,1.7-3.3,2.7,0.9,2.7c0,1.5,0,3,0,4.6  c1.2,0,2.4,0,3.6,0c0.1,2.2,0.4,4,0.9,5.5c0.6-2.1,0.9-4.1,0.9-5.9c-1.5-0.5-3-0.6-4.5-0.5c0-2.7,0-5.5,0-8.2  c-2.2,0.3-4.3,0-6.3-0.9c1.7-0.3,3.3-0.6,5-0.9c2.8,0.6,5.4,1.1,7.7,1.4c0.1-1.8-0.2-3.6-0.9-5.5c0.2-0.8,0.3-1.5,0.5-2.3  c1.1,2.5,1.9,2.3,2.3-0.5c-0.4-2.8-1.1-2.9-2.3-0.5c-1.5-0.9-1.6-2-0.5-3.2c-1.2-0.6-2.4-0.6-3.6,0c0.4,0.4,0.7,0.8,0.9,1.4  c-1.5,2.5-2.2,5.2-2.3,8.2c-2.5-0.8-2.6-1.5-0.5-2.3c-1.2-1.2-1.2-2.4,0-3.7c-1.8-0.5-3.6-0.6-5.4-0.5c0,0.9,0,1.8,0,2.7  c-1.2-0.2-2.1,0.1-2.7,0.9c-0.7-0.7-1.1-1.6-1.4-2.7C485.6,356.2,485.4,356.5,485.5,356.9z"
   id="path464" />
<path
   class="st125"
   d="M497.3,370.6c-0.1-1.9,0-3.7,0.5-5.5c1.2,1.2,2.4,1.2,3.6,0c0.4,1.2,0.6,2.4,0.5,3.7c2,0.4,3.5-0.3,4.5-1.8  c-0.2-0.3-0.3-0.6-0.5-0.9c-0.6,0.8-1.4,1.4-2.3,1.8c-0.5-1.4-0.8-2.8-0.9-4.1c1.1-0.3,2,0.2,2.7,1.4c1.6-0.5,1.9-1.2,0.9-2.3  c1.2-0.4,2.4-0.6,3.6-0.5c0,5.2-0.4,5.5-1.4,0.9c-0.4,1.5-0.6,3-0.5,4.6c2.2-0.3,4.3,0,6.3,0.9c-2.9-0.3-5.9,0.3-9,1.8  c0.4,0.9,1,0.9,1.8,0c1.3,2.2,1,4.2-0.9,5.9c0.6,0.3,1.2,0.6,1.8,0.9c-5.3,0.8-5.9-0.6-1.8-4.1c-1.6,0.1-3.4-0.2-5.4-0.9  c0.9-0.6,1.8-1.2,2.7-1.8c-0.2-0.3-0.3-0.6-0.5-0.9C501.1,370,499.2,370.3,497.3,370.6z"
   id="path466" />
<path
   class="st51"
   d="M544.3,100.4c1.8,1.3,3.4,2.9,5,4.6c0.4-1.2,0.6-2.4,0.5-3.7c0.4,2.7,1.3,5.2,2.7,7.3  c-0.6,1.2-1.5,2.1-2.7,2.7c-0.3,0-0.6,0-0.9,0c1-1.6,0.4-2.2-1.8-1.8c0.6-0.6,1.2-1.2,1.8-1.8C547.3,105.2,545.8,102.8,544.3,100.4z  "
   id="path468" />
<path
   class="st130"
   d="M550.6,90.3c-0.3-2,0-3.9,0.9-5.5c-0.2,0.9,0.1,1.5,0.9,1.8c0.3,2.3,0,4.5-0.9,6.4  C551.7,91.9,551.4,91,550.6,90.3z"
   id="path470" />
<path
   class="st131"
   d="M551.5,93.1c0.9-1.9,1.2-4.1,0.9-6.4c-0.1-5.2,0.3-10.4,1.4-15.5c0.6,0.8,1.4,1.4,2.3,1.8  c4.2,9.2,4.6,18.7,1.4,28.3c-1.5,2.4-3.3,4.5-5.4,6.4C551.5,102.8,551.3,97.9,551.5,93.1z"
   id="path472" />
<path
   class="st113"
   d="M547,63.9c4.5,1.5,7.5,4.6,9,9.1c-0.9-0.4-1.6-1-2.3-1.8c-1,5.1-1.5,10.3-1.4,15.5c-0.8-0.3-1.1-0.9-0.9-1.8  c-0.2-4.9,0.1-9.8,0.9-14.6C551,67.7,549.2,65.6,547,63.9z"
   id="path474" />
<path
   class="st132"
   d="M552.4,392.5c3.1-4.6,6.1-4.3,9,0.9c-1.8-0.7-3.4-1.6-5-2.7C555.2,391.5,553.8,392.1,552.4,392.5z"
   id="path476" />
<path
   class="st114"
   d="M564.1,352.3c0,1.2,0,2.4,0,3.7c-0.9,0-1.8,0-2.7,0c1,2.6,0.8,5-0.5,7.3c-0.3-1.2-0.7-2.2-1.4-3.2  c-2.1,0.1-4.2,0.1-6.3,0c1.2-0.6,2.4-1.2,3.6-1.8c-1.9-0.7-3.7-0.6-5.4,0.5c0.9,0.8,0.9,1.4,0,1.8c-0.7-3-1.3-6.1-1.8-9.1  c0.8-1,1.7-1.1,2.7-0.5c-1.3,1.2-1,2,0.9,2.3C556.9,352.4,560.5,352.1,564.1,352.3z"
   id="path478" />
<path
   class="st102"
   d="M549.7,101.3c0.5-3.6,0.8-7.3,0.9-11c0.8,0.6,1.1,1.6,0.9,2.7c-0.2,4.9,0,9.7,0.5,14.6c2.1-1.9,4-4,5.4-6.4  c3.3-9.6,2.8-19.1-1.4-28.3c5,6.4,6.7,13.7,5,21.9c-1.3,5.7-4.2,10.3-8.6,13.7C550.9,106.4,550,104,549.7,101.3z"
   id="path480" />
<path
   class="st133"
   d="M565.1,373.3c0.9,2.2,1.2,4.7,0.9,7.3c-1,2.6-1,5.3,0,8.2c1.2,0,2.4,0,3.6,0c0.5,2.4,0.6,4.9,0.5,7.3  c-1-1.5-2.3-2.4-4.1-2.7c-0.5,0.1-0.8,0.4-0.9,0.9c-1.2-0.3-2.4-0.6-3.6-0.9c-2.9-5.2-6-5.5-9-0.9c-0.6,0-1.2,0-1.8,0  c-0.9-2.9-2.7-3.5-5.4-1.8c0,1.2,0,2.4,0,3.7c-1.8,0.2-3.4-0.1-5-0.9c-0.4,1.5-0.6,3-0.5,4.6c1.5,0,3,0,4.5,0c0,0.6,0,1.2,0,1.8  c-0.7-0.1-1.3,0-1.8,0.5c1.1,1.1,1.1,2.1,0,3.2c-0.7-1.1-1.2-2.3-1.4-3.7c-2.4,0.5-4.7,1.4-6.8,2.7c0.5,0.9,0.9,1.8,1.4,2.7  c0.3-0.3,0.6-0.6,0.9-0.9c2.2,1,4.5,1.9,6.8,2.7c1.1,0,2-0.3,2.7-0.9c0.8,0.6,1.1,1.6,0.9,2.7c-2.1,0-4.2,0-6.3,0  c0.4,1.6,0.4,2.9,0,4.1c5.8,0.9,5.5,1.4-0.9,1.4c0-1.8,0-3.7,0-5.5c-2.8,0.1-3.1-0.4-0.9-1.4c-1.4-0.7-2.6-0.5-3.6,0.5  c-0.9-0.3-1.5-0.9-1.8-1.8c0-1.7-0.4-3.2-1.4-4.6c-0.7,2.2-1.5,2-2.3-0.5c1.5-1,2.1-2.3,1.8-4.1c3.8,0.6,4.9-0.6,3.2-3.7  c-1.4,2.2-2.6,2.2-3.6,0c-0.3,0.7-0.7,1.3-1.4,1.8c-1.1-0.3-1.1-0.8,0-1.4c-0.9-0.4-1.8-0.6-2.7-0.5c-0.5,3.4-0.8,3-0.9-0.9  c-1.2,0.1-2.4,0-3.6-0.5c2.1-0.3,4.2-0.6,6.3-0.9c-0.8-0.9-1.1-2-0.9-3.2c1.8-0.1,3.6,0,5.4,0.5c-1.2,0.3-2.4,0.6-3.6,0.9  c0.5,0.5,0.9,0.9,1.4,1.4c1.8,0,3.6,0,5.4,0c0.4-0.9,0.6-1.8,0.5-2.7c-1,0.1-1.9,0-2.7-0.5c1.5-0.6,3-0.6,4.5,0  c-0.9,3.2-1.5,6.7-1.8,10.5c-1.2-0.1-2.4,0-3.6,0.5c1.8,0.6,3.6,0.6,5.4,0c-0.8-1.9-1.1-3.8-0.9-5.9c1.9,0.3,3.7,0,5.4-0.9  c-1.3-0.6-2.5-0.9-3.6-0.9c0.5-1.2,1-2.4,1.4-3.7c0.2,1,0.7,1.9,1.4,2.7c1.8-1.5,3.9-2.1,6.3-1.8c0-0.9,0-1.8,0-2.7  c1.4,0,2.8-0.3,4.1-0.9c0.5,0.3,0.9,0.6,1.4,0.9c-1.1,0.7-2.3,1.2-3.6,1.4c2.5,0.7,4.9,0.6,7.2-0.5c-0.9,0.2-1.8-0.3-2.7-1.4  c1.5-0.6,3-0.6,4.5,0c-0.3,0.3-0.6,0.6-0.9,0.9c1.8,0.6,3.6,0.6,5.4,0c-1-0.2-1.9-0.7-2.7-1.4c1.5-1.5,2.1-3.4,1.8-5.5  c-1.5,0-3,0-4.5,0c0.1,1,0,1.9-0.5,2.7c-0.3-0.3-0.6-0.6-0.9-0.9c-0.9,1.3-2.1,2.2-3.6,2.7c-1.8-0.5-3.6-0.8-5.4-0.9  c-0.4,1.5-0.6,3-0.5,4.6c-1.8,0.1-3.6,0-5.4-0.5c1-1,2.2-1.6,3.6-1.8c-1.4-0.2-2.8-0.7-4.1-1.4c-0.3,0.3-0.6,0.6-0.9,0.9  c-1.1-1.3-1.6-2.8-1.4-4.6c5.4-0.3,5.7,0.5,0.9,2.3c2.5,0.7,4.9,0.4,7.2-0.9c-3.6-1-3.6-1.8,0-2.3c-0.2-1.1,0.1-2,0.9-2.7  c1.5,1.6,3.3,2.1,5.4,1.4c-1.3-0.2-2.5-0.7-3.6-1.4c0.8-0.3,1.5-0.6,2.3-0.9c3.3,1.7,6.7,2.1,10.4,1.4c-2.1-0.3-4.2-0.6-6.3-0.9  c1.4-0.2,2.8-0.7,4.1-1.4c0.3,0.3,0.6,0.6,0.9,0.9c1.2-5.8,2.1-5.5,2.7,0.9C565,375.2,565.2,374.2,565.1,373.3z"
   id="path482" />
<path
   class="st112"
   d="M544.3,399.8c1,1.9,1.6,4,1.8,6.4c-0.7,0.6-1.6,0.9-2.7,0.9c-2.3-0.8-4.6-1.7-6.8-2.7  c-0.3,0.3-0.6,0.6-0.9,0.9c-0.5-0.9-0.9-1.8-1.4-2.7c2.1-1.3,4.4-2.2,6.8-2.7c0.2,1.3,0.6,2.5,1.4,3.7c1.1-1.1,1.1-2.1,0-3.2  C543,399.8,543.6,399.6,544.3,399.8z"
   id="path484" />
<path
   class="st84"
   d="M564.1,355.9c0-1.2,0-2.4,0-3.7c0-3.7,0-7.3,0-11c0.3-0.8,0.9-1.1,1.8-0.9c-0.4,13,0,26.1,1.4,39.2  c3.3,3.1,6.4,6.4,9,10c0.6,3.3,0.2,6.3-1.4,9.1c0.2-0.9-0.1-1.5-0.9-1.8c0.5-2,1.1-4,1.8-5.9c-1.3-1-2.8-1.6-4.5-1.8  c0.7-0.3,1.3-0.7,1.8-1.4c-1.1-0.8-2.3-1.2-3.6-0.9c0.3-3-0.9-5.2-3.6-6.4c0.3-2.6,0-5.1-0.9-7.3c0-1.2,0-2.4,0-3.7  C564.4,365.1,564.1,360.5,564.1,355.9z"
   id="path486" />
<path
   class="st134"
   d="M555.1,332.2c3.3-1.4,6.4-3.4,9-5.9c6.3-1.2,8.9,1.4,7.7,7.8c-2.2,2-4.1,4.2-5.9,6.4  c-0.9-0.2-1.5,0.1-1.8,0.9c-1.8,0.2-3.3-0.5-4.5-1.8c-0.2,0.7-0.5,1.4-0.9,2.3c-4.2,1.1-8.4,1.4-12.7,0.9c1.9-0.2,3.7-0.6,5.4-1.4  c-0.5-1.4-0.5-2.9,0-4.6c-2.2,0.5-4.3,0.5-6.3,0c3.1-1.4,6.3-1.7,9.5-0.9c1.7-0.5,1.8-1.2,0.5-2.3  C549.1,332.8,549.1,332.4,555.1,332.2z"
   id="path488" />
<path
   class="st120"
   d="M565.1,394.3c0.1-0.5,0.4-0.8,0.9-0.9c1.7,0.4,3.1,1.3,4.1,2.7c0.2-2.4,0-4.9-0.5-7.3c-1.2,0-2.4,0-3.6,0  c-1-2.9-1-5.6,0-8.2c2.7,1.2,3.9,3.4,3.6,6.4c1.3-0.2,2.5,0.1,3.6,0.9c-0.5,0.6-1.1,1.1-1.8,1.4c1.7,0.2,3.2,0.8,4.5,1.8  c-0.7,2-1.3,3.9-1.8,5.9C570.2,398.9,567.2,398,565.1,394.3z"
   id="path490" />
<path
   class="st14"
   d="M561.4,393.4c1.2,0.3,2.4,0.6,3.6,0.9c2.2,3.7,5.2,4.6,9,2.7c0.8,0.3,1.1,0.9,0.9,1.8  c-2.2-0.2-4.3,0.1-6.3,0.9C566.2,397.6,563.8,395.5,561.4,393.4z"
   id="path492" />
<path
   class="st135"
   d="M554.2,330.4c3.8-1,7.2-3,9.9-5.9c3.3-0.8,6.3-0.2,9,1.8c1,2.5,1.2,5.1,0.5,7.8c-2.2,2.7-4.8,4.8-7.7,6.4  c1.7-2.2,3.7-4.4,5.9-6.4c1.2-6.3-1.4-8.9-7.7-7.8c-2.7,2.6-5.7,4.5-9,5.9c-0.7-0.7-1.6-1.2-2.7-1.4  C552.9,330.4,553.5,330.3,554.2,330.4z"
   id="path494" />
</svg>
