<?xml version="1.0" encoding="UTF-8" standalone="no"?>
<svg
   xmlns:dc="http://purl.org/dc/elements/1.1/"
   xmlns:cc="http://creativecommons.org/ns#"
   xmlns:rdf="http://www.w3.org/1999/02/22-rdf-syntax-ns#"
   xmlns:svg="http://www.w3.org/2000/svg"
   xmlns="http://www.w3.org/2000/svg"
   xmlns:sodipodi="http://sodipodi.sourceforge.net/DTD/sodipodi-0.dtd"
   xmlns:inkscape="http://www.inkscape.org/namespaces/inkscape"
   width="200"
   height="200"
   viewBox="0 0 200 200"
   version="1.1"
   id="svg43"
   sodipodi:docname="logo.svg"
   inkscape:version="1.0.1 (c497b03c, 2020-09-10)">
  <metadata
     id="metadata49">
    <rdf:RDF>
      <cc:Work
         rdf:about="">
        <dc:format>image/svg+xml</dc:format>
        <dc:type
           rdf:resource="http://purl.org/dc/dcmitype/StillImage" />
        <dc:title>Fittest IDE square</dc:title>
      </cc:Work>
    </rdf:RDF>
  </metadata>
  <defs
     id="defs47" />
  <sodipodi:namedview
     pagecolor="#ffffff"
     bordercolor="#666666"
     borderopacity="1"
     objecttolerance="10"
     gridtolerance="10"
     guidetolerance="10"
     inkscape:pageopacity="0"
     inkscape:pageshadow="2"
     inkscape:window-width="1521"
     inkscape:window-height="895"
     id="namedview45"
     showgrid="false"
     units="px"
     inkscape:zoom="9.5795455"
     inkscape:cx="38.884935"
     inkscape:cy="33.76987"
     inkscape:window-x="0"
     inkscape:window-y="25"
     inkscape:window-maximized="0"
     inkscape:current-layer="svg43"
     inkscape:document-rotation="0"
     fit-margin-top="0"
     fit-margin-left="0"
     fit-margin-right="0"
     fit-margin-bottom="0" />
  <!-- Generator: Sketch 57.1 (83088) - https://sketch.com -->
  <title
     id="title27">Fittest IDE square</title>
  <desc
     id="desc29">Created with Sketch.</desc>
  <g
     id="Fittest-IDE-square"
     stroke="none"
     stroke-width="1"
     fill="none"
     fill-rule="evenodd"
     transform="scale(2.2727273)">
    <rect
       id="Rectangle"
       fill="#271d30"
       x="0"
       y="0"
       width="88"
       height="88"
       rx="8" />
    <g
       id="Group-12"
       transform="translate(6,4)">
      <polygon
         id="Fill-1"
         fill="#271d30"
         points="32,80 32,0 0,0 0,80 " />
      <polygon
         id="Fill-2"
         fill="#00fafa"
         points="11.4209,54.6947 8.0799,54.6947 20.5789,25.3057 23.9209,25.3057 " />
      <g
         id="Group-11"
         transform="translate(0,2)">
        <path
           d="m 7.2637,22.7817 c 3.735,0 6.764,3.028 6.764,6.764 0,3.735 -3.029,6.763 -6.764,6.763 -3.735,0 -6.764,-3.028 -6.764,-6.763 0,-3.736 3.029,-6.764 6.764,-6.764 m 0,2.818 c -2.179,0 -3.945,1.766 -3.945,3.946 0,2.179 1.766,3.945 3.945,3.945 2.179,0 3.945,-1.766 3.945,-3.945 0,-2.18 -1.766,-3.946 -3.945,-3.946"
           id="Fill-3"
           fill="#f952f9" />
        <path
           d="m 24.7363,39.6904 c 3.735,0 6.764,3.028 6.764,6.764 0,3.736 -3.029,6.763 -6.764,6.763 -3.735,0 -6.764,-3.027 -6.764,-6.763 0,-3.736 3.029,-6.764 6.764,-6.764 m 0,2.818 c -2.179,0 -3.945,1.767 -3.945,3.946 0,2.179 1.766,3.946 3.945,3.946 2.179,0 3.945,-1.767 3.945,-3.946 0,-2.179 -1.766,-3.946 -3.945,-3.946"
           id="Fill-5"
           fill="#f952f9" />
        <path
           d="m 18.126,0.1562 -8.873,20.862 c 1.021,0.239 1.976,0.652 2.826,1.213 l 9.389,-22.075 z"
           id="Fill-7"
           fill="#00fafa" />
        <path
           d="m 10.5679,75.8438 h 3.341 l 8.87,-20.854 c -1.022,-0.235 -1.977,-0.646 -2.83,-1.205 z"
           id="Fill-9"
           fill="#00fafa" />
      </g>
    </g>
    <rect
       id="rect40"
       fill="#00fafa"
       x="44"
       y="18"
       width="26"
       height="52" />
  </g>
</svg>
