<?xml version="1.0" encoding="UTF-8"?>
<svg width="88px" height="88px" viewBox="0 0 88 88" version="1.1" xmlns="http://www.w3.org/2000/svg" xmlns:xlink="http://www.w3.org/1999/xlink">
    <!-- Generator: Sketch 57.1 (83088) - https://sketch.com -->
    <title>Fittest IDE square</title>
    <desc>Created with Sketch.</desc>
    <g id="Fittest-IDE-square" stroke="none" stroke-width="1" fill="none" fill-rule="evenodd">
        <rect id="Rectangle" fill="#271D30" x="0" y="0" width="88" height="88" rx="8"></rect>
        <g id="Group-12" transform="translate(6.000000, 4.000000)">
            <polygon id="Fill-1" fill="#271D30" points="0 80 32 80 32 0 0 0"></polygon>
            <polygon id="Fill-2" fill="#00FAFA" points="23.9209 25.3057 11.4209 54.6947 8.0799 54.6947 20.5789 25.3057"></polygon>
            <g id="Group-11" transform="translate(0.000000, 2.000000)">
                <path d="M7.2637,22.7817 C10.9987,22.7817 14.0277,25.8097 14.0277,29.5457 C14.0277,33.2807 10.9987,36.3087 7.2637,36.3087 C3.5287,36.3087 0.4997,33.2807 0.4997,29.5457 C0.4997,25.8097 3.5287,22.7817 7.2637,22.7817 M7.2637,25.5997 C5.0847,25.5997 3.3187,27.3657 3.3187,29.5457 C3.3187,31.7247 5.0847,33.4907 7.2637,33.4907 C9.4427,33.4907 11.2087,31.7247 11.2087,29.5457 C11.2087,27.3657 9.4427,25.5997 7.2637,25.5997" id="Fill-3" fill="#F952F9"></path>
                <path d="M24.7363,39.6904 C28.4713,39.6904 31.5003,42.7184 31.5003,46.4544 C31.5003,50.1904 28.4713,53.2174 24.7363,53.2174 C21.0013,53.2174 17.9723,50.1904 17.9723,46.4544 C17.9723,42.7184 21.0013,39.6904 24.7363,39.6904 M24.7363,42.5084 C22.5573,42.5084 20.7913,44.2754 20.7913,46.4544 C20.7913,48.6334 22.5573,50.4004 24.7363,50.4004 C26.9153,50.4004 28.6813,48.6334 28.6813,46.4544 C28.6813,44.2754 26.9153,42.5084 24.7363,42.5084" id="Fill-5" fill="#F952F9"></path>
                <path d="M18.126,0.1562 L9.253,21.0182 C10.274,21.2572 11.229,21.6702 12.079,22.2312 L21.468,0.1562 L18.126,0.1562 Z" id="Fill-7" fill="#00FAFA"></path>
                <path d="M10.5679,75.8438 L13.9089,75.8438 L22.7789,54.9898 C21.7569,54.7548 20.8019,54.3438 19.9489,53.7848 L10.5679,75.8438 Z" id="Fill-9" fill="#00FAFA"></path>
            </g>
        </g>
        <rect id="Rectangle" fill="#00FAFA" x="44" y="18" width="26" height="52"></rect>
    </g>
</svg>