<?xml version="1.0" encoding="UTF-8" standalone="no"?>
<svg
   xmlns:dc="http://purl.org/dc/elements/1.1/"
   xmlns:cc="http://creativecommons.org/ns#"
   xmlns:rdf="http://www.w3.org/1999/02/22-rdf-syntax-ns#"
   xmlns:svg="http://www.w3.org/2000/svg"
   xmlns="http://www.w3.org/2000/svg"
   xmlns:sodipodi="http://sodipodi.sourceforge.net/DTD/sodipodi-0.dtd"
   xmlns:inkscape="http://www.inkscape.org/namespaces/inkscape"
   width="88px"
   height="88px"
   viewBox="0 0 88 88"
   version="1.1"
   id="svg118"
   sodipodi:docname="icon.svg"
   inkscape:version="1.0.1 (c497b03c, 2020-09-10)">
  <metadata
     id="metadata124">
    <rdf:RDF>
      <cc:Work
         rdf:about="">
        <dc:format>image/svg+xml</dc:format>
        <dc:type
           rdf:resource="http://purl.org/dc/dcmitype/StillImage" />
      </cc:Work>
    </rdf:RDF>
  </metadata>
  <defs
     id="defs122" />
  <sodipodi:namedview
     pagecolor="#ffffff"
     bordercolor="#666666"
     borderopacity="1"
     objecttolerance="10"
     gridtolerance="10"
     guidetolerance="10"
     inkscape:pageopacity="0"
     inkscape:pageshadow="2"
     inkscape:window-width="1437"
     inkscape:window-height="921"
     id="namedview120"
     showgrid="false"
     inkscape:zoom="8.9772727"
     inkscape:cx="44"
     inkscape:cy="52.911392"
     inkscape:window-x="0"
     inkscape:window-y="23"
     inkscape:window-maximized="0"
     inkscape:current-layer="svg118" />
  <!-- Generator: Sketch 57.1 (83088) - https://sketch.com -->
  <title
     id="title102">Fittest IDE square</title>
  <desc
     id="desc104">Created with Sketch.</desc>
  <g
     id="Fittest-IDE-square"
     stroke="none"
     stroke-width="1"
     fill="none"
     fill-rule="evenodd">
    <rect
       id="Rectangle"
       fill="#271d30"
       x="0"
       y="0"
       width="88"
       height="88"
       rx="0"
       ry="0.11139241" />
    <g
       id="Group-12"
       transform="translate(6.000000, 4.000000)">
      <polygon
         id="Fill-1"
         fill="#271D30"
         points="0 80 32 80 32 0 0 0" />
      <polygon
         id="Fill-2"
         fill="#00FAFA"
         points="23.9209 25.3057 11.4209 54.6947 8.0799 54.6947 20.5789 25.3057" />
      <g
         id="Group-11"
         transform="translate(0.000000, 2.000000)">
        <path
           d="M7.2637,22.7817 C10.9987,22.7817 14.0277,25.8097 14.0277,29.5457 C14.0277,33.2807 10.9987,36.3087 7.2637,36.3087 C3.5287,36.3087 0.4997,33.2807 0.4997,29.5457 C0.4997,25.8097 3.5287,22.7817 7.2637,22.7817 M7.2637,25.5997 C5.0847,25.5997 3.3187,27.3657 3.3187,29.5457 C3.3187,31.7247 5.0847,33.4907 7.2637,33.4907 C9.4427,33.4907 11.2087,31.7247 11.2087,29.5457 C11.2087,27.3657 9.4427,25.5997 7.2637,25.5997"
           id="Fill-3"
           fill="#F952F9" />
        <path
           d="M24.7363,39.6904 C28.4713,39.6904 31.5003,42.7184 31.5003,46.4544 C31.5003,50.1904 28.4713,53.2174 24.7363,53.2174 C21.0013,53.2174 17.9723,50.1904 17.9723,46.4544 C17.9723,42.7184 21.0013,39.6904 24.7363,39.6904 M24.7363,42.5084 C22.5573,42.5084 20.7913,44.2754 20.7913,46.4544 C20.7913,48.6334 22.5573,50.4004 24.7363,50.4004 C26.9153,50.4004 28.6813,48.6334 28.6813,46.4544 C28.6813,44.2754 26.9153,42.5084 24.7363,42.5084"
           id="Fill-5"
           fill="#F952F9" />
        <path
           d="M18.126,0.1562 L9.253,21.0182 C10.274,21.2572 11.229,21.6702 12.079,22.2312 L21.468,0.1562 L18.126,0.1562 Z"
           id="Fill-7"
           fill="#00FAFA" />
        <path
           d="M10.5679,75.8438 L13.9089,75.8438 L22.7789,54.9898 C21.7569,54.7548 20.8019,54.3438 19.9489,53.7848 L10.5679,75.8438 Z"
           id="Fill-9"
           fill="#00FAFA" />
      </g>
    </g>
    <rect
       id="rect115"
       fill="#00FAFA"
       x="44"
       y="18"
       width="26"
       height="52" />
  </g>
</svg>
